<?xml version="1.0" encoding="UTF-8"?>
<svg width="156px" height="132px" viewBox="0 0 156 132" version="1.1" xmlns="http://www.w3.org/2000/svg" xmlns:xlink="http://www.w3.org/1999/xlink">
    <!-- Generator: Sketch 41 (35326) - http://www.bohemiancoding.com/sketch -->
    <title>pourquoi</title>
    <desc>Created with Sketch.</desc>
    <defs>
        <rect id="path-1" x="0" y="40" width="12" height="14" rx="4"></rect>
        <mask id="mask-2" maskContentUnits="userSpaceOnUse" maskUnits="objectBoundingBox" x="0" y="0" width="12" height="14" fill="white">
            <use xlink:href="#path-1"></use>
        </mask>
        <rect id="path-3" x="18" y="10" width="12" height="44" rx="4"></rect>
        <mask id="mask-4" maskContentUnits="userSpaceOnUse" maskUnits="objectBoundingBox" x="0" y="0" width="12" height="44" fill="white">
            <use xlink:href="#path-3"></use>
        </mask>
        <rect id="path-5" x="36" y="30" width="12" height="24" rx="4"></rect>
        <mask id="mask-6" maskContentUnits="userSpaceOnUse" maskUnits="objectBoundingBox" x="0" y="0" width="12" height="24" fill="white">
            <use xlink:href="#path-5"></use>
        </mask>
        <rect id="path-7" x="54" y="0" width="12" height="54" rx="4"></rect>
        <mask id="mask-8" maskContentUnits="userSpaceOnUse" maskUnits="objectBoundingBox" x="0" y="0" width="12" height="54" fill="white">
            <use xlink:href="#path-7"></use>
        </mask>
    </defs>
    <g id="Page-1" stroke="none" stroke-width="1" fill="none" fill-rule="evenodd">
        <g id="Desktop" transform="translate(-558.000000, -1018.000000)">
            <g id="cards" transform="translate(206.000000, 633.000000)">
                <g id="card">
                    <g id="illustration" transform="translate(352.000000, 385.000000)">
                        <polygon id="Rectangle-5" fill="#F3F8FE" points="111 26 111 109 28 109"></polygon>
                        <polyline id="Path-7" stroke="#1572EA" stroke-width="2" points="3 98 35 72 46 83 76 55"></polyline>
                        <rect id="Rectangle-7" fill="#1572EA" x="65" y="54" width="12" height="2" rx="1"></rect>
                        <rect id="Rectangle-7" fill="#1572EA" transform="translate(76.000000, 60.000000) rotate(-270.000000) translate(-76.000000, -60.000000) " x="70" y="59" width="12" height="2" rx="1"></rect>
                        <g id="heart" transform="translate(5.000000, 77.000000)" stroke="#1572EA" stroke-width="4" fill="#FFFFFF">
                            <use id="Rectangle-6" mask="url(#mask-2)" transform="translate(6.000000, 47.000000) scale(1, -1) translate(-6.000000, -47.000000) " xlink:href="#path-1"></use>
                            <use id="Rectangle-6" mask="url(#mask-4)" transform="translate(24.000000, 32.000000) scale(1, -1) translate(-24.000000, -32.000000) " xlink:href="#path-3"></use>
                            <use id="Rectangle-6" mask="url(#mask-6)" transform="translate(42.000000, 42.000000) scale(1, -1) translate(-42.000000, -42.000000) " xlink:href="#path-5"></use>
                            <use id="Rectangle-6" mask="url(#mask-8)" transform="translate(60.000000, 27.000000) scale(1, -1) translate(-60.000000, -27.000000) " xlink:href="#path-7"></use>
                        </g>
                    </g>
                </g>
            </g>
        </g>
    </g>
</svg>