<?xml version="1.0" encoding="UTF-8"?>
<svg width="156px" height="132px" viewBox="0 0 156 132" version="1.1" xmlns="http://www.w3.org/2000/svg" xmlns:xlink="http://www.w3.org/1999/xlink">
    <!-- Generator: Sketch 41.1 (35376) - http://www.bohemiancoding.com/sketch -->
    <title>etranger-euro</title>
    <desc>Created with Sketch.</desc>
    <defs>
        <circle id="path-1" cx="80" cy="32" r="10"></circle>
        <mask id="mask-2" maskContentUnits="userSpaceOnUse" maskUnits="objectBoundingBox" x="0" y="0" width="20" height="20" fill="white">
            <use xlink:href="#path-1"></use>
        </mask>
        <circle id="path-3" cx="38" cy="38" r="38"></circle>
    </defs>
    <g id="Page-1" stroke="none" stroke-width="1" fill="none" fill-rule="evenodd">
        <g id="Desktop" transform="translate(-685.000000, -1763.000000)">
            <g id="time" transform="translate(685.000000, 1763.000000)">
                <rect id="Rectangle-17" fill="#F3F8FE" x="46" y="23" width="80" height="80" rx="10"></rect>
                <g id="Group-15" transform="translate(42.000000, 85.000000) rotate(-180.000000) translate(-42.000000, -85.000000) translate(16.000000, 42.000000)"></g>
                <g id="Group-7" transform="translate(6.000000, 50.000000)">
                    <path d="M37.3361928,40.5824381 C37.3361928,40.5824381 49.6289478,41.0923995 53.4925062,39.7412136 C57.3560645,38.3900276 57.121567,35.8366888 49.8373116,39.4417348 C42.5530561,43.0467809 33.9388042,50.2773562 34.967203,48.8082151 C35.9956017,47.3390741 36.2187981,47.2394833 46.1015967,46.3890767 C55.9843953,45.53867 57.3073286,43.0828031 57.3073286,43.0828031" id="Path-2" stroke="#1572EA" stroke-width="2" stroke-linecap="round" transform="translate(46.095264, 43.299169) rotate(12.000000) translate(-46.095264, -43.299169) "></path>
                    <use id="Oval-3" stroke="#1572EA" mask="url(#mask-2)" stroke-width="4" fill="#FFFFFF" xlink:href="#path-1"></use>
                    <rect id="Rectangle-10" fill="#1572EA" x="82" y="15" width="2" height="12" rx="1"></rect>
                    <rect id="Rectangle-10" fill="#1572EA" x="82" y="16" width="9" height="6" rx="2"></rect>
                    <g id="Oval-Clipped">
                        <mask id="mask-4" fill="white">
                            <use xlink:href="#path-3"></use>
                        </mask>
                        <g id="path-1"></g>
                        <g id="Oval" mask="url(#mask-4)" stroke="#1572EA" stroke-width="4" fill="#FFFFFF">
                            <circle id="path-1" cx="38" cy="38" r="38"></circle>
                        </g>
                    </g>
                    <path d="M63.5419922,11.1484375 C63.5419922,11.1484375 51.7294922,12.7802734 51.7294922,19.1982422 C51.7294922,25.6162109 45.7128906,20.8730469 41.2431641,22.2802734 C36.7734375,23.6875 32.9072266,33.0332031 40.3398438,34.4140625 C47.7724609,35.7949219 53.2207031,35.7109375 56.6894531,33.8076172 C60.1582031,31.9042969 66.5126953,40.7695313 59.6660156,43 C52.8193359,45.2304688 40.9785156,37.7558594 36.5810547,41.0371094 C32.1835937,44.3183594 28.7685547,52.6044922 35.0058594,54.9550781 C41.2431641,57.3056641 43.9023437,55.5078125 42.1210938,64.8955078 C40.3398438,74.2832031 52.296875,74.0146484 55.2148438,69.4550781 C58.1328125,64.8955078 55.9267578,60.75 59.734375,60.75 C63.5419922,60.75 66.1445313,61.6337891 66.1445313,61.6337891" id="Path-3" stroke="#1572EA" stroke-width="2"></path>
                    <path d="M25.1845703,3.6894531 C25.1845703,3.6894531 36.4746094,4.2714844 34.1835938,8.6367187 C31.8925781,13.0019531 36.8662109,15.2402344 31.0253906,18.9638672 C25.1845703,22.6875 18.7744141,19.1025391 13.5390625,24.8261719 C8.30371094,30.5498047 2.875,33.8925781 6.9609375,33.8925781 C11.046875,33.8925781 15.0771484,35.1503906 11.5371094,43.9462891 C7.99707031,52.7421875 9.88964844,52.2255859 8.53613281,54.1347656 C7.18261719,56.0439453 6.9609375,57.0703125 6.9609375,57.0703125" id="Path-4" stroke="#1572EA" stroke-width="2"></path>
                </g>
            </g>
        </g>
    </g>
</svg>