<?xml version="1.0" encoding="UTF-8"?>
<svg width="132px" height="132px" viewBox="0 0 132 132" version="1.1" xmlns="http://www.w3.org/2000/svg" xmlns:xlink="http://www.w3.org/1999/xlink">
    <!-- Generator: Sketch 41 (35326) - http://www.bohemiancoding.com/sketch -->
    <title>facebook</title>
    <desc>Created with Sketch.</desc>
    <defs></defs>
    <g id="Page-1" stroke="none" stroke-width="1" fill="none" fill-rule="evenodd">
        <g id="Desktop" transform="translate(-511.000000, -836.000000)">
            <g id="cards" transform="translate(206.000000, 633.000000)">
                <g id="card">
                    <g id="illustration" transform="translate(156.000000, 157.000000)"></g>
                </g>
            </g>
            <g id="Group-3" transform="translate(511.000000, 836.000000)" fill="#1572EA">
                <path d="M99.7712941,0 L5.82767059,0 C2.60894118,0 0,2.60583529 0,5.82145882 L0,99.6563765 C0,102.870965 2.60894118,105.477835 5.82767059,105.477835 L56.4038588,105.477835 L56.4038588,64.6313412 L42.6416941,64.6313412 L42.6416941,48.7126588 L56.4038588,48.7126588 L56.4038588,36.9734588 C56.4038588,23.3489882 64.7348706,15.9311059 76.9016471,15.9311059 C82.7303529,15.9311059 87.7391059,16.3638588 89.1988706,16.5584941 L89.1988706,30.7958588 L80.7601882,30.8 C74.1425882,30.8 72.8619294,33.9400471 72.8619294,38.5491765 L72.8619294,48.7126588 L88.6429176,48.7126588 L86.5888941,64.6313412 L72.8619294,64.6313412 L72.8619294,105.477835 L99.7712941,105.477835 C102.990024,105.477835 105.6,102.870965 105.6,99.6563765 L105.6,5.82145882 C105.6,2.60583529 102.990024,0 99.7712941,0" id="Fill-56"></path>
            </g>
        </g>
    </g>
</svg>