<?xml version="1.0" encoding="UTF-8"?>
<svg width="132px" height="132px" viewBox="0 0 132 132" version="1.1" xmlns="http://www.w3.org/2000/svg" xmlns:xlink="http://www.w3.org/1999/xlink">
    <!-- Generator: Sketch 41 (35326) - http://www.bohemiancoding.com/sketch -->
    <title>facebook</title>
    <desc>Created with Sketch.</desc>
    <defs></defs>
    <g id="Page-1" stroke="none" stroke-width="1" fill="none" fill-rule="evenodd">
        <g id="Desktop" transform="translate(-498.000000, -836.000000)">
            <g id="cards" transform="translate(69.000000, 710.000000)">
                <g id="card"></g>
            </g>
            <g id="Group-3" transform="translate(498.000000, 836.000000)" fill="#1572EA">
                <path d="M112.771294,0 L18.8276706,0 C15.6089412,0 13,2.60583529 13,5.82145882 L13,99.6563765 C13,102.870965 15.6089412,105.477835 18.8276706,105.477835 L69.4038588,105.477835 L69.4038588,64.6313412 L55.6416941,64.6313412 L55.6416941,48.7126588 L69.4038588,48.7126588 L69.4038588,36.9734588 C69.4038588,23.3489882 77.7348706,15.9311059 89.9016471,15.9311059 C95.7303529,15.9311059 100.739106,16.3638588 102.198871,16.5584941 L102.198871,30.7958588 L93.7601882,30.8 C87.1425882,30.8 85.8619294,33.9400471 85.8619294,38.5491765 L85.8619294,48.7126588 L101.642918,48.7126588 L99.5888941,64.6313412 L85.8619294,64.6313412 L85.8619294,105.477835 L112.771294,105.477835 C115.990024,105.477835 118.6,102.870965 118.6,99.6563765 L118.6,5.82145882 C118.6,2.60583529 115.990024,0 112.771294,0" id="Fill-56"></path>
            </g>
        </g>
    </g>
</svg>