<?xml version="1.0" encoding="UTF-8"?>
<svg width="156px" height="132px" viewBox="0 0 156 132" version="1.1" xmlns="http://www.w3.org/2000/svg" xmlns:xlink="http://www.w3.org/1999/xlink">
    <!-- Generator: Sketch 41.1 (35376) - http://www.bohemiancoding.com/sketch -->
    <title>fail</title>
    <desc>Created with Sketch.</desc>
    <defs>
        <rect id="path-1" x="38" y="36" width="8" height="58" rx="4"></rect>
        <mask id="mask-2" maskContentUnits="userSpaceOnUse" maskUnits="objectBoundingBox" x="0" y="0" width="8" height="58" fill="white">
            <use xlink:href="#path-1"></use>
        </mask>
        <rect id="path-3" x="0" y="0" width="84" height="60" rx="4"></rect>
        <mask id="mask-4" maskContentUnits="userSpaceOnUse" maskUnits="objectBoundingBox" x="0" y="0" width="84" height="60" fill="white">
            <use xlink:href="#path-3"></use>
        </mask>
        <path d="M16.792807,4 C22.9823688,4 28,9.01932944 28,15.1980823 L28,42.8505203 L0,42.8505203 L0,17.9984801 C0,11.573261 4.32812822,6.15909501 10.2296653,4.51332954 L9,1 L13.1875,3.39285714 L12,0 L19,4 L16.792807,4 Z M15.5214035,4 L14.25,4 L15.5214035,4 Z" id="path-5"></path>
        <mask id="mask-7" maskContentUnits="userSpaceOnUse" maskUnits="objectBoundingBox" x="-2" y="-2" width="32" height="46.8505203">
            <rect x="-2" y="-2" width="32" height="46.8505203" fill="white"></rect>
            <use xlink:href="#path-5" fill="black"></use>
        </mask>
        <filter x="-50%" y="-50%" width="200%" height="200%" filterUnits="objectBoundingBox" id="filter-8">
            <feOffset dx="0" dy="3" in="SourceAlpha" result="shadowOffsetOuter1"></feOffset>
            <feColorMatrix values="0 0 0 0 0   0 0 0 0 0   0 0 0 0 0  0 0 0 0.123980978 0" type="matrix" in="shadowOffsetOuter1" result="shadowMatrixOuter1"></feColorMatrix>
            <feMerge>
                <feMergeNode in="shadowMatrixOuter1"></feMergeNode>
                <feMergeNode in="SourceGraphic"></feMergeNode>
            </feMerge>
        </filter>
    </defs>
    <g id="Page-1" stroke="none" stroke-width="1" fill="none" fill-rule="evenodd">
        <g id="Desktop" transform="translate(-560.000000, -1276.000000)">
            <g id="fail" transform="translate(560.000000, 1276.000000)">
                <rect id="Rectangle-17" fill="#F3F8FE" x="46" y="22" width="80" height="80" rx="10"></rect>
                <g id="Group-8" transform="translate(68.500000, 92.000000) rotate(-270.000000) translate(-68.500000, -92.000000) translate(67.500000, 90.500000)" fill="#1572EA" opacity="0.400000006">
                    <rect id="Rectangle-15" x="0" y="0" width="2" height="3"></rect>
                </g>
                <g id="Group-9" transform="translate(0.000000, 38.000000)">
                    <use id="d-day" stroke="#1572EA" mask="url(#mask-2)" stroke-width="4" fill="#F3F8FE" xlink:href="#path-1"></use>
                    <use id="d-day" stroke="#1572EA" mask="url(#mask-4)" stroke-width="4" fill="#FFFFFF" xlink:href="#path-3"></use>
                    <path d="M16,43 C15.5403698,43.7125029 14.8323023,44 14,44 C13.1676977,44 12.4596302,43.7125029 12,43 C11.2919225,42.5624971 11,41.8500042 11,41 C11,40.1499957 11.2919225,39.4375029 12,39 C12.4596302,38.2874971 13.1676977,38 14,38 C14.8323023,38 15.5403698,38.2874971 16,39 C16.7080775,39.4375029 17,40.1499957 17,41 C17,41.8500042 16.7080775,42.5624971 16,43 Z M12,36 L11,18 L17,18 L16,36 L12,36 Z" id="!" fill="#1572EA"></path>
                    <path d="M72,43 C71.5403698,43.7125029 70.8323023,44 70,44 C69.1676977,44 68.4596302,43.7125029 68,43 C67.2919225,42.5624971 67,41.8500042 67,41 C67,40.1499957 67.2919225,39.4375029 68,39 C68.4596302,38.2874971 69.1676977,38 70,38 C70.8323023,38 71.5403698,38.2874971 72,39 C72.7080775,39.4375029 73,40.1499957 73,41 C73,41.8500042 72.7080775,42.5624971 72,43 Z M68,36 L67,18 L73,18 L72,36 L68,36 Z" id="!" fill="#1572EA"></path>
                    <g id="Group-12" transform="translate(25.000000, 14.000000)">
                        <g id="Group-10" stroke="#1572EA" stroke-width="2" fill="#D6E6FC">
                            <path d="M24.25,13 L22.0194033,4.07761307 C21.4564024,1.82560956 22.7532378,0.657464191 24.9357075,1.4758903 L34,4.875 L27.5,8.125 L24.25,13 Z" id="Path-37" transform="translate(27.500000, 6.500000) scale(-1, 1) translate(-27.500000, -6.500000) "></path>
                            <path d="M3.25,13 L1.01940327,4.07761307 C0.456402389,1.82560956 1.75323784,0.657464191 3.93570746,1.4758903 L13,4.875 L6.5,8.125 L3.25,13 Z" id="Path-40"></path>
                        </g>
                        <g id="grumpy-cat" transform="translate(3.000000, 1.000000)">
                            <mask id="mask-6" fill="white">
                                <use xlink:href="#path-5"></use>
                            </mask>
                            <g id="Rectangle-65">
                                <use fill="#F3F8FE" fill-rule="evenodd" xlink:href="#path-5"></use>
                                <use stroke="#1572EA" mask="url(#mask-7)" stroke-width="4" xlink:href="#path-5"></use>
                            </g>
                            <g id="Oval-130-+-Oval-131-+-Oval-132" opacity="0.5" mask="url(#mask-6)" fill="#1572EA">
                                <g transform="translate(22.000000, 19.000000)">
                                    <circle id="Oval-130" cx="0.5" cy="0.5" r="0.5"></circle>
                                    <circle id="Oval-131" cx="3.5" cy="1.5" r="0.5"></circle>
                                    <circle id="Oval-132" cx="0.5" cy="3.5" r="0.5"></circle>
                                </g>
                            </g>
                            <g id="Oval-130-+-Oval-131-+-Oval-133" opacity="0.5" mask="url(#mask-6)" fill="#1572EA">
                                <g transform="translate(4.000000, 21.000000) scale(-1, 1) translate(-4.000000, -21.000000) translate(2.000000, 19.000000)">
                                    <circle id="Oval-130" cx="0.5" cy="0.5" r="0.5"></circle>
                                    <circle id="Oval-131" cx="3.5" cy="1.5" r="0.5"></circle>
                                    <circle id="Oval-132" cx="0.5" cy="3.5" r="0.5"></circle>
                                </g>
                            </g>
                            <g id="bg" mask="url(#mask-6)">
                                <g transform="translate(-1.000000, 6.000000)" id="Group">
                                    <g>
                                        <path d="M15,28 C23.2842712,28 30,22.0659932 30,18.2 C30,14.3340068 23.2842712,14 15,14 C6.71572875,14 0,14.3340068 0,18.2 C0,22.0659932 6.71572875,28 15,28 Z" id="Oval-128" fill="#FFFFFF"></path>
                                        <g id="Group-11" opacity="0.176460598" fill="#1572EA">
                                            <path d="M1.40506517,9.97114701 L2.8,13.5 C2.8,13.5 3.97269276,13.536587 4.2,14.9166667 C4.29769154,15.5097939 5.31718573,17.2900743 4.2,19.1666667 C2.57990749,21.8880165 0,22 0,22 C0,22 9.53624213,20.3692127 11.2,19.1666667 C12.8029088,18.0081016 14,13.5 14,13.5 L14,6.41666667 C14,6.41666667 12.1672423,6.04575142 10.0022012,5.68350518 C9.03725302,4.67413179 7.29233873,4 5.3,4 C2.92593708,4 0.903192384,4.95720047 0.132799075,6.29821667 C0.0442663583,6.37187333 0,6.41666667 0,6.41666667 L0.0305729466,6.49400894 C-0.119418188,6.81262252 -0.2,7.15032279 -0.2,7.5 C-0.2,8.46460413 0.413197846,9.33806824 1.40506517,9.97114701 Z" id="Path-33" transform="translate(7.000000, 13.000000) scale(-1, 1) translate(-7.000000, -13.000000) "></path>
                                            <path d="M1.20448201,7.32941745 L3.4,13.5384615 C3.4,13.5384615 6.52398407,11.6650502 6.8,13.5384615 C6.91862545,14.3436116 6.45658267,18.6833588 5.1,21.2307692 C3.13274481,24.9249093 0,27 0,27 C0,27 11.5797226,22.8631847 13.6,21.2307692 C15.5463892,19.6580565 17,13.5384615 17,13.5384615 L17,3.92307692 C17,3.92307692 15.7305466,3.63587027 13.9765784,3.28344186 C12.9961835,1.36756019 10.4216793,2.27373675e-13 7.4,2.27373675e-13 C4.41273318,2.27373675e-13 1.86251413,1.33658856 0.857535961,3.2181992 C0.28584532,3.59972249 0,3.92307692 0,3.92307692 L0.400422233,5.05549274 C0.412913897,5.87600816 0.702101166,6.6491026 1.20448201,7.32941745 Z" id="Path-34" opacity="0.319846082" transform="translate(8.500000, 13.500000) scale(-1, 1) translate(-8.500000, -13.500000) "></path>
                                            <g id="Path-36-+-Path-35" transform="translate(22.000000, 13.500000) scale(-1, 1) translate(-22.000000, -13.500000) translate(13.000000, 0.000000)">
                                                <path d="M1.9972217,9.78265409 L3.46666667,13.5 C3.46666667,13.5 4.63935943,13.536587 4.86666667,14.9166667 C4.96435821,15.5097939 5.9838524,17.2900743 4.86666667,19.1666667 C3.24657416,21.8880165 0.666666667,22 0.666666667,22 C0.666666667,22 10.2029088,20.3692127 11.8666667,19.1666667 C13.4695755,18.0081016 14.6666667,13.5 14.6666667,13.5 L14.6666667,6.41666667 C14.6666667,6.41666667 12.9663701,6.07255902 10.9065583,5.72352952 C9.94980397,4.69199207 8.18522514,4 6.16666667,4 C3.96323192,4 2.06243041,4.8245535 1.18464716,6.01523366 C0.839326831,6.24195102 0.666666667,6.41666667 0.666666667,6.41666667 L0.795657028,6.74298157 C0.711193134,6.98675618 0.666666667,7.24006909 0.666666667,7.5 C0.666666667,8.37216717 1.16797145,9.16982506 1.9972217,9.78265409 Z" id="Path-36" transform="translate(7.833333, 13.000000) scale(-1, 1) translate(-7.833333, -13.000000) "></path>
                                                <path d="M2.46244861,8.05896101 L4.4,13.5384615 C4.4,13.5384615 7.52398407,11.6650502 7.8,13.5384615 C7.91862545,14.3436116 7.45658267,18.6833588 6.1,21.2307692 C4.13274481,24.9249093 1,27 1,27 C1,27 12.5797226,22.8631847 14.6,21.2307692 C16.5463892,19.6580565 18,13.5384615 18,13.5384615 L18,3.92307692 C18,3.92307692 16.5107436,3.58614109 14.5296202,3.19433655 C13.5158902,1.32529817 10.9746231,2.27373675e-13 8,2.27373675e-13 C4.76978884,2.27373675e-13 2.05060334,1.56282927 1.24359836,3.68766293 C1.08119945,3.83122234 1,3.92307692 1,3.92307692 L1.09256262,4.18484904 C1.03166746,4.45012114 1,4.72241902 1,5 C1,6.15223249 1.54564986,7.21343401 2.46244861,8.05896101 Z" id="Path-35" opacity="0.319846082" transform="translate(9.500000, 13.500000) scale(-1, 1) translate(-9.500000, -13.500000) "></path>
                                            </g>
                                        </g>
                                    </g>
                                </g>
                            </g>
                            <path d="M10,21 C10,21 10.8,23 14,23 C17.2,23 18,21 18,21" id="mooth-3" stroke="#1572EA" stroke-width="2" stroke-linecap="round" stroke-linejoin="round" mask="url(#mask-6)" transform="translate(14.000000, 22.000000) scale(1, -1) translate(-14.000000, -22.000000) "></path>
                            <g id="face" filter="url(#filter-8)" mask="url(#mask-6)">
                                <g transform="translate(-4.000000, 12.000000)">
                                    <g id="ears" transform="translate(0.000000, 2.000000)">
                                        <g id="ear"></g>
                                        <g id="ear" transform="translate(28.000000, 0.000000)"></g>
                                    </g>
                                    <g id="eye" transform="translate(9.000000, 0.000000)"></g>
                                    <g id="eye" transform="translate(23.000000, 0.000000)"></g>
                                </g>
                            </g>
                            <path d="M11,14 C11,16.209139 9.209139,18 7,18 C4.790861,18 3,16.209139 3,14 L11,14 Z" id="Oval-119" fill="#FFFFFF" mask="url(#mask-6)"></path>
                            <path d="M9.73243561,14 C9.90260571,14.2941734 10,14.6357129 10,15 C10,16.1045695 9.1045695,17 8,17 C6.8954305,17 6,16.1045695 6,15 C6,14.6357129 6.09739429,14.2941734 6.26756439,14 L9.73243561,14 Z" id="Oval-120" fill="#1572EA" mask="url(#mask-6)"></path>
                            <g id="Oval-123-+-Oval-122" mask="url(#mask-6)">
                                <g transform="translate(20.000000, 16.000000) scale(-1, 1) translate(-20.000000, -16.000000) translate(16.000000, 13.000000)">
                                    <path d="M8,1 C8,3.76142375 6.209139,6 4,6 C1.790861,6 0,3.76142375 0,1 L8,1 Z" id="Oval-123" fill="#FFFFFF" transform="translate(4.000000, 3.500000) scale(-1, 1) translate(-4.000000, -3.500000) "></path>
                                    <path d="M6.95999275,1 C6.9862279,1.16155497 7,1.32876708 7,1.5 C7,2.88071187 6.1045695,4 5,4 C3.8954305,4 3,2.88071187 3,1.5 C3,1.32876708 3.0137721,1.16155497 3.04000725,1 L6.95999275,1 Z" id="Oval-122" fill="#1572EA" transform="translate(5.000000, 1.500000) scale(-1, 1) translate(-5.000000, -1.500000) "></path>
                                </g>
                            </g>
                            <rect id="Rectangle-69" fill="#1572EA" mask="url(#mask-6)" x="2" y="13" width="10" height="2"></rect>
                            <rect id="Rectangle-70" fill="#1572EA" mask="url(#mask-6)" x="16" y="13" width="10" height="2"></rect>
                            <path d="M15.6283765,19 L16.4952612,19 C17.3316845,19 18,18.3284271 18,17.5 C18,16.6657972 17.3263055,16 16.4952612,16 L11.5047388,16 C10.6683155,16 10,16.6715729 10,17.5 C10,18.3342028 10.6736945,19 11.5047388,19 L12.3699187,19 C12.5743515,19.5851089 13.1282853,20 13.7795619,20 L14.2204381,20 C14.8641226,20 15.421354,19.5825962 15.6283765,19 Z" id="Rectangle-67" fill="#1572EA" mask="url(#mask-6)"></path>
                            <g id="Path-34-+-Path-35" mask="url(#mask-6)">
                                <g transform="translate(-4.000000, 0.000000)">
                                    <path d="M2.75,12 L0.938702513,4.09615642 C0.42027143,1.8339117 1.7429827,0.713038377 3.87818851,1.58653166 L11,4.5 L5.5,7.5 L2.75,12 Z" id="Path-34" fill="#927E74"></path>
                                    <polygon id="Path-35" fill="#D09A9F" points="3 4 3 11 6 6.8"></polygon>
                                </g>
                            </g>
                            <g id="Path-34-+-Path-36" mask="url(#mask-6)">
                                <g transform="translate(25.500000, 6.500000) scale(-1, 1) translate(-25.500000, -6.500000) translate(20.000000, 0.000000)">
                                    <path d="M2.75,12 L0.938702513,4.09615642 C0.42027143,1.8339117 1.7429827,0.713038377 3.87818851,1.58653166 L11,4.5 L5.5,7.5 L2.75,12 Z" id="Path-34" fill="#927E74"></path>
                                    <polygon id="Path-35" fill="#D09A9F" points="2 4 2 11 5 6.8"></polygon>
                                </g>
                            </g>
                        </g>
                    </g>
                </g>
            </g>
        </g>
    </g>
</svg>