<?xml version="1.0" encoding="UTF-8"?>
<svg width="156px" height="132px" viewBox="0 0 156 132" version="1.1" xmlns="http://www.w3.org/2000/svg" xmlns:xlink="http://www.w3.org/1999/xlink">
    <!-- Generator: Sketch 41.1 (35376) - http://www.bohemiancoding.com/sketch -->
    <title>generation</title>
    <desc>Created with Sketch.</desc>
    <defs>
        <rect id="path-1" x="24" y="55" width="33" height="26" rx="3"></rect>
        <mask id="mask-2" maskContentUnits="userSpaceOnUse" maskUnits="objectBoundingBox" x="0" y="0" width="33" height="26" fill="white">
            <use xlink:href="#path-1"></use>
        </mask>
    </defs>
    <g id="Page-1" stroke="none" stroke-width="1" fill="none" fill-rule="evenodd">
        <g id="Desktop" transform="translate(-422.000000, -1697.000000)">
            <g id="time" transform="translate(422.000000, 1697.000000)">
                <rect id="Rectangle-17" fill="#F3F8FE" x="46" y="23" width="80" height="80" rx="10"></rect>
                <g id="Group-15" transform="translate(42.000000, 85.000000) rotate(-180.000000) translate(-42.000000, -85.000000) translate(16.000000, 42.000000)"></g>
                <rect id="Rectangle-27" stroke="#1572EA" stroke-width="2" fill="#F3F8FE" x="51" y="25" width="6" height="19" rx="2"></rect>
                <path d="M17.5029282,42.9707177 C17.7774534,40.2254661 20.230547,37.797223 22.9783946,37.5474187 L29.0483397,36.9956055 C35.0967747,36.4457478 44.9058661,36.4265971 50.961113,36.9531403 L58.0093426,37.5660298 C60.7656066,37.8057049 63.2230367,40.2303666 63.4970718,42.9707177 L63.5607578,43.607578 C64.9079141,57.0791407 65.412663,78.9636246 64.6885206,92.4809495 L63.3746424,117.006675 C63.1677331,120.868982 59.8714148,124 55.9934531,124 L25.0065469,124 C21.1369379,124 17.8322787,120.869202 17.6253576,117.006675 L16.3114794,92.4809495 C15.5871693,78.9604944 16.0915553,57.0844469 17.4392422,43.607578 L17.5029282,42.9707177 Z" id="Combined-Shape" stroke="#1572EA" stroke-width="2" fill="#FFFFFF"></path>
                <path d="M22.3342182,44.3701117 C22.4740554,43.2745677 23.4795636,42.3229131 24.5784331,42.2446494 L29.1181222,41.9213234 C35.1791253,41.4896462 44.9968205,41.4738091 51.0683242,41.8874331 L56.4000044,42.2506562 C57.5008987,42.3256551 58.5068769,43.2758735 58.6465474,44.3701117 L58.3933498,42.3864537 C59.7116879,52.7148774 60.1842131,69.8066914 59.4490364,80.5581089 L59.7247255,76.5263581 C58.989427,87.2795575 49.6571352,95.9967479 38.8925471,95.9967479 L42.0882186,95.9967479 C31.3182226,95.9967479 21.9912168,87.2777757 21.2560401,76.5263581 L21.5317293,80.5581089 C20.7964308,69.8049096 21.3065373,52.421403 22.5874158,42.3864537 L22.3342182,44.3701117 Z" id="Combined-Shape" fill-opacity="0.120471014" fill="#1572EA"></path>
                <ellipse id="Oval-10" fill="#FFFFFF" cx="40.5" cy="90.5" rx="7.5" ry="2.5"></ellipse>
                <path d="M23,99.3682184 C23,98.0602875 24.0547262,97.0958842 25.359776,97.2145251 L31.640224,97.7854749 C32.9434923,97.9039538 34,99.0614249 34,100.373047 L34,99.6269531 C34,100.937551 32.9452738,102 31.6267065,102 L25.3732935,102 C24.0625597,102 23,100.939629 23,99.6317816 L23,99.3682184 Z" id="Rectangle-26" fill="#E3EEFC"></path>
                <path d="M23,105.368218 C23,104.060287 24.0547262,103.095884 25.359776,103.214525 L31.640224,103.785475 C32.9434923,103.903954 34,105.061425 34,106.373047 L34,105.626953 C34,106.937551 32.9452738,108 31.6267065,108 L25.3732935,108 C24.0625597,108 23,106.939629 23,105.631782 L23,105.368218 Z" id="Rectangle-26" fill="#E3EEFC"></path>
                <path d="M23,111.368218 C23,110.060287 24.0547262,109 25.3732935,109 L31.6267065,109 C32.9374403,109 34,110.061425 34,111.373047 L34,110.626953 C34,111.937551 32.9452738,113.095884 31.640224,113.214525 L25.359776,113.785475 C24.0565077,113.903954 23,112.939629 23,111.631782 L23,111.368218 Z" id="Rectangle-26" fill="#E3EEFC"></path>
                <path d="M23,117.396095 C23,116.072768 24.0747546,114.902295 25.3868362,114.783015 L31.6131638,114.216985 C32.931377,114.097148 34,115.072625 34,116.382851 L34,116.617149 C34,117.933161 32.9252454,119 31.6131638,119 L25.3868362,119 C24.068623,119 23,117.928073 23,116.603905 L23,117.396095 Z" id="Rectangle-26" fill="#E3EEFC"></path>
                <path d="M47,99.3682184 C47,98.0602875 48.0547262,97.0958842 49.359776,97.2145251 L55.640224,97.7854749 C56.9434923,97.9039538 58,99.0614249 58,100.373047 L58,99.6269531 C58,100.937551 56.9452738,102 55.6267065,102 L49.3732935,102 C48.0625597,102 47,100.939629 47,99.6317816 L47,99.3682184 Z" id="Rectangle-26" fill="#E3EEFC" transform="translate(52.500000, 99.623914) scale(-1, 1) translate(-52.500000, -99.623914) "></path>
                <path d="M36,100 C36,98.8954305 36.8958578,98 37.9973917,98 L43.0026083,98 C44.1057373,98 45,98.8877296 45,100 L45,100 C45,101.104569 44.1041422,102 43.0026083,102 L37.9973917,102 C36.8942627,102 36,101.11227 36,100 L36,100 Z" id="Rectangle-26" fill="#E3EEFC" transform="translate(40.500000, 100.000000) scale(-1, 1) translate(-40.500000, -100.000000) "></path>
                <path d="M36,105.5 C36,104.119288 37.1216589,103 38.5070018,103 L42.4929982,103 C43.8775771,103 45,104.109662 45,105.5 L45,105.5 C45,106.880712 43.8783411,108 42.4929982,108 L38.5070018,108 C37.1224229,108 36,106.890338 36,105.5 L36,105.5 Z" id="Rectangle-26" fill="#E3EEFC" transform="translate(40.500000, 105.500000) scale(-1, 1) translate(-40.500000, -105.500000) "></path>
                <path d="M36,111.5 C36,110.119288 37.1216589,109 38.5070018,109 L42.4929982,109 C43.8775771,109 45,110.109662 45,111.5 L45,111.5 C45,112.880712 43.8783411,114 42.4929982,114 L38.5070018,114 C37.1224229,114 36,112.890338 36,111.5 L36,111.5 Z" id="Rectangle-26" fill="#E3EEFC" transform="translate(40.500000, 111.500000) scale(-1, 1) translate(-40.500000, -111.500000) "></path>
                <path d="M36,117 C36,115.895431 36.8958578,115 37.9973917,115 L43.0026083,115 C44.1057373,115 45,115.88773 45,117 L45,117 C45,118.104569 44.1041422,119 43.0026083,119 L37.9973917,119 C36.8942627,119 36,118.11227 36,117 L36,117 Z" id="Rectangle-26" fill="#E3EEFC" transform="translate(40.500000, 117.000000) scale(-1, 1) translate(-40.500000, -117.000000) "></path>
                <path d="M47,105.368218 C47,104.060287 48.0547262,103.095884 49.359776,103.214525 L55.640224,103.785475 C56.9434923,103.903954 58,105.061425 58,106.373047 L58,105.626953 C58,106.937551 56.9452738,108 55.6267065,108 L49.3732935,108 C48.0625597,108 47,106.939629 47,105.631782 L47,105.368218 Z" id="Rectangle-26" fill="#E3EEFC" transform="translate(52.500000, 105.623914) scale(-1, 1) translate(-52.500000, -105.623914) "></path>
                <path d="M47,111.368218 C47,110.060287 48.0547262,109 49.3732935,109 L55.6267065,109 C56.9374403,109 58,110.061425 58,111.373047 L58,110.626953 C58,111.937551 56.9452738,113.095884 55.640224,113.214525 L49.359776,113.785475 C48.0565077,113.903954 47,112.939629 47,111.631782 L47,111.368218 Z" id="Rectangle-26" fill="#E3EEFC" transform="translate(52.500000, 111.376000) scale(-1, 1) translate(-52.500000, -111.376000) "></path>
                <path d="M47,117.396095 C47,116.072768 48.0747546,114.902295 49.3868362,114.783015 L55.6131638,114.216985 C56.931377,114.097148 58,115.072625 58,116.382851 L58,116.617149 C58,117.933161 56.9252454,119 55.6131638,119 L49.3868362,119 C48.068623,119 47,117.928073 47,116.603905 L47,117.396095 Z" id="Rectangle-26" fill="#E3EEFC" transform="translate(52.500000, 116.603512) scale(-1, 1) translate(-52.500000, -116.603512) "></path>
                <ellipse id="Oval-10" fill="#E3EEFC" cx="40.5" cy="90.5" rx="3.5" ry="0.5"></ellipse>
                <use id="Rectangle-25" stroke="#1572EA" mask="url(#mask-2)" stroke-width="4" fill="#F3F8FE" xlink:href="#path-1"></use>
                <rect id="Rectangle-28" fill="#1572EA" x="31" y="64" width="5" height="2"></rect>
                <rect id="Rectangle-28" fill="#1572EA" x="45" y="64" width="5" height="2"></rect>
                <rect id="Rectangle-28" fill="#1572EA" x="38" y="72" width="5" height="2"></rect>
                <rect id="Rectangle-28" fill="#1572EA" x="45" y="61" width="7" height="2"></rect>
                <rect id="Rectangle-28" fill="#1572EA" x="29" y="61" width="7" height="2"></rect>
                <polygon id="Rectangle-28" fill="#1572EA" points="38 69 43 69 45 73 36 73"></polygon>
                <rect id="Rectangle-25" fill="#1572EA" opacity="0.231827446" x="34" y="52" width="13" height="2" rx="1"></rect>
                <rect id="Rectangle-25" fill="#1572EA" opacity="0.231827446" x="39" y="49" width="3" height="2" rx="1"></rect>
                <rect id="Rectangle-25" fill="#1572EA" opacity="0.231827446" x="39" y="46" width="3" height="2" rx="1"></rect>
                <rect id="Rectangle-25" fill="#1572EA" opacity="0.231827446" x="39" y="43" width="3" height="2" rx="1"></rect>
            </g>
        </g>
    </g>
</svg>