<?xml version="1.0" encoding="UTF-8"?>
<svg width="156px" height="92px" viewBox="0 0 156 92" version="1.1" xmlns="http://www.w3.org/2000/svg" xmlns:xlink="http://www.w3.org/1999/xlink">
    <!-- Generator: Sketch 41 (35326) - http://www.bohemiancoding.com/sketch -->
    <title>inscriptionnew</title>
    <desc>Created with Sketch.</desc>
    <defs>
        <rect id="path-1" x="0" y="0" width="82" height="60" rx="4"></rect>
        <mask id="mask-2" maskContentUnits="userSpaceOnUse" maskUnits="objectBoundingBox" x="0" y="0" width="82" height="60" fill="white">
            <use xlink:href="#path-1"></use>
        </mask>
        <path d="M0,5 L82,5 L82,60.9934444 C82,63.206204 80.2110538,65 78.0033698,65 L3.99663018,65 C1.78935228,65 0,63.2043192 0,60.9934444 L0,5 Z" id="path-3"></path>
        <mask id="mask-4" maskContentUnits="userSpaceOnUse" maskUnits="objectBoundingBox" x="0" y="0" width="82" height="60" fill="white">
            <use xlink:href="#path-3"></use>
        </mask>
        <path d="M49.5646396,15.8201643 C46.9490877,14.6504277 44.0505016,14 41,14 C29.4020203,14 20,23.4020203 20,35 C20,46.5979797 29.4020203,56 41,56 L41,56 C52.5979797,56 62,46.5979797 62,35 C62,30.7762113 60.7530161,26.8436713 58.6071109,23.5504427" id="path-5"></path>
        <mask id="mask-6" maskContentUnits="userSpaceOnUse" maskUnits="objectBoundingBox" x="0" y="0" width="42" height="42" fill="white">
            <use xlink:href="#path-5"></use>
        </mask>
    </defs>
    <g id="Page-1" stroke="none" stroke-width="1" fill="none" fill-rule="evenodd">
        <g id="Desktop" transform="translate(-344.000000, -848.000000)" stroke="#1572EA">
            <g id="illustration" transform="translate(344.000000, 848.000000)">
                <g id="Group-4" transform="translate(37.000000, 27.000000)">
                    <use id="d-day" mask="url(#mask-2)" stroke-width="4" fill="#F3F8FE" xlink:href="#path-1"></use>
                    <use id="Combined-Shape" mask="url(#mask-4)" stroke-width="4" fill="#FFFFFF" xlink:href="#path-3"></use>
                    <use id="Oval-4" mask="url(#mask-6)" stroke-width="4" stroke-linecap="round" xlink:href="#path-5"></use>
                    <path d="M35,34.3636364 L40.1101608,38.7069043 C40.9504168,39.4210613 42.241481,39.345611 42.997152,38.5348204 L64,16" id="Path-3" stroke-width="2" stroke-linecap="round"></path>
                </g>
            </g>
        </g>
    </g>
</svg>