<?xml version="1.0" encoding="UTF-8"?>
<svg width="156px" height="92px" viewBox="0 0 156 92" version="1.1" xmlns="http://www.w3.org/2000/svg" xmlns:xlink="http://www.w3.org/1999/xlink">
    <!-- Generator: Sketch 41 (35326) - http://www.bohemiancoding.com/sketch -->
    <title>inscription18</title>
    <desc>Created with Sketch.</desc>
    <defs>
        <rect id="path-1" x="0" y="0" width="82" height="60" rx="4"></rect>
        <mask id="mask-2" maskContentUnits="userSpaceOnUse" maskUnits="objectBoundingBox" x="0" y="0" width="82" height="60" fill="white">
            <use xlink:href="#path-1"></use>
        </mask>
        <path d="M0,5 L82,5 L82,60.9934444 C82,63.206204 80.2110538,65 78.0033698,65 L3.99663018,65 C1.78935228,65 0,63.2043192 0,60.9934444 L0,5 Z" id="path-3"></path>
        <mask id="mask-4" maskContentUnits="userSpaceOnUse" maskUnits="objectBoundingBox" x="0" y="0" width="82" height="60" fill="white">
            <use xlink:href="#path-3"></use>
        </mask>
        <circle id="path-5" cx="41" cy="35" r="21"></circle>
        <mask id="mask-6" maskContentUnits="userSpaceOnUse" maskUnits="objectBoundingBox" x="0" y="0" width="42" height="42" fill="white">
            <use xlink:href="#path-5"></use>
        </mask>
    </defs>
    <g id="Page-1" stroke="none" stroke-width="1" fill="none" fill-rule="evenodd">
        <g id="Desktop" transform="translate(-521.000000, -848.000000)">
            <g id="illustration" transform="translate(521.000000, 848.000000)">
                <g id="Group-5" transform="translate(37.000000, 27.000000)">
                    <use id="d-day" stroke="#1572EA" mask="url(#mask-2)" stroke-width="4" fill="#F3F8FE" xlink:href="#path-1"></use>
                    <use id="Combined-Shape" stroke="#1572EA" mask="url(#mask-4)" stroke-width="4" fill="#FFFFFF" xlink:href="#path-3"></use>
                    <use id="Oval-5" stroke="#1572EA" mask="url(#mask-6)" stroke-width="4" fill="#FFFFFF" xlink:href="#path-5"></use>
                    <path d="M33.056,45 L33.056,28.646 L30.924,28.646 L30.924,26.54 L35.37,26.54 L35.37,45 L33.056,45 Z M49.306,36.875 C48.5086627,36.2423302 47.4643398,35.926 46.173,35.926 C44.8816602,35.926 43.8286707,36.2423302 43.014,36.875 C42.1993293,37.5076698 41.792,38.4263273 41.792,39.631 C41.792,40.8356727 42.1863294,41.7846632 42.975,42.478 C43.7636706,43.1713368 44.8253267,43.518 46.16,43.518 C47.4946733,43.518 48.5519961,43.1670035 49.332,42.465 C50.1120039,41.7629965 50.502,40.814006 50.502,39.618 C50.502,38.421994 50.1033373,37.5076698 49.306,36.875 Z M49.007,28.321 C48.3223299,27.7403304 47.3776727,27.45 46.173,27.45 C44.9683273,27.45 44.0193368,27.7403304 43.326,28.321 C42.6326632,28.9016696 42.286,29.6946616 42.286,30.7 C42.286,31.7053384 42.6456631,32.5156636 43.365,33.131 C44.0843369,33.7463364 45.0159943,34.054 46.16,34.054 C47.3040057,34.054 48.2356631,33.7463364 48.955,33.131 C49.6743369,32.5156636 50.034,31.7053384 50.034,30.7 C50.034,29.6946616 49.6916701,28.9016696 49.007,28.321 Z M40.05,30.544 C40.05,29.0706593 40.5829947,27.8530048 41.649,26.891 C42.7150053,25.9289952 44.2229902,25.448 46.173,25.448 C48.1230097,25.448 49.6266614,25.9333285 50.684,26.904 C51.7413386,27.8746715 52.27,29.0966593 52.27,30.57 C52.27,31.5753384 52.0100026,32.4549962 51.49,33.209 C50.9699974,33.9630038 50.2940042,34.5219982 49.462,34.886 C50.4500049,35.215335 51.2473303,35.8089957 51.854,36.667 C52.4606697,37.5250043 52.764,38.551994 52.764,39.748 C52.764,41.4986754 52.1573394,42.8983281 50.944,43.947 C49.7306606,44.9956719 48.1360099,45.52 46.16,45.52 C44.1839901,45.52 42.5893394,44.9956719 41.376,43.947 C40.1626606,42.8983281 39.556,41.4986754 39.556,39.748 C39.556,38.551994 39.8593303,37.5250043 40.466,36.667 C41.0726697,35.8089957 41.8786616,35.215335 42.884,34.886 C40.9946572,33.9846622 40.05,32.5373433 40.05,30.544 Z" id="18" fill="#1572EA"></path>
                </g>
            </g>
        </g>
    </g>
</svg>