<?xml version="1.0" encoding="UTF-8"?>
<svg width="156px" height="132px" viewBox="0 0 156 132" version="1.1" xmlns="http://www.w3.org/2000/svg" xmlns:xlink="http://www.w3.org/1999/xlink">
    <!-- Generator: Sketch 41.1 (35376) - http://www.bohemiancoding.com/sketch -->
    <title>18-plus</title>
    <desc>Created with Sketch.</desc>
    <defs>
        <rect id="path-1" x="0" y="0" width="92" height="60" rx="4"></rect>
        <mask id="mask-2" maskContentUnits="userSpaceOnUse" maskUnits="objectBoundingBox" x="0" y="0" width="92" height="60" fill="white">
            <use xlink:href="#path-1"></use>
        </mask>
        <path d="M0,5 L92,5 L92,66.9954293 C92,69.2070926 90.2035166,71 88.0025441,71 L3.99745594,71 C1.78972199,71 0,69.2004301 0,66.9954293 L0,5 Z" id="path-3"></path>
        <mask id="mask-4" maskContentUnits="userSpaceOnUse" maskUnits="objectBoundingBox" x="0" y="0" width="92" height="66" fill="white">
            <use xlink:href="#path-3"></use>
        </mask>
        <path d="M29.5646396,1.82016432 C26.9490877,0.650427675 24.0505016,0 21,0 C9.40202025,0 0,9.40202025 0,21 C0,32.5979797 9.40202025,42 21,42 L21,42 C32.5979797,42 42,32.5979797 42,21 C42,16.7762113 40.7530161,12.8436713 38.6071109,9.55044268" id="path-5"></path>
        <mask id="mask-6" maskContentUnits="userSpaceOnUse" maskUnits="objectBoundingBox" x="0" y="0" width="42" height="42" fill="white">
            <use xlink:href="#path-5"></use>
        </mask>
    </defs>
    <g id="Page-1" stroke="none" stroke-width="1" fill="none" fill-rule="evenodd">
        <g id="Desktop" transform="translate(-1124.000000, -1229.000000)">
            <g id="18-plus" transform="translate(1124.000000, 1229.000000)">
                <path d="M56,21.9904648 C56,16.4728835 59.1607351,15.1607351 63.0643728,19.0643728 L128.935627,84.9356272 C132.837173,88.8371726 131.527431,92 126.009535,92 L65.9904648,92 C60.4728835,92 56,87.5274312 56,82.0095352 L56,21.9904648 Z" id="Rectangle-17" fill="#F3F8FE"></path>
                <g id="Group-5" transform="translate(4.000000, 60.000000)" stroke="#1572EA" stroke-width="4">
                    <use id="d-day" mask="url(#mask-2)" fill="#F3F8FE" xlink:href="#path-1"></use>
                    <use id="Combined-Shape" mask="url(#mask-4)" fill="#FFFFFF" xlink:href="#path-3"></use>
                </g>
                <g id="Group-4" transform="translate(29.000000, 77.000000)" stroke="#1572EA" stroke-linecap="round">
                    <use id="Oval-4" mask="url(#mask-6)" stroke-width="4" xlink:href="#path-5"></use>
                    <path d="M15,20.3636364 L20.1101608,24.7069043 C20.9504168,25.4210613 22.241481,25.345611 22.997152,24.5348204 L44,2" id="Path-3" stroke-width="2"></path>
                </g>
            </g>
        </g>
    </g>
</svg>