<?xml version="1.0" encoding="UTF-8"?>
<svg width="156px" height="132px" viewBox="0 0 156 132" version="1.1" xmlns="http://www.w3.org/2000/svg" xmlns:xlink="http://www.w3.org/1999/xlink">
    <!-- Generator: Sketch 41.1 (35376) - http://www.bohemiancoding.com/sketch -->
    <title>18-plus</title>
    <desc>Created with Sketch.</desc>
    <defs>
        <rect id="path-1" x="72" y="87" width="18" height="41" rx="9"></rect>
        <mask id="mask-2" maskContentUnits="userSpaceOnUse" maskUnits="objectBoundingBox" x="0" y="0" width="18" height="41" fill="white">
            <use xlink:href="#path-1"></use>
        </mask>
        <rect id="path-3" x="57.6767767" y="80.652658" width="12.6499996" height="19.6946839" rx="6.32499981"></rect>
        <mask id="mask-4" maskContentUnits="userSpaceOnUse" maskUnits="objectBoundingBox" x="0" y="0" width="12.6499996" height="19.6946839" fill="white">
            <use xlink:href="#path-3"></use>
        </mask>
        <rect id="path-5" x="59.2564948" y="91.8806484" width="20.0402056" height="7.67868989" rx="3.83934495"></rect>
        <mask id="mask-6" maskContentUnits="userSpaceOnUse" maskUnits="objectBoundingBox" x="0" y="0" width="20.0402056" height="7.67868989" fill="white">
            <use xlink:href="#path-5"></use>
        </mask>
        <circle id="path-7" cx="39" cy="66" r="35"></circle>
        <mask id="mask-8" maskContentUnits="userSpaceOnUse" maskUnits="objectBoundingBox" x="0" y="0" width="70" height="70" fill="white">
            <use xlink:href="#path-7"></use>
        </mask>
        <circle id="path-9" cx="39" cy="66" r="27"></circle>
        <mask id="mask-10" maskContentUnits="userSpaceOnUse" maskUnits="objectBoundingBox" x="0" y="0" width="54" height="54" fill="white">
            <use xlink:href="#path-9"></use>
        </mask>
    </defs>
    <g id="Page-1" stroke="none" stroke-width="1" fill="none" fill-rule="evenodd">
        <g id="Desktop" transform="translate(-1124.000000, -1229.000000)">
            <g id="18-plus" transform="translate(1124.000000, 1229.000000)">
                <path d="M56,21.9904648 C56,16.4728835 59.1607351,15.1607351 63.0643728,19.0643728 L128.935627,84.9356272 C132.837173,88.8371726 131.527431,92 126.009535,92 L65.9904648,92 C60.4728835,92 56,87.5274312 56,82.0095352 L56,21.9904648 Z" id="Rectangle-17" fill="#F3F8FE"></path>
                <use id="Rectangle-30" stroke="#1572EA" mask="url(#mask-2)" stroke-width="4" fill="#FFFFFF" transform="translate(81.000000, 107.500000) rotate(-45.000000) translate(-81.000000, -107.500000) " xlink:href="#path-1"></use>
                <use id="Rectangle-30" stroke="#1572EA" mask="url(#mask-4)" stroke-width="4" fill="#FFFFFF" transform="translate(64.001777, 90.500000) rotate(-45.000000) translate(-64.001777, -90.500000) " xlink:href="#path-3"></use>
                <use id="Rectangle-30" stroke="#1572EA" mask="url(#mask-6)" stroke-width="4" fill="#FFFFFF" transform="translate(69.276598, 95.719993) rotate(-45.000000) translate(-69.276598, -95.719993) " xlink:href="#path-5"></use>
                <use id="Oval-6" stroke="#1572EA" mask="url(#mask-8)" stroke-width="4" fill="#FFFFFF" xlink:href="#path-7"></use>
                <use id="Oval-6" stroke="#1572EA" mask="url(#mask-10)" stroke-width="4" fill="#F3F8FE" xlink:href="#path-9"></use>
                <path d="M34.0954067,78.5234756 C34.0954067,77.4125054 34.4750997,76.4773357 35.234497,75.7179383 C35.9938943,74.958541 36.9290641,74.578848 38.0400342,74.578848 C39.1510044,74.578848 40.0861741,74.958541 40.8455715,75.7179383 C41.6049688,76.4773357 41.9846618,77.4125054 41.9846618,78.5234756 C41.9846618,79.6344457 41.6049688,80.5696155 40.8455715,81.3290128 C40.0861741,82.0884101 39.1510044,82.4681031 38.0400342,82.4681031 C36.9290641,82.4681031 35.9938943,82.0884101 35.234497,81.3290128 C34.4750997,80.5696155 34.0954067,79.6344457 34.0954067,78.5234756 Z M40.4658747,50.3626319 C43.5315899,50.3626319 46.0066255,51.1782686 47.891056,52.8095666 C49.7754864,54.4408646 50.7176875,56.6979283 50.7176875,59.5808256 C50.7176875,62.4637229 49.9090821,64.5450029 48.291847,65.8247281 C46.6746119,67.1044532 44.3331719,67.7724316 41.2674568,67.8286832 L41.2674568,71.0502871 L34.4751035,71.0502871 L34.4751035,63.1457564 L37.301735,63.1457564 C39.4955495,63.1457564 41.1127603,62.8926278 42.1534159,62.3863629 C43.1940715,61.880098 43.7143915,60.9097715 43.7143915,59.4753543 C43.7143915,58.5190762 43.4401688,57.7456275 42.8917152,57.1549852 C42.3432616,56.5643428 41.5838756,56.269026 40.6135346,56.269026 C39.6431935,56.269026 38.8838076,56.5573114 38.335354,57.1338909 C37.7869003,57.7104704 37.5126776,58.4909504 37.5126776,59.4753543 L30.7203243,59.4753543 C30.6640727,56.8596524 31.5078348,54.6869648 33.2516361,52.9572264 C34.9954374,51.2274881 37.4001595,50.3626319 40.4658747,50.3626319 Z" id="?" fill="#1572EA"></path>
            </g>
        </g>
    </g>
</svg>