<?xml version="1.0" encoding="UTF-8"?>
<svg width="132px" height="132px" viewBox="0 0 132 132" version="1.1" xmlns="http://www.w3.org/2000/svg" xmlns:xlink="http://www.w3.org/1999/xlink">
    <!-- Generator: Sketch 41 (35326) - http://www.bohemiancoding.com/sketch -->
    <title>twitter</title>
    <desc>Created with Sketch.</desc>
    <defs></defs>
    <g id="Page-1" stroke="none" stroke-width="1" fill="none" fill-rule="evenodd">
        <g id="Desktop" transform="translate(-672.000000, -836.000000)" fill="#1572EA">
            <g id="Group-3" transform="translate(672.000000, 836.000000)">
                <path d="M117.195809,29.7510321 C117.195809,28.5966866 117.172524,27.4475386 117.119745,26.3046275 C122.301389,22.5422201 126.806222,17.8473969 130.36,12.5018575 C125.604209,14.6234415 120.486727,16.0537696 115.118287,16.6982488 C120.597977,13.398931 124.804764,8.1765703 126.788629,1.95214836 C121.659764,5.00562856 115.981895,7.22648318 109.936643,8.42240794 C105.093922,3.24110681 98.196447,0 90.564207,0 C75.9061667,0 64.0200525,11.9389776 64.0200525,26.6564923 C64.0200525,28.7489709 64.2534179,30.7827186 64.7082477,32.734867 C42.6513328,31.6210613 23.0921008,21.0126214 10.003456,4.88244987 C7.72206304,8.82104952 6.40931776,13.398931 6.40931776,18.2808611 C6.40931776,27.5301775 11.094737,35.6947937 18.2193683,40.4712164 C13.866663,40.3366034 9.77629984,39.1349615 6.19923712,37.1360364 C6.19302784,37.247261 6.19302784,37.3590054 6.19302784,37.4759472 C6.19302784,50.3884003 15.3429194,61.1667956 27.4856838,63.611139 C25.2570698,64.2202758 22.9109968,64.5487523 20.4893776,64.5487523 C18.7797558,64.5487523 17.1167037,64.3787969 15.5002211,64.0679916 C18.8791043,74.65928 28.6763133,82.3665239 40.2938762,82.5837758 C31.2086646,89.733857 19.7659965,93.9946963 7.33139584,93.9946963 C5.18971168,93.9946963 3.0775216,93.8720373 1,93.6256799 C12.7464054,101.186357 26.6924483,105.6 41.6826851,105.6 C90.5000445,105.6 117.195809,64.9764994 117.195809,29.7510321 Z" id="Combined-Shape"></path>
            </g>
        </g>
    </g>
</svg>