<?xml version="1.0" encoding="UTF-8"?>
<svg width="156px" height="132px" viewBox="0 0 156 132" version="1.1" xmlns="http://www.w3.org/2000/svg" xmlns:xlink="http://www.w3.org/1999/xlink">
    <!-- Generator: Sketch 41.1 (35376) - http://www.bohemiancoding.com/sketch -->
    <title>18-plus</title>
    <desc>Created with Sketch.</desc>
    <defs>
        <rect id="path-1" x="0" y="0" width="92" height="60" rx="4"></rect>
        <mask id="mask-2" maskContentUnits="userSpaceOnUse" maskUnits="objectBoundingBox" x="0" y="0" width="92" height="60" fill="white">
            <use xlink:href="#path-1"></use>
        </mask>
        <path d="M0,5 L92,5 L92,66.9954293 C92,69.2070926 90.2035166,71 88.0025441,71 L3.99745594,71 C1.78972199,71 0,69.2004301 0,66.9954293 L0,5 Z" id="path-3"></path>
        <mask id="mask-4" maskContentUnits="userSpaceOnUse" maskUnits="objectBoundingBox" x="0" y="0" width="92" height="66" fill="white">
            <use xlink:href="#path-3"></use>
        </mask>
        <circle id="path-5" cx="46" cy="38" r="21"></circle>
        <mask id="mask-6" maskContentUnits="userSpaceOnUse" maskUnits="objectBoundingBox" x="0" y="0" width="42" height="42" fill="white">
            <use xlink:href="#path-5"></use>
        </mask>
    </defs>
    <g id="Page-1" stroke="none" stroke-width="1" fill="none" fill-rule="evenodd">
        <g id="Desktop" transform="translate(-451.000000, -1895.000000)">
            <g id="18-plus" transform="translate(451.000000, 1895.000000)">
                <path d="M56,21.9904648 C56,16.4728835 59.1607351,15.1607351 63.0643728,19.0643728 L128.935627,84.9356272 C132.837173,88.8371726 131.527431,92 126.009535,92 L65.9904648,92 C60.4728835,92 56,87.5274312 56,82.0095352 L56,21.9904648 Z" id="Rectangle-17" fill="#F3F8FE"></path>
                <g id="Group-5" transform="translate(4.000000, 60.000000)">
                    <use id="d-day" stroke="#1572EA" mask="url(#mask-2)" stroke-width="4" fill="#F3F8FE" xlink:href="#path-1"></use>
                    <use id="Combined-Shape" stroke="#1572EA" mask="url(#mask-4)" stroke-width="4" fill="#FFFFFF" xlink:href="#path-3"></use>
                    <use id="Oval-5" stroke="#1572EA" mask="url(#mask-6)" stroke-width="4" fill="#FFFFFF" xlink:href="#path-5"></use>
                    <path d="M40.056,48 L40.056,31.646 L37.924,31.646 L37.924,29.54 L42.37,29.54 L42.37,48 L40.056,48 Z M56.306,39.875 C55.5086627,39.2423302 54.4643398,38.926 53.173,38.926 C51.8816602,38.926 50.8286707,39.2423302 50.014,39.875 C49.1993293,40.5076698 48.792,41.4263273 48.792,42.631 C48.792,43.8356727 49.1863294,44.7846632 49.975,45.478 C50.7636706,46.1713368 51.8253267,46.518 53.16,46.518 C54.4946733,46.518 55.5519961,46.1670035 56.332,45.465 C57.1120039,44.7629965 57.502,43.814006 57.502,42.618 C57.502,41.421994 57.1033373,40.5076698 56.306,39.875 Z M56.007,31.321 C55.3223299,30.7403304 54.3776727,30.45 53.173,30.45 C51.9683273,30.45 51.0193368,30.7403304 50.326,31.321 C49.6326632,31.9016696 49.286,32.6946616 49.286,33.7 C49.286,34.7053384 49.6456631,35.5156636 50.365,36.131 C51.0843369,36.7463364 52.0159943,37.054 53.16,37.054 C54.3040057,37.054 55.2356631,36.7463364 55.955,36.131 C56.6743369,35.5156636 57.034,34.7053384 57.034,33.7 C57.034,32.6946616 56.6916701,31.9016696 56.007,31.321 Z M47.05,33.544 C47.05,32.0706593 47.5829947,30.8530048 48.649,29.891 C49.7150053,28.9289952 51.2229903,28.448 53.173,28.448 C55.1230098,28.448 56.6266614,28.9333285 57.684,29.904 C58.7413386,30.8746715 59.27,32.0966593 59.27,33.57 C59.27,34.5753384 59.0100026,35.4549962 58.49,36.209 C57.9699974,36.9630038 57.2940042,37.5219982 56.462,37.886 C57.4500049,38.215335 58.2473303,38.8089957 58.854,39.667 C59.4606697,40.5250043 59.764,41.551994 59.764,42.748 C59.764,44.4986754 59.1573394,45.8983281 57.944,46.947 C56.7306606,47.9956719 55.1360099,48.52 53.16,48.52 C51.1839901,48.52 49.5893394,47.9956719 48.376,46.947 C47.1626606,45.8983281 46.556,44.4986754 46.556,42.748 C46.556,41.551994 46.8593303,40.5250043 47.466,39.667 C48.0726697,38.8089957 48.8786616,38.215335 49.884,37.886 C47.9946572,36.9846622 47.05,35.5373433 47.05,33.544 Z" id="18" fill="#1572EA"></path>
                    <rect id="Rectangle-30" fill="#1572EA" x="30" y="38" width="7" height="2"></rect>
                </g>
            </g>
        </g>
    </g>
</svg>