<?xml version="1.0" encoding="UTF-8"?>
<svg width="531px" height="403px" viewBox="0 0 531 403" version="1.1" xmlns="http://www.w3.org/2000/svg" xmlns:xlink="http://www.w3.org/1999/xlink">
    <!-- Generator: Sketch 41.1 (35376) - http://www.bohemiancoding.com/sketch -->
    <title>dignity</title>
    <desc>Created with Sketch.</desc>
    <defs>
        <rect id="path-1" x="6" y="5" width="260" height="324" rx="4"></rect>
        <mask id="mask-2" maskContentUnits="userSpaceOnUse" maskUnits="objectBoundingBox" x="0" y="0" width="260" height="324" fill="white">
            <use xlink:href="#path-1"></use>
        </mask>
        <rect id="path-3" x="265" y="5" width="260" height="324" rx="4"></rect>
        <mask id="mask-4" maskContentUnits="userSpaceOnUse" maskUnits="objectBoundingBox" x="0" y="0" width="260" height="324" fill="white">
            <use xlink:href="#path-3"></use>
        </mask>
    </defs>
    <g id="Page-1" stroke="none" stroke-width="1" fill="none" fill-rule="evenodd">
        <g id="Desktop" transform="translate(-988.000000, -1523.000000)">
            <g id="carte" transform="translate(983.000000, 1543.000000)">
                <use id="d-day" stroke="#1572EA" mask="url(#mask-2)" stroke-width="4" fill="#FFFFFF" xlink:href="#path-1"></use>
                <use id="d-day" stroke="#1572EA" mask="url(#mask-4)" stroke-width="4" fill="#FFFFFF" xlink:href="#path-3"></use>
                <path d="M121.855148,129.426009 L121.855148,200.769299 L102.121897,200.769299 L102.121897,129.426009 L77.0758483,129.426009 L77.0758483,112.349157 L146.901196,112.349157 L146.901196,129.426009 L121.855148,129.426009 Z M221.406867,135.877264 C216.347033,130.311447 210.127749,127.528581 202.748825,127.528581 C195.369902,127.528581 189.150617,130.311447 184.090784,135.877264 C179.030951,141.44308 176.501072,148.168341 176.501072,156.053248 C176.501072,163.938154 179.030951,170.642333 184.090784,176.165984 C189.150617,181.689635 195.369902,184.451419 202.748825,184.451419 C210.127749,184.451419 216.347033,181.689635 221.406867,176.165984 C226.4667,170.642333 228.996578,163.938154 228.996578,156.053248 C228.996578,148.168341 226.4667,141.44308 221.406867,135.877264 Z M202.685578,201.654766 C189.614342,201.654766 178.60937,197.290725 169.670332,188.562513 C160.731293,179.834301 156.261841,168.976905 156.261841,155.99 C156.261841,143.003095 160.731293,132.145699 169.670332,123.417487 C178.60937,114.689275 189.614342,110.325234 202.685578,110.325234 C215.756813,110.325234 226.761785,114.689275 235.700824,123.417487 C244.639862,132.145699 249.109314,143.003095 249.109314,155.99 C249.109314,168.976905 244.639862,179.834301 235.700824,188.562513 C226.761785,197.290725 215.756813,201.654766 202.685578,201.654766 Z M333.355115,123.923468 C341.78817,131.639713 346.004634,142.370615 346.004634,156.116495 C346.004634,169.862375 341.893582,180.740853 333.671353,188.752256 C325.449124,196.763658 312.905143,200.769299 296.039032,200.769299 L265.80668,200.769299 L265.80668,112.349157 L297.050994,112.349157 C312.820807,112.349157 324.92206,116.207222 333.355115,123.923468 Z M318.871415,176.482222 C323.720422,171.928372 326.144889,165.308523 326.144889,156.622476 C326.144889,147.936429 323.720422,141.253333 318.871415,136.572987 C314.022408,131.892642 306.580349,129.552504 296.545013,129.552504 L285.539931,129.552504 L285.539931,183.312962 L298.062955,183.312962 C307.086324,183.312962 314.022408,181.036072 318.871415,176.482222 Z M423.166704,135.877264 C418.106871,130.311447 411.887586,127.528581 404.508662,127.528581 C397.129739,127.528581 390.910454,130.311447 385.850621,135.877264 C380.790788,141.44308 378.260909,148.168341 378.260909,156.053248 C378.260909,163.938154 380.790788,170.642333 385.850621,176.165984 C390.910454,181.689635 397.129739,184.451419 404.508662,184.451419 C411.887586,184.451419 418.106871,181.689635 423.166704,176.165984 C428.226537,170.642333 430.756416,163.938154 430.756416,156.053248 C430.756416,148.168341 428.226537,141.44308 423.166704,135.877264 Z M404.445415,201.654766 C391.374179,201.654766 380.369207,197.290725 371.430169,188.562513 C362.49113,179.834301 358.021678,168.976905 358.021678,155.99 C358.021678,143.003095 362.49113,132.145699 371.430169,123.417487 C380.369207,114.689275 391.374179,110.325234 404.445415,110.325234 C417.51665,110.325234 428.521622,114.689275 437.460661,123.417487 C446.3997,132.145699 450.869152,143.003095 450.869152,155.99 C450.869152,168.976905 446.3997,179.834301 437.460661,188.562513 C428.521622,197.290725 417.51665,201.654766 404.445415,201.654766 Z" id="TODO" fill="#1572EA" opacity="0.0579710145" transform="translate(263.972500, 155.990000) rotate(-15.000000) translate(-263.972500, -155.990000) "></path>
            </g>
        </g>
    </g>
</svg>