<?xml version="1.0" encoding="UTF-8"?>
<svg width="156px" height="132px" viewBox="0 0 156 132" version="1.1" xmlns="http://www.w3.org/2000/svg" xmlns:xlink="http://www.w3.org/1999/xlink">
    <!-- Generator: Sketch 41 (35326) - http://www.bohemiancoding.com/sketch -->
    <title>pourquoi</title>
    <desc>Created with Sketch.</desc>
    <defs>
        <circle id="path-1" cx="38" cy="60" r="38"></circle>
        <mask id="mask-2" maskContentUnits="userSpaceOnUse" maskUnits="objectBoundingBox" x="0" y="0" width="76" height="76" fill="white">
            <use xlink:href="#path-1"></use>
        </mask>
        <path d="M11,0.94512403 C4.48903589,4.10354039 -9.23705556e-14,10.7775349 -9.23705556e-14,18.5 C-9.23705556e-14,26.2224651 4.48903589,32.8964596 11,36.054876 C17.5109641,32.8964596 22,26.2224651 22,18.5 C22,10.7775349 17.5109641,4.10354039 11,0.94512403 Z" id="path-3"></path>
        <mask id="mask-4" maskContentUnits="userSpaceOnUse" maskUnits="objectBoundingBox" x="0" y="0" width="22" height="35.1097519" fill="white">
            <use xlink:href="#path-3"></use>
        </mask>
    </defs>
    <g id="Page-1" stroke="none" stroke-width="1" fill="none" fill-rule="evenodd">
        <g id="Desktop" transform="translate(-456.000000, -633.000000)">
            <g id="cards" transform="translate(206.000000, 633.000000)">
                <g id="card">
                    <g id="illustration" transform="translate(250.000000, 0.000000)">
                        <rect id="Rectangle-4" fill="#F3F8FE" transform="translate(95.500000, 42.000000) rotate(-270.000000) translate(-95.500000, -42.000000) " x="79" y="7" width="33" height="70" rx="16.5"></rect>
                        <rect id="Rectangle-4" fill="#F3F8FE" transform="translate(75.500000, 92.000000) rotate(-270.000000) translate(-75.500000, -92.000000) " x="59" y="57" width="33" height="70" rx="16.5"></rect>
                        <g id="heart" transform="translate(0.000000, 33.000000)">
                            <use id="Oval" stroke="#1572EA" mask="url(#mask-2)" stroke-width="4" fill="#FFFFFF" xlink:href="#path-1"></use>
                            <g id="Group" transform="translate(75.000000, 21.500000) rotate(-315.000000) translate(-75.000000, -21.500000) translate(64.000000, 3.000000)">
                                <use id="Combined-Shape" stroke="#1572EA" mask="url(#mask-4)" stroke-width="4" fill="#FFFFFF" xlink:href="#path-3"></use>
                                <rect id="Rectangle-3" fill="#1572EA" x="10" y="12" width="2" height="23" rx="1"></rect>
                                <path d="M5.50585937,26.4975586 L10.7425397,21.2608782" id="Path-5" stroke="#1572EA" stroke-width="2" stroke-linecap="round" transform="translate(8.124200, 23.879218) scale(-1, 1) translate(-8.124200, -23.879218) "></path>
                                <path d="M11.2129662,21.2046654 L16.4496465,15.967985" id="Path-5" stroke="#1572EA" stroke-width="2" stroke-linecap="round"></path>
                            </g>
                            <path d="M63.5419922,33.1484375 C63.5419922,33.1484375 51.7294922,34.7802734 51.7294922,41.1982422 C51.7294922,47.6162109 45.7128906,42.8730469 41.2431641,44.2802734 C36.7734375,45.6875 32.9072266,55.0332031 40.3398438,56.4140625 C47.7724609,57.7949219 53.2207031,57.7109375 56.6894531,55.8076172 C60.1582031,53.9042969 66.5126953,62.7695313 59.6660156,65 C52.8193359,67.2304688 40.9785156,59.7558594 36.5810547,63.0371094 C32.1835937,66.3183594 28.7685547,74.6044922 35.0058594,76.9550781 C41.2431641,79.3056641 43.9023437,77.5078125 42.1210938,86.8955078 C40.3398438,96.2832031 52.296875,96.0146484 55.2148438,91.4550781 C58.1328125,86.8955078 55.9267578,82.75 59.734375,82.75 C63.5419922,82.75 66.1445313,83.6337891 66.1445313,83.6337891" id="Path-3" stroke="#1572EA" stroke-width="2"></path>
                            <path d="M25.1845703,25.6894531 C25.1845703,25.6894531 36.4746094,26.2714844 34.1835938,30.6367187 C31.8925781,35.0019531 36.8662109,37.2402344 31.0253906,40.9638672 C25.1845703,44.6875 18.7744141,41.1025391 13.5390625,46.8261719 C8.30371094,52.5498047 2.875,55.8925781 6.9609375,55.8925781 C11.046875,55.8925781 15.0771484,57.1503906 11.5371094,65.9462891 C7.99707031,74.7421875 9.88964844,74.2255859 8.53613281,76.1347656 C7.18261719,78.0439453 6.9609375,79.0703125 6.9609375,79.0703125" id="Path-4" stroke="#1572EA" stroke-width="2"></path>
                        </g>
                    </g>
                </g>
            </g>
        </g>
    </g>
</svg>