<?xml version="1.0" encoding="UTF-8"?>
<svg width="156px" height="92px" viewBox="0 0 156 92" version="1.1" xmlns="http://www.w3.org/2000/svg" xmlns:xlink="http://www.w3.org/1999/xlink">
    <!-- Generator: Sketch 41 (35326) - http://www.bohemiancoding.com/sketch -->
    <title>demenagement</title>
    <desc>Created with Sketch.</desc>
    <defs>
        <path d="M91,30 L91,15.9948438 C91,13.7818508 89.2276889,11.7583212 87.0414323,11.4601953 L72.9585677,9.53980468 C70.781717,9.2429614 69,10.7935041 69,13.0059034 L69,45.9940966 C69,47.1038779 69.4494901,48.1060557 70.1760821,48.8304368 C70.8992749,49.5518835 71.9013023,50 73.0081112,50 L111,50 L111,33.99923 C111,31.7924676 109.205508,30 106.991889,30 L91,30 Z" id="path-1"></path>
        <mask id="mask-2" maskContentUnits="userSpaceOnUse" maskUnits="objectBoundingBox" x="0" y="0" width="42" height="40.4966084" fill="white">
            <use xlink:href="#path-1"></use>
        </mask>
        <rect id="path-3" x="37" y="45" width="73" height="5"></rect>
        <mask id="mask-4" maskContentUnits="userSpaceOnUse" maskUnits="objectBoundingBox" x="0" y="0" width="73" height="5" fill="white">
            <use xlink:href="#path-3"></use>
        </mask>
        <polygon id="path-5" points="77 16 91 18 91 32 77 32"></polygon>
        <mask id="mask-6" maskContentUnits="userSpaceOnUse" maskUnits="objectBoundingBox" x="0" y="0" width="14" height="16" fill="white">
            <use xlink:href="#path-5"></use>
        </mask>
        <rect id="path-7" x="1" y="0" width="72" height="50"></rect>
        <mask id="mask-8" maskContentUnits="userSpaceOnUse" maskUnits="objectBoundingBox" x="0" y="0" width="72" height="50" fill="white">
            <use xlink:href="#path-7"></use>
        </mask>
        <circle id="path-9" cx="36" cy="11" r="11"></circle>
        <mask id="mask-10" maskContentUnits="userSpaceOnUse" maskUnits="objectBoundingBox" x="0" y="0" width="22" height="22" fill="white">
            <use xlink:href="#path-9"></use>
        </mask>
        <rect id="path-11" x="0" y="44" width="73" height="6"></rect>
        <mask id="mask-12" maskContentUnits="userSpaceOnUse" maskUnits="objectBoundingBox" x="0" y="0" width="73" height="6" fill="white">
            <use xlink:href="#path-11"></use>
        </mask>
        <circle id="path-13" cx="91" cy="49" r="11"></circle>
        <mask id="mask-14" maskContentUnits="userSpaceOnUse" maskUnits="objectBoundingBox" x="0" y="0" width="22" height="22" fill="white">
            <use xlink:href="#path-13"></use>
        </mask>
        <circle id="path-15" cx="91" cy="49" r="4"></circle>
        <mask id="mask-16" maskContentUnits="userSpaceOnUse" maskUnits="objectBoundingBox" x="0" y="0" width="8" height="8" fill="white">
            <use xlink:href="#path-15"></use>
        </mask>
        <circle id="path-17" cx="21" cy="49" r="11"></circle>
        <mask id="mask-18" maskContentUnits="userSpaceOnUse" maskUnits="objectBoundingBox" x="0" y="0" width="22" height="22" fill="white">
            <use xlink:href="#path-17"></use>
        </mask>
        <circle id="path-19" cx="21" cy="49" r="4"></circle>
        <mask id="mask-20" maskContentUnits="userSpaceOnUse" maskUnits="objectBoundingBox" x="0" y="0" width="8" height="8" fill="white">
            <use xlink:href="#path-19"></use>
        </mask>
    </defs>
    <g id="Page-1" stroke="none" stroke-width="1" fill="none" fill-rule="evenodd">
        <g id="Desktop" transform="translate(-145.000000, -848.000000)">
            <g id="illustration" transform="translate(145.000000, 848.000000)">
                <g id="Group-3" transform="translate(22.000000, 32.000000)">
                    <use id="Combined-Shape" stroke="#1572EA" mask="url(#mask-2)" stroke-width="4" fill="#F3F8FE" xlink:href="#path-1"></use>
                    <rect id="Rectangle-4" fill="#1572EA" x="108" y="42" width="4" height="8" rx="2"></rect>
                    <rect id="Rectangle-5" fill="#1572EA" x="79" y="33" width="2" height="4"></rect>
                    <rect id="Rectangle-5" fill="#1572EA" x="110" y="37" width="2" height="4"></rect>
                    <rect id="Rectangle-5" fill="#1572EA" x="90" y="18" width="4" height="2"></rect>
                    <use id="d-day" stroke="#1572EA" mask="url(#mask-4)" stroke-width="4" fill="#F3F8FE" xlink:href="#path-3"></use>
                    <use id="Rectangle-2" stroke="#1572EA" mask="url(#mask-6)" stroke-width="4" fill="#FFFFFF" xlink:href="#path-5"></use>
                    <use id="d-day" stroke="#1572EA" mask="url(#mask-8)" stroke-width="4" fill="#FFFFFF" xlink:href="#path-7"></use>
                    <g id="Group" opacity="0.300000012" transform="translate(12.000000, 13.000000)">
                        <use id="Oval-2" stroke="#1572EA" mask="url(#mask-10)" stroke-width="4" fill="#FFFFFF" xlink:href="#path-9"></use>
                        <rect id="Rectangle-6" fill="#1572EA" x="0" y="0" width="36" height="2"></rect>
                        <rect id="Rectangle-6" fill="#1572EA" x="10" y="10" width="16" height="2"></rect>
                    </g>
                    <use id="d-day" stroke="#1572EA" mask="url(#mask-12)" stroke-width="4" fill="#F3F8FE" xlink:href="#path-11"></use>
                    <use id="Oval-2" stroke="#1572EA" mask="url(#mask-14)" stroke-width="4" fill="#F3F8FE" xlink:href="#path-13"></use>
                    <use id="Oval-2" stroke="#1572EA" mask="url(#mask-16)" stroke-width="4" fill="#1572EA" xlink:href="#path-15"></use>
                    <use id="Oval-2" stroke="#1572EA" mask="url(#mask-18)" stroke-width="4" fill="#F3F8FE" xlink:href="#path-17"></use>
                    <use id="Oval-2" stroke="#1572EA" mask="url(#mask-20)" stroke-width="4" fill="#1572EA" xlink:href="#path-19"></use>
                </g>
            </g>
        </g>
    </g>
</svg>