<?xml version="1.0" encoding="UTF-8"?>
<svg width="188px" height="44px" viewBox="0 0 188 44" version="1.1" xmlns="http://www.w3.org/2000/svg" xmlns:xlink="http://www.w3.org/1999/xlink">
    <!-- Generator: Sketch 40.3 (33839) - http://www.bohemiancoding.com/sketch -->
    <title>logo</title>
    <desc>Created with Sketch.</desc>
    <defs>
        <path d="M0.483128492,14.2685714 C0.483128492,12.0978939 1.4094656,10.2792454 3.2621676,8.81257143 C5.1148696,7.34589743 7.62186129,6.61257143 10.7832179,6.61257143 C13.9445745,6.61257143 16.4956774,7.33123091 18.4366034,8.76857143 C20.3775293,10.2059119 21.4067927,12.1712256 21.5244246,14.6645714 L13.8048715,14.6645714 C13.7166476,13.8139005 13.4225723,13.234573 12.9226369,12.9265714 C12.4227014,12.6185699 11.6728095,12.4645714 10.6729385,12.4645714 C8.70260467,12.4645714 7.71745251,13.0658987 7.71745251,14.2685714 C7.71745251,15.3539102 8.92316113,16.1019027 11.3346145,16.5125714 C13.7754759,16.9232401 15.9957442,17.5539005 17.995486,18.4045714 C19.0247649,18.8152401 19.8849351,19.4972333 20.5760223,20.4505714 C21.2671096,21.4039095 21.612648,22.5698979 21.612648,23.9485714 C21.612648,26.2365829 20.6274959,28.1065642 18.657162,29.5585714 C16.6868281,31.0105787 14.2018921,31.7365714 11.2022793,31.7365714 C8.20266657,31.7365714 5.70302676,31.0545782 3.70328492,29.6905714 C1.70354307,28.3265646 0.615464569,26.3099181 0.43901676,23.6405714 L8.15856983,23.6405714 C8.36442561,25.1365789 9.42309659,25.8845714 11.3346145,25.8845714 C12.2168536,25.8845714 12.9446899,25.6792401 13.5181453,25.2685714 C14.0916006,24.8579027 14.378324,24.329908 14.378324,23.6845714 C14.378324,23.0392349 13.9004517,22.5259067 12.9446927,22.1445714 C11.9889338,21.7632362 10.8346883,21.4405727 9.48192179,21.1765714 C8.12915525,20.9125701 6.76905712,20.5825734 5.40158659,20.1865714 C4.03411607,19.7905694 2.87251875,19.101243 1.91675978,18.1185714 C0.961000808,17.1358998 0.483128492,15.8525793 0.483128492,14.2685714 L0.483128492,14.2685714 Z M37.0958659,25.0485714 L39.7866816,25.0485714 L39.7866816,31.4285714 L35.9489609,31.4285714 C33.1846119,31.4285714 31.0452143,30.8199108 29.5307039,29.6025714 C28.0161935,28.385232 27.2589497,26.2952529 27.2589497,23.3325714 L27.2589497,13.1245714 L24.9651397,13.1245714 L24.9651397,6.87657143 L27.2589497,6.87657143 L27.2589497,0.892571429 L34.8020559,0.892571429 L34.8020559,6.87657143 L39.7425698,6.87657143 L39.7425698,13.1245714 L34.8020559,13.1245714 L34.8020559,23.3325714 C34.8020559,24.4765771 35.5666516,25.0485714 37.0958659,25.0485714 L37.0958659,25.0485714 Z M63.2541229,19.1965714 C63.2541229,17.2605617 62.7100837,15.7645767 61.6219888,14.7085714 C60.533894,13.6525661 59.2840741,13.1245714 57.8724916,13.1245714 C56.4609091,13.1245714 55.2110892,13.6452329 54.1229944,14.6865714 C53.0348996,15.72791 52.4908603,17.2165617 52.4908603,19.1525714 C52.4908603,21.0885811 53.0348996,22.5845661 54.1229944,23.6405714 C55.2110892,24.6965767 56.4609091,25.2245714 57.8724916,25.2245714 C59.2840741,25.2245714 60.533894,24.70391 61.6219888,23.6625714 C62.7100837,22.6212329 63.2541229,21.1325811 63.2541229,19.1965714 L63.2541229,19.1965714 Z M52.4908603,10.0885714 C54.1671145,7.77122651 56.5711799,6.61257143 59.7031285,6.61257143 C62.8350771,6.61257143 65.4891064,7.79322629 67.6652961,10.1545714 C69.8414857,12.5159166 70.9295642,15.5298864 70.9295642,19.1965714 C70.9295642,22.8632564 69.8414857,25.869893 67.6652961,28.2165714 C65.4891064,30.5632498 62.8571328,31.7365714 59.7692961,31.7365714 C56.6814594,31.7365714 54.2553384,30.4459177 52.4908603,27.8645714 L52.4908603,43.1325714 L44.9477542,43.1325714 L44.9477542,6.87657143 L52.4908603,6.87657143 L52.4908603,10.0885714 Z" id="path-1"></path>
    </defs>
    <g id="Page-1" stroke="none" stroke-width="1" fill="none" fill-rule="evenodd">
        <g id="Desktop" transform="translate(-420.000000, -123.000000)">
            <g id="intro" transform="translate(247.000000, 123.000000)">
                <g id="logo" transform="translate(173.000000, 0.000000)">
                    <rect id="border" fill="#F8E81C" x="0" y="38.3513514" width="188" height="4.75675676"></rect>
                    <path d="M86.7215642,6.87657143 L94.7498994,6.87657143 L100.352089,25.1365714 L105.954279,6.87657143 L113.982615,6.87657143 L105.248492,31.4285714 L95.4556872,31.4285714 L86.7215642,6.87657143 Z M133.74467,19.1525714 C133.74467,17.1578948 133.230039,15.63991 132.20076,14.5985714 C131.171481,13.5572329 129.951069,13.0365714 128.539486,13.0365714 C127.127904,13.0365714 125.914843,13.5572329 124.900268,14.5985714 C123.885693,15.63991 123.378413,17.1578948 123.378413,19.1525714 C123.378413,21.1472481 123.900397,22.6725661 124.94438,23.7285714 C125.988363,24.7845767 127.216127,25.3125714 128.627709,25.3125714 C130.039292,25.3125714 131.245001,24.7845767 132.244872,23.7285714 C133.244742,22.6725661 133.74467,21.1472481 133.74467,19.1525714 L133.74467,19.1525714 Z M115.702972,19.1085714 C115.702972,15.3245525 116.938088,12.2959161 119.408358,10.0225714 C121.878627,7.74922673 124.93701,6.61257143 128.583598,6.61257143 C132.230186,6.61257143 135.281217,7.74922673 137.736782,10.0225714 C140.192347,12.2959161 141.420112,15.3245525 141.420112,19.1085714 C141.420112,22.8925903 140.199699,25.9432265 137.758838,28.2605714 C135.317977,30.5779163 132.274298,31.7365714 128.627709,31.7365714 C124.981121,31.7365714 121.915387,30.5779163 119.430413,28.2605714 C116.94544,25.9432265 115.702972,22.8925903 115.702972,19.1085714 L115.702972,19.1085714 Z M156.726883,25.0485714 L159.417698,25.0485714 L159.417698,31.4285714 L155.579978,31.4285714 C152.815629,31.4285714 150.676231,30.8199108 149.161721,29.6025714 C147.64721,28.385232 146.889966,26.2952529 146.889966,23.3325714 L146.889966,13.1245714 L144.596156,13.1245714 L144.596156,6.87657143 L146.889966,6.87657143 L146.889966,0.892571429 L154.433073,0.892571429 L154.433073,6.87657143 L159.373587,6.87657143 L159.373587,13.1245714 L154.433073,13.1245714 L154.433073,23.3325714 C154.433073,24.4765771 155.197668,25.0485714 156.726883,25.0485714 L156.726883,25.0485714 Z M175.033251,31.7365714 C171.445479,31.7365714 168.504727,30.5852496 166.210905,28.2825714 C163.917084,25.9798932 162.77019,22.9219238 162.77019,19.1085714 C162.77019,15.295219 163.909732,12.2592494 166.188849,10.0005714 C168.467967,7.74189347 171.416071,6.61257143 175.033251,6.61257143 C178.650431,6.61257143 181.649999,7.72722695 184.032045,9.95657143 C186.41409,12.1859159 187.605095,15.2805516 187.605095,19.2405714 C187.605095,20.0912423 187.54628,20.8832344 187.428648,21.6165714 L170.489743,21.6165714 C170.636783,22.7019102 171.122007,23.5892346 171.94543,24.2785714 C172.768853,24.9679082 173.658431,25.3125714 174.61419,25.3125714 C175.569949,25.3125714 176.283081,25.217239 176.753609,25.0265714 C177.224136,24.8359038 177.569675,24.645239 177.790235,24.4545714 C178.010794,24.2639038 178.297518,23.9485736 178.650413,23.5085714 L186.811084,23.5085714 C186.105293,25.9725837 184.693731,27.9598972 182.576358,29.4705714 C180.458984,30.9812456 177.94464,31.7365714 175.033251,31.7365714 L175.033251,31.7365714 Z M178.253408,14.1145714 C177.371169,13.3959012 176.327202,13.0365714 175.121475,13.0365714 C173.915748,13.0365714 172.901188,13.3959012 172.077765,14.1145714 C171.254342,14.8332417 170.739711,15.7645657 170.533855,16.9085714 L179.753207,16.9085714 C179.635575,15.7645657 179.135647,14.8332417 178.253408,14.1145714 L178.253408,14.1145714 Z" id="stp:vote" fill="#F0343F"></path>
                    <g id="stp">
                        <mask id="mask-2" fill="white">
                            <use xlink:href="#path-1"></use>
                        </mask>
                        <use id="stp:vote" fill="#1572EA" xlink:href="#path-1"></use>
                        <rect id="border" fill="#146719" mask="url(#mask-2)" x="44" y="38.3513514" width="9" height="4.75675676"></rect>
                    </g>
                    <path d="M82.4427263,12.6845714 C81.6487111,13.4765754 80.6709108,13.8725714 79.5092961,13.8725714 C78.3476813,13.8725714 77.3698811,13.4765754 76.5758659,12.6845714 C75.7818508,11.8925675 75.3848492,10.9172439 75.3848492,9.75857143 C75.3848492,8.59989897 75.7818508,7.62457539 76.5758659,6.83257143 C77.3698811,6.04056747 78.3476813,5.64457143 79.5092961,5.64457143 C80.6709108,5.64457143 81.6487111,6.04056747 82.4427263,6.83257143 C83.2367414,7.62457539 83.633743,8.59989897 83.633743,9.75857143 C83.633743,10.9172439 83.2367414,11.8925675 82.4427263,12.6845714 L82.4427263,12.6845714 Z" id="Path" fill="#1572EA"></path>
                    <path d="M82.4427263,30.2405714 C81.6487111,31.0325754 80.6709108,31.4285714 79.5092961,31.4285714 C78.3476813,31.4285714 77.3698811,31.0325754 76.5758659,30.2405714 C75.7818508,29.4485675 75.3848492,28.4732439 75.3848492,27.3145714 C75.3848492,26.155899 75.7818508,25.1805754 76.5758659,24.3885714 C77.3698811,23.5965675 78.3476813,23.2005714 79.5092961,23.2005714 C80.6709108,23.2005714 81.6487111,23.5965675 82.4427263,24.3885714 C83.2367414,25.1805754 83.633743,26.155899 83.633743,27.3145714 C83.633743,28.4732439 83.2367414,29.4485675 82.4427263,30.2405714 L82.4427263,30.2405714 Z" id="Path" fill="#1572EA"></path>
                </g>
            </g>
        </g>
    </g>
</svg>