<?xml version="1.0" encoding="UTF-8"?>
<svg width="156px" height="132px" viewBox="0 0 156 132" version="1.1" xmlns="http://www.w3.org/2000/svg" xmlns:xlink="http://www.w3.org/1999/xlink">
    <!-- Generator: Sketch 41.1 (35376) - http://www.bohemiancoding.com/sketch -->
    <title>dignity</title>
    <desc>Created with Sketch.</desc>
    <defs>
        <rect id="path-1" x="0" y="0" width="79" height="105" rx="2"></rect>
        <mask id="mask-2" maskContentUnits="userSpaceOnUse" maskUnits="objectBoundingBox" x="0" y="0" width="79" height="105" fill="white">
            <use xlink:href="#path-1"></use>
        </mask>
        <path d="M100.56464,48.8201643 C97.9490877,47.6504277 95.0505016,47 92,47 C80.4020203,47 71,56.4020203 71,68 C71,79.5979797 80.4020203,89 92,89 L92,89 C103.59798,89 113,79.5979797 113,68 C113,63.7762113 111.753016,59.8436713 109.607111,56.5504427" id="path-3"></path>
        <mask id="mask-4" maskContentUnits="userSpaceOnUse" maskUnits="objectBoundingBox" x="0" y="0" width="42" height="42" fill="white">
            <use xlink:href="#path-3"></use>
        </mask>
    </defs>
    <g id="Page-1" stroke="none" stroke-width="1" fill="none" fill-rule="evenodd">
        <g id="Desktop" transform="translate(-904.000000, -1229.000000)">
            <g id="time" transform="translate(904.000000, 1229.000000)">
                <rect id="Rectangle-17" fill="#F3F8FE" x="46" y="13" width="80" height="80" rx="10"></rect>
                <g id="carte-electeur" transform="translate(4.000000, 26.000000)">
                    <use id="d-day" stroke="#006AF2" mask="url(#mask-2)" stroke-width="4" fill="#FFFFFF" xlink:href="#path-1"></use>
                    <rect id="d-day" fill-opacity="0.0576879529" fill="#0065F6" x="0" y="38" width="79" height="63"></rect>
                    <rect id="d-day" fill="#0065F6" transform="translate(39.500000, 34.500000) scale(1, -1) translate(-39.500000, -34.500000) " x="-1.42108547e-14" y="32" width="79" height="5"></rect>
                    <g id="Logo_de_la_République_française_(1999)" transform="translate(0.000000, 4.000000)">
                        <rect id="rect6" fill="#FFFFFF" x="19.2932862" y="0" width="39.6890459" height="13.200883"></rect>
                        <path d="M50.9869351,22.9852998 C50.9650365,22.9765133 50.9636791,22.9529985 50.9820785,22.9010779 C51.0053862,22.8353071 51.0161316,22.8301711 51.1057184,22.841992 C51.18697,22.8527132 51.2108815,22.8450422 51.2448288,22.7973616 C51.3101093,22.7056757 51.2597264,22.6395331 51.1412605,22.6613963 C51.0504015,22.6781648 51.0489822,22.6771615 51.0664861,22.6085552 C51.122074,22.3906683 51.1273539,22.4026707 50.9617127,22.370359 C50.7645294,22.3318942 50.5758619,22.2232344 50.4309453,22.0646733 C50.2133497,21.8265865 50.1378863,21.5857366 50.1595734,21.19856 C50.1706208,21.0013249 50.1876989,20.9244267 50.2509175,20.787267 C50.4443849,20.3675195 50.8862906,20.1534786 51.4802535,20.1918269 C51.6088532,20.2001298 51.7721331,20.2216708 51.8430986,20.2396961 L51.9721267,20.2724693 L51.9795458,20.5072927 L51.9869675,20.7421161 L51.9085803,20.7421161 C51.8623496,20.7421161 51.8301958,20.7288691 51.8301958,20.7098207 C51.8301958,20.6438737 51.6721725,20.4912537 51.5604161,20.4492678 C51.4161755,20.3950761 51.136329,20.4074306 50.9961478,20.4741788 C50.67574,20.6267394 50.5296569,21.0227766 50.6270732,21.4747446 C50.6723336,21.6847348 50.7471132,21.8255989 50.8900737,21.9701699 C51.0255816,22.1072037 51.1622792,22.1625169 51.3670932,22.1631922 C51.5837108,22.1639056 51.7353627,22.0782806 51.8307454,21.9014075 C51.8955485,21.7812336 51.9186652,21.7664912 51.9811793,21.8054628 C52.0102725,21.8236 52.0105409,21.8653823 51.982805,22.058168 L51.9495726,22.2891434 L51.8318215,22.3291723 C51.7670597,22.351188 51.6182671,22.3760785 51.5011741,22.3844845 C51.2992786,22.398978 51.2882777,22.4028527 51.2882777,22.4594629 C51.2882777,22.5046584 51.3025534,22.5191581 51.34705,22.5191581 C51.4332356,22.5191581 51.5140846,22.5848188 51.5331731,22.6703176 C51.5553504,22.769658 51.4834869,22.9166232 51.3893016,22.9645368 C51.3211773,22.9991937 51.0557097,23.0128924 50.9869351,22.9852998 L50.9869351,22.9852998 Z M35.6335872,22.8784595 C35.4101884,22.813669 35.2175224,22.7159317 34.9857845,22.5498367 L34.7855817,22.4063436 L34.4759142,22.3907186 C34.1325547,22.3733932 34.0125823,22.3356871 33.7904679,22.1752893 C33.3011758,21.8219519 33.2834112,20.922806 33.7570757,20.4851701 C34.1136562,20.1557126 34.7409656,20.0876407 35.1925046,20.3294058 C35.802094,20.6557951 35.8668117,21.6186497 35.31306,22.122996 C35.2271288,22.2012605 35.1429676,22.2653396 35.1260353,22.265394 C35.0732924,22.2655717 35.6797387,22.5919145 35.8570623,22.6587861 C36.0529732,22.7326671 36.2818706,22.7425401 36.4495475,22.6843415 C36.5715245,22.6420047 36.5923731,22.6470782 36.6128416,22.724079 C36.6247976,22.7690556 36.6039304,22.7879994 36.4804771,22.8442423 C36.2858746,22.9328997 35.8781045,22.9493749 35.6335872,22.8784595 L35.6335872,22.8784595 Z M34.8768817,22.0939071 C35.3089894,21.8718393 35.3912543,21.1606895 35.0373702,20.7065443 C34.7094089,20.2856659 34.1345944,20.3493802 33.9185378,20.8305593 C33.7233276,21.2653113 33.9460492,21.9374396 34.3442767,22.115353 C34.5054529,22.1873602 34.7111539,22.1790777 34.8768817,22.0939071 Z M21.3150473,22.3569995 C21.1965225,22.3061093 21.0664867,22.147803 20.860995,21.8042341 C20.5452952,21.2764036 20.4861276,21.1990698 20.3979862,21.1990698 L20.3215308,21.1990698 L20.3220498,21.4846658 C20.3229968,22.005924 20.3762728,22.184305 20.5433258,22.2255512 C20.5880136,22.2365851 20.6053927,22.2585112 20.6053927,22.303858 L20.6053927,22.3668402 L20.0763774,22.3668402 L19.5473622,22.3668402 L19.5473622,22.3070468 C19.5473622,22.2617622 19.5670753,22.2416915 19.6286045,22.2243321 C19.6732874,22.2117253 19.7342532,22.1692458 19.764084,22.1299331 C19.8170193,22.060171 19.8183212,22.0347783 19.8183212,21.0721141 C19.8183212,20.109442 19.8170198,20.0840582 19.764084,20.0143192 C19.7342532,19.9750197 19.6732874,19.9325512 19.6286045,19.9199443 C19.5692368,19.9031947 19.5473622,19.8820195 19.5473622,19.8412998 C19.5473622,19.7858246 19.5502782,19.7855027 20.2028043,19.7689851 C20.8973089,19.7514049 21.0503523,19.7644085 21.2461068,19.8576319 C21.4171183,19.9390719 21.559659,20.1858373 21.5600569,20.4011399 C21.5605121,20.6476298 21.3741752,20.9260184 21.1282961,21.0461929 L20.9995877,21.1090997 L21.2840591,21.5285329 C21.6187257,22.0219753 21.7238274,22.1537912 21.8227091,22.2040941 C21.9150176,22.2510532 21.9238852,22.3534809 21.8376111,22.3762258 C21.7338165,22.4035897 21.3944801,22.3911047 21.3150473,22.3569995 L21.3150473,22.3569995 Z M20.6693251,20.9422776 C21.0152695,20.8477961 21.1320273,20.3748836 20.8702195,20.1285805 C20.7471499,20.0127993 20.6164597,19.9707736 20.4496601,19.9933415 L20.3215308,20.0106776 L20.3215308,20.4906353 L20.3215308,20.970593 L20.4441075,20.9704407 C20.5115247,20.9703645 20.6128727,20.9576845 20.6693251,20.9422669 L20.6693251,20.9422776 Z M26.6150646,22.3571787 C26.4736318,22.3074588 26.3402774,22.2189205 26.2696804,22.1278672 C26.1413808,21.9623908 26.1279077,21.8753868 26.1263392,21.2022245 C26.1247005,20.4986287 26.1112442,20.4213238 25.9799718,20.3613214 C25.9272364,20.3372169 25.8964622,20.3046087 25.8961172,20.2724693 C25.8955933,20.2236667 25.9125946,20.2216967 26.3342631,20.2216967 C26.7720002,20.2216967 26.7729535,20.2218237 26.772945,20.2788159 C26.772939,20.3171899 26.7574748,20.3359351 26.7258231,20.3359351 C26.6999112,20.3359351 26.650558,20.3654104 26.6161493,20.4014356 L26.5535884,20.4669359 L26.5535884,21.1566785 C26.5535884,21.805805 26.5567452,21.8523411 26.6071983,21.946959 C26.6858848,22.0945248 26.8428496,22.1704296 27.0447117,22.1585308 C27.2618957,22.1457292 27.3793761,22.0699569 27.4660928,21.8867487 C27.5326336,21.7461672 27.5332493,21.7392035 27.5337233,21.1217994 C27.5341491,20.5689475 27.5290755,20.491026 27.4887158,20.4304255 C27.4636982,20.3928617 27.414345,20.3549959 27.3790419,20.3462793 C27.3389619,20.3363832 27.3148543,20.3123954 27.3148543,20.2824104 C27.3148543,20.2376787 27.3387131,20.2343899 27.6632302,20.2343899 C27.9877472,20.2343899 28.011606,20.2376787 28.011606,20.2824104 C28.011606,20.3123109 27.9875433,20.3363723 27.9478367,20.346176 C27.8290037,20.3755167 27.8195157,20.4299376 27.8054493,21.1628923 L27.7922583,21.8502247 L27.7145733,21.99955 C27.6228833,22.1757963 27.4743802,22.2976521 27.2832261,22.3534961 C27.1219805,22.400603 26.7445072,22.4026834 26.6150646,22.3571787 L26.6150646,22.3571787 Z M36.679257,22.3571787 C36.5362531,22.3069064 36.404237,22.2186204 36.3311911,22.1244085 C36.2095503,21.9675206 36.1921101,21.8515013 36.1905316,21.1886886 C36.1888904,20.4995514 36.1750173,20.4211321 36.0441642,20.3613214 C35.9914288,20.3372169 35.9606546,20.3046087 35.9603096,20.2724693 C35.9597857,20.2236667 35.976787,20.2216967 36.3984555,20.2216967 C36.8320465,20.2216967 36.8371459,20.2223415 36.8371374,20.2770503 C36.8371314,20.3142451 36.8189305,20.3350651 36.781655,20.3405161 C36.7511445,20.3449777 36.7017913,20.380856 36.6719811,20.4202456 C36.6211885,20.4873602 36.6172454,20.5291859 36.6092629,21.0855138 C36.599456,21.769005 36.6188525,21.9131502 36.7365698,22.0315979 C36.9495322,22.2458818 37.3921699,22.1860257 37.5176071,21.9259815 C37.596609,21.7622027 37.6168868,21.5570232 37.6071699,21.0197492 C37.5968815,20.4508755 37.5796175,20.379953 37.4432343,20.3462793 C37.4031543,20.3363832 37.3790467,20.3123954 37.3790467,20.2824104 C37.3790467,20.2376787 37.4029055,20.2343899 37.7274226,20.2343899 C38.0510955,20.2343899 38.0757984,20.2377716 38.0757984,20.2820826 C38.0757984,20.3108801 38.0458613,20.3419743 38.000236,20.3605659 C37.9586765,20.3775007 37.9157855,20.4103021 37.9049229,20.4334582 C37.8940603,20.4566141 37.8787101,20.7848761 37.8708115,21.1629291 L37.8564507,21.8502985 L37.7787657,21.9995871 C37.6870734,22.1757942 37.5385409,22.2976612 37.3474185,22.3534961 C37.1861729,22.400603 36.8086996,22.4026834 36.679257,22.3571787 L36.679257,22.3571787 Z M44.8475169,22.3561125 C44.7443667,22.3119327 44.621679,22.1614934 44.4318451,21.84642 C44.1866891,21.4395249 44.1588371,21.4028196 44.0949604,21.4024738 C44.0378191,21.4021641 44.0368978,21.4072076 44.0368978,21.7203039 C44.0368978,22.0998927 44.0691135,22.2068975 44.1905883,22.2307977 C44.2516677,22.2428154 44.2691484,22.2596693 44.2691484,22.306547 L44.2691484,22.3668394 L43.8304528,22.3668394 L43.3917573,22.3668394 L43.3917573,22.306547 C43.3917573,22.2596693 43.4092354,22.2428154 43.4703173,22.2307977 C43.6173345,22.2018721 43.6277445,22.133127 43.618919,21.249452 L43.611105,20.4668765 L43.5485445,20.4014054 C43.5141353,20.3653965 43.464782,20.3359344 43.4388706,20.3359344 C43.4096612,20.3359344 43.3917573,20.3174633 43.3917573,20.2873277 C43.3917573,20.2454466 43.4179474,20.2363065 43.5810415,20.2212718 C43.6851465,20.2116747 43.9725566,20.2081861 44.2197306,20.2135193 C44.6215783,20.2221897 44.6805106,20.2291189 44.7766366,20.2790005 C44.9474001,20.3676134 45.043317,20.5404039 45.043317,20.7594121 C45.043317,20.9674504 44.9220745,21.1501714 44.7019809,21.2738292 C44.63172,21.3133054 44.5863304,21.3529598 44.6011171,21.3619499 C44.6159037,21.3709402 44.7299361,21.5293191 44.8545231,21.7139032 C45.0990987,22.0762606 45.2350402,22.2399079 45.2914745,22.2399079 C45.3412174,22.2399079 45.336815,22.3577694 45.2863598,22.3768165 C45.2131286,22.404462 44.9291143,22.3910628 44.8475169,22.3561125 L44.8475169,22.3561125 Z M44.3705774,21.1619014 C44.4731522,21.1097204 44.5738767,20.9842219 44.5927922,20.885035 C44.6170804,20.757678 44.560099,20.5896764 44.4616299,20.4983177 C44.3704432,20.413715 44.2823609,20.3894571 44.1299193,20.4069648 L44.0368978,20.4176481 L44.0368978,20.8083587 L44.0368978,21.199069 L44.1672059,21.199069 C44.2388758,21.199069 44.3303929,21.1823435 44.3705774,21.1619014 Z M55.8572559,22.3517196 C55.7799526,22.3312791 55.7120709,22.3099964 55.7064091,22.3044249 C55.7007448,22.2988534 55.6818706,22.1849551 55.6644647,22.0513175 L55.6328193,21.8083406 L55.7056376,21.8083406 C55.7456879,21.8083406 55.7784559,21.8178058 55.7784559,21.8293746 C55.7784559,21.895424 55.9477975,22.0899695 56.0459956,22.1367338 C56.311409,22.2631305 56.6301678,22.144135 56.6299459,21.9187403 C56.6296878,21.7708282 56.5567844,21.6824206 56.3081446,21.5290911 C55.9592655,21.3139472 55.8245473,21.2003444 55.7549676,21.0626166 C55.6855969,20.9253033 55.6732025,20.7116132 55.7255595,20.5555471 C55.7601184,20.4525355 55.9222396,20.2987102 56.0587152,20.2394382 C56.1961121,20.1797667 56.6261292,20.181692 56.8042293,20.242776 L56.9397088,20.2892421 L56.9397088,20.5156789 L56.9397088,20.7421154 L56.8650893,20.7421154 C56.8071634,20.7421154 56.786875,20.7280209 56.774398,20.6791152 C56.747346,20.5730918 56.6090098,20.4407011 56.4932251,20.4100299 C56.1834777,20.3279793 55.9353876,20.6405968 56.1298381,20.8679325 C56.166975,20.9113497 56.3353283,21.0388646 56.5039603,21.1512996 C56.8306001,21.369088 56.9512723,21.4876807 56.9917072,21.6306364 C57.0806824,21.9452076 56.9328987,22.2230519 56.6142148,22.3403486 C56.4432138,22.4032894 56.0732954,22.4088462 55.8572559,22.3517196 L55.8572559,22.3517196 Z M22.0505075,22.2984002 C22.0505075,22.2533997 22.0649558,22.2399086 22.1131485,22.2399086 C22.1500844,22.2399086 22.1977373,22.2124602 22.2292738,22.1730193 C22.2808059,22.1085715 22.2827581,22.0770042 22.2827581,21.3082157 C22.2827581,20.7502844 22.2737289,20.493624 22.2527373,20.4548512 C22.2142921,20.3838406 22.1530211,20.3377678 22.0956673,20.3367424 C22.0649194,20.3361915 22.0505075,20.3156812 22.0505075,20.2724693 L22.0505075,20.2090036 L22.8246761,20.2090036 L23.5988448,20.2090036 L23.5988448,20.477246 L23.5988448,20.7454885 L23.5310939,20.7374557 C23.4800646,20.7314057 23.4561807,20.7080802 23.4343228,20.6429486 C23.3834491,20.4913557 23.2985027,20.4527355 22.9913402,20.4415498 L22.7214536,20.4317218 L22.7214536,20.7932713 L22.7214536,21.1548207 L22.929018,21.1430003 C23.1552353,21.1301175 23.2691539,21.0760883 23.2845207,20.9743925 C23.2906041,20.9341331 23.3109082,20.9198297 23.3619375,20.9198556 L23.4311082,20.919881 L23.4311082,21.2498711 L23.4311082,21.5798612 L23.3601428,21.5798579 C23.3029018,21.5798554 23.2891773,21.5683414 23.2891773,21.5203234 C23.2891773,21.4069608 23.203129,21.3649412 22.9510323,21.3551984 L22.7214536,21.3463259 L22.7214536,21.7028208 C22.7214536,22.1325032 22.7254654,22.1383535 23.0201093,22.1383535 C23.3106889,22.1383535 23.4621668,22.0659576 23.5380028,21.8908369 C23.5763306,21.8023301 23.6656795,21.7770504 23.6929628,21.846994 C23.7109666,21.8931489 23.6382425,22.1911766 23.5836194,22.2950896 L23.5449618,22.3686305 L22.7977348,22.3627561 L22.0505075,22.3568819 L22.0505075,22.2983903 L22.0505075,22.2984002 Z M24.0375403,22.3065477 C24.0375403,22.2601126 24.0550107,22.2428179 24.1135539,22.2312996 C24.2497085,22.204511 24.2561743,22.1669217 24.264909,21.3513877 C24.2740034,20.5022543 24.2629607,20.4257671 24.121967,20.3613214 C24.0631632,20.3344432 24.0384931,20.3057308 24.0380988,20.2637116 L24.0375414,20.2041812 L24.6246192,20.2147069 C25.2593862,20.2260875 25.3111696,20.2359585 25.483213,20.3783711 C25.6722908,20.5348846 25.7213068,20.8461752 25.5933037,21.0775374 C25.4816595,21.2793314 25.2886376,21.3864893 24.9809299,21.4175028 L24.8197443,21.4337482 L24.7796963,21.3354489 L24.7396481,21.2371493 L24.8350042,21.2234277 C24.9561523,21.2059947 25.0877109,21.1305196 25.1573884,21.0384762 C25.1970168,20.9861276 25.2112169,20.9312295 25.2099209,20.8353857 C25.2065781,20.5881997 25.0653256,20.4370232 24.8189278,20.4169218 L24.6794854,20.4055462 L24.6875349,21.2529149 C24.696314,22.1770516 24.7004635,22.2030208 24.843967,22.2319495 C24.8973818,22.2427171 24.9149325,22.2611664 24.9149325,22.3065477 L24.9149325,22.3668402 L24.4762369,22.3668402 L24.0375414,22.3668402 L24.0375414,22.3065477 L24.0375403,22.3065477 Z M28.3212735,22.2972713 C28.3212735,22.257954 28.3366103,22.2399086 28.370026,22.2399086 C28.3968396,22.2399086 28.4461928,22.218084 28.4796999,22.1914099 L28.5406213,22.1429108 L28.5484363,21.3560562 C28.5571846,20.4752209 28.5472802,20.4087258 28.3991417,20.3537182 C28.3526764,20.3364644 28.3212735,20.3065728 28.3212735,20.2795968 C28.3212735,20.2384989 28.3570424,20.2338131 28.7148092,20.2280433 C29.467889,20.2158982 29.6254986,20.2242117 29.7479796,20.2825404 C29.906743,20.3581476 29.9809251,20.4676129 29.9940117,20.6455928 C29.9998936,20.7255879 29.997538,20.8191339 29.9887773,20.8534727 C29.9633538,20.9531213 29.8430723,21.0748081 29.7100846,21.135421 L29.5871579,21.1914483 L29.6912803,21.2221373 C29.9400725,21.2954662 30.0986948,21.551394 30.0658326,21.8264567 C30.038096,22.0586186 29.9368215,22.1891799 29.7018743,22.2956669 C29.5784803,22.3515934 29.5455203,22.3541577 28.9470598,22.3543905 L28.3212735,22.3546444 L28.3212735,22.297282 L28.3212735,22.2972713 Z M29.4593561,22.1061245 C29.5908778,22.0196897 29.6430875,21.9019838 29.6284364,21.7249346 C29.6063947,21.4585717 29.4172798,21.300615 29.1204166,21.300615 L28.9626957,21.300615 L28.9710061,21.6837105 C28.9789723,22.050922 28.9818427,22.0688158 29.0402382,22.1152778 C29.1293582,22.1861856 29.3446883,22.1814828 29.4593561,22.1061245 L29.4593561,22.1061245 Z M29.352789,21.0512529 C29.51122,20.991526 29.5945985,20.8695039 29.5781136,20.7214956 C29.5559631,20.5226177 29.3930586,20.4120941 29.1220766,20.4120941 L28.966414,20.4120941 L28.966414,20.7548093 L28.966414,21.0975245 L29.1018936,21.0961435 C29.1764073,21.0953845 29.2893102,21.0751831 29.352789,21.0512524 L29.352789,21.0512529 Z M30.4115368,22.298714 C30.4115309,22.2576846 30.4293053,22.241194 30.4799421,22.2352482 C30.5184033,22.2307323 30.572069,22.1958357 30.6025188,22.1555415 C30.6547726,22.0863948 30.6566823,22.0564093 30.6566823,21.3051 C30.6566823,20.6809448 30.6494412,20.5137322 30.6202101,20.4628667 C30.5746343,20.3835596 30.5152938,20.3377904 30.4566887,20.3367424 C30.4273033,20.3362169 30.4115288,20.3159833 30.4115288,20.2788159 C30.4115288,20.2216967 30.4115288,20.2216967 30.87603,20.2216967 C31.3405312,20.2216967 31.3405312,20.2216967 31.3405312,20.2788159 C31.3405312,20.3184648 31.3251857,20.3359351 31.2903589,20.3359351 C31.2627642,20.3359351 31.2076047,20.3634925 31.1677822,20.397174 L31.0953778,20.4584127 L31.0878895,21.2590549 L31.080401,22.059697 L31.1464397,22.1022643 C31.1987146,22.1359596 31.2545995,22.1424326 31.4145745,22.1333224 C31.6601359,22.1193379 31.7751353,22.0595546 31.8435424,21.9103197 C31.889056,21.8110282 31.9372163,21.7869142 32.0052027,21.8293754 C32.0307248,21.8453155 32.0265644,21.8922207 31.98568,22.0494793 C31.9571039,22.1593954 31.9157734,22.2762768 31.8938345,22.3092158 L31.8539454,22.3691052 L31.1327451,22.3616261 L30.4115451,22.3541471 L30.4115368,22.298714 L30.4115368,22.298714 Z M32.2179224,22.3065477 C32.2179224,22.2596701 32.2354018,22.2428161 32.2964819,22.2307985 C32.438971,22.2027639 32.4501851,22.1335202 32.4500764,21.2823907 C32.449999,20.5755652 32.4466776,20.5210044 32.3992657,20.4445083 C32.3713729,20.399505 32.3191599,20.355427 32.2832369,20.3465575 C32.2387898,20.3355833 32.2179224,20.3130613 32.2179224,20.2760638 C32.2179224,20.2226307 32.2254579,20.2216967 32.6566179,20.2216967 C33.087778,20.2216967 33.0953135,20.2226309 33.0953135,20.2760638 C33.0953135,20.3128097 33.0745093,20.3355675 33.0311259,20.3462793 C32.9958228,20.3549959 32.9464695,20.3928485 32.921452,20.4303966 C32.8805147,20.4918378 32.8759657,20.5762151 32.8759657,21.2740884 C32.8759657,22.1360253 32.8864805,22.2051672 33.0216015,22.2317523 C33.0778511,22.2428194 33.0953135,22.2605386 33.0953135,22.3065477 L33.0953135,22.3668402 L32.6566179,22.3668402 L32.2179224,22.3668402 L32.2179224,22.3065477 L32.2179224,22.3065477 Z M38.3854659,22.3019553 C38.3854659,22.2601954 38.4051272,22.2423869 38.4640254,22.2307985 C38.6065602,22.2027548 38.6177165,22.133722 38.6177165,21.2797983 C38.6177165,20.5317664 38.6168907,20.5199405 38.5587672,20.4348879 C38.526345,20.3874452 38.4740886,20.3449777 38.4426419,20.3405161 C38.4015562,20.3346869 38.3854659,20.3150404 38.3854659,20.2707037 L38.3854659,20.2090036 L39.1467317,20.2090036 L39.9079976,20.2090036 L39.9079976,20.4755599 C39.9079976,20.7396506 39.9074273,20.7421161 39.8463554,20.7421161 C39.7964788,20.7421161 39.7815175,20.7253574 39.7679696,20.6543138 C39.7391935,20.5034165 39.6337842,20.4527472 39.3252721,20.4415125 L39.0641901,20.4320051 L39.0473984,20.5525243 C39.0381628,20.61881 39.0306064,20.781586 39.0306064,20.9142488 L39.0306064,21.1554538 L39.2501436,21.14198 C39.4918497,21.1271455 39.5875134,21.0852942 39.6136207,20.982965 C39.6251651,20.9377159 39.6472217,20.9198203 39.6914474,20.9198203 L39.7531638,20.9198203 L39.7531638,21.2498424 L39.7531638,21.5798645 L39.6886498,21.5798645 C39.6447242,21.5798645 39.6238738,21.5656867 39.6233151,21.5354384 C39.6209926,21.4097841 39.4981914,21.3513877 39.2362734,21.3513877 L39.0256572,21.3513877 L39.0345831,21.7088666 C39.0453962,22.1419129 39.0427676,22.1383634 39.352641,22.1383634 C39.6261352,22.1383634 39.7683654,22.0739096 39.8428157,21.9162331 C39.880313,21.8368184 39.9088585,21.8083413 39.9509665,21.8083413 C39.9824308,21.8083413 40.0160238,21.8208359 40.0256178,21.8361071 C40.0491363,21.8735423 39.9346682,22.2862039 39.8880421,22.3320724 C39.8572697,22.3623448 39.7262341,22.3676269 39.1182116,22.3631049 L38.3854659,22.3576552 L38.3854659,22.3019553 Z M41.2240843,22.3079559 C41.2240843,22.266334 41.248131,22.2384256 41.3061103,22.2127572 C41.3512244,22.1927843 41.4121902,22.144184 41.4415898,22.1047565 C41.4934222,22.0352439 41.4950433,22.0040622 41.4950433,21.0766108 C41.4950433,20.0007038 41.4930072,19.9877405 41.3148527,19.9298998 C41.2442558,19.9069793 41.2240843,19.8867637 41.2240843,19.8389333 L41.2240843,19.7774362 L42.1272818,19.7774362 L43.0304786,19.7774362 L43.0304786,20.0947652 L43.0304786,20.4120941 L42.9530617,20.4120941 C42.8900082,20.4120941 42.8756268,20.4014953 42.8755468,20.3549749 C42.8753919,20.2615527 42.7782157,20.1327121 42.6750861,20.0891852 C42.6140584,20.0634283 42.4727262,20.0442535 42.2885669,20.0367458 L41.9982537,20.0249104 L41.9982537,20.4596721 L41.9982537,20.894434 L42.2111501,20.8930022 C42.4949087,20.8910932 42.5920281,20.8564523 42.6519694,20.7357706 C42.6905282,20.6581446 42.7131546,20.6405719 42.7745461,20.6405719 L42.8498392,20.6405719 L42.8498392,21.0229751 L42.8498392,21.4053783 L42.7669851,21.3974232 C42.7100785,21.3919596 42.6797724,21.3735674 42.670214,21.3386955 C42.6292837,21.1893758 42.4713585,21.1229119 42.1574873,21.1229119 L41.992499,21.1229119 L42.0030123,21.5735189 C42.0150093,22.0877603 42.0369983,22.1629142 42.1915481,22.2178919 C42.2593421,22.2420083 42.2821155,22.2647849 42.2821155,22.3084753 L42.2821155,22.3668412 L41.7531003,22.3668412 L41.2240843,22.3668412 L41.2240843,22.3079569 L41.2240843,22.3079559 Z M45.3529848,22.3033744 C45.3529848,22.256984 45.3667727,22.2399086 45.4042296,22.2399086 C45.4833031,22.2399086 45.5736125,22.0816991 45.7698952,21.5993155 C46.0327358,20.9533582 46.2819871,20.2965432 46.2819871,20.2498781 C46.2819871,20.217967 46.3088663,20.2091173 46.4045638,20.209522 L46.5271405,20.2100398 L46.8752068,21.0876741 C47.2531791,22.0407132 47.3228491,22.1888494 47.4109831,22.2268883 C47.4465845,22.2422541 47.4690457,22.2741695 47.4690457,22.3093938 C47.4690457,22.3668113 47.4687877,22.3668397 47.0303502,22.3668397 L46.5916546,22.3668397 L46.5916546,22.3065472 C46.5916546,22.2599846 46.6091276,22.2428169 46.6683824,22.2311582 C46.7792873,22.2093377 46.7859761,22.1354945 46.699775,21.8844997 L46.625669,21.6687161 L46.3207394,21.6687161 L46.0158099,21.6687161 L45.9545138,21.8464203 C45.8772827,22.070321 45.8817574,22.2235756 45.9658683,22.2353272 C46.0078927,22.2411988 46.0239309,22.260482 46.0239309,22.3051395 L46.0239309,22.3668397 L45.6884578,22.3668397 L45.3529848,22.3668397 L45.3529848,22.3033739 L45.3529848,22.3033744 Z M46.5400433,21.4144458 C46.5400433,21.3758212 46.3504752,20.8690477 46.3360293,20.8690477 C46.3266205,20.8690477 46.3003143,20.917599 46.2775692,20.9769395 C46.2548216,21.0362801 46.206387,21.1619423 46.1699365,21.256189 L46.10366,21.4275466 L46.3218517,21.4275466 C46.4418581,21.4275466 46.5400433,21.4216511 46.5400433,21.4144458 Z M47.6496851,22.3065477 C47.6496851,22.2611664 47.6672355,22.2427171 47.7206505,22.2319495 C47.8602512,22.2038078 47.8665194,22.1680494 47.8773655,21.3378786 C47.8885548,20.4814414 47.8776235,20.4094318 47.7275535,20.3537182 C47.6810879,20.3364644 47.6496851,20.3065728 47.6496851,20.2795968 C47.6496851,20.2389208 47.6787835,20.2343952 47.9399983,20.234444 L48.2303116,20.2344947 L48.3980481,20.4433355 C48.4903032,20.5581979 48.7283601,20.8411459 48.9270633,21.0721085 C49.1257666,21.3030712 49.3149709,21.5260803 49.3475195,21.5676841 L49.4066969,21.6433272 L49.3983359,21.0698248 C49.389224,20.4449125 49.374796,20.3804462 49.2364056,20.3462762 C49.1963244,20.3363802 49.1722167,20.3123924 49.1722167,20.2824073 C49.1722167,20.2376756 49.1960766,20.2343868 49.5205926,20.2343868 C49.8475808,20.2343868 49.8689685,20.2373954 49.8689685,20.2833938 C49.8689685,20.3140981 49.8482518,20.3354305 49.8134942,20.340513 C49.7829842,20.3449747 49.7336309,20.3808588 49.7038203,20.420255 C49.6514142,20.489514 49.6493601,20.5229168 49.6417139,21.429361 L49.6338071,22.3668372 L49.5213049,22.3668372 C49.4195378,22.3668372 49.4006636,22.356543 49.3234867,22.2589453 C49.2552618,22.1726687 48.1620144,20.84061 48.1202609,20.7928857 C48.1141553,20.7859045 48.1142301,21.0657886 48.120519,21.4148504 C48.133094,22.1226729 48.1488045,22.2073507 48.2720625,22.2316017 C48.3290593,22.2428159 48.3465246,22.2603939 48.3465246,22.3065447 L48.3465246,22.3668372 L47.9981487,22.3668372 L47.6497728,22.3668372 L47.6497728,22.3065447 L47.6496851,22.3065477 Z M52.1656688,22.3033744 C52.1656688,22.2656615 52.1804451,22.2399086 52.2020832,22.2399086 C52.2530828,22.2399086 52.3487313,22.1207854 52.4170337,21.9722041 C52.512019,21.7655758 52.9536538,20.6441382 53.029432,20.4171523 L53.0997807,20.2064271 L53.215137,20.2140618 L53.3304933,20.2216967 L53.6728565,21.0848314 C53.8611575,21.5595554 54.0358977,21.9879495 54.0611743,22.0368181 C54.1188679,22.1483699 54.2028601,22.2399086 54.2475193,22.2399086 C54.2668064,22.2399086 54.2817298,22.2675934 54.2817298,22.3033744 L54.2817298,22.3668402 L53.8430342,22.3668402 L53.4043387,22.3668402 L53.4043387,22.3033744 C53.4043387,22.2591835 53.4184466,22.2399086 53.4507888,22.2399086 C53.5756777,22.2399086 53.5872515,22.1326261 53.4925397,21.8528539 L53.425907,21.6560234 L53.1230651,21.6560234 L52.8202233,21.6560234 L52.7653037,21.827381 C52.6615703,22.1510451 52.666494,22.2399086 52.7881624,22.2399086 C52.8226413,22.2399086 52.836615,22.2582124 52.836615,22.3033744 L52.836615,22.3668402 L52.5011419,22.3668402 L52.1656688,22.3668402 L52.1656688,22.3033744 Z M53.2606039,21.1673369 C53.2118158,21.0242216 53.1649864,20.8899914 53.1565376,20.8690477 C53.1473637,20.8463016 53.0957654,20.9434131 53.0283972,21.1102177 C52.9663682,21.2638049 52.9152602,21.398035 52.9148241,21.4085069 C52.9143854,21.4189787 53.0119694,21.4275466 53.1316713,21.4275466 L53.3493133,21.4275466 L53.2606039,21.1673369 Z M54.4365635,22.3033744 C54.4365635,22.2537203 54.4497321,22.2399086 54.4970777,22.2399086 C54.5303618,22.2399086 54.5797151,22.2158787 54.6067516,22.1865088 C54.6525127,22.1368016 54.6564352,22.0784273 54.663493,21.3424139 C54.6676606,20.9075316 54.6646285,20.5263312 54.6567268,20.4953023 C54.6383377,20.4229675 54.5436311,20.3359351 54.4833078,20.3359351 C54.4520392,20.3359351 54.436561,20.3170259 54.4365558,20.2788159 C54.4365455,20.2218209 54.4375106,20.2216967 54.8752359,20.2216967 C55.2971475,20.2216967 55.3139289,20.2236439 55.3139418,20.2726189 C55.3139495,20.3043761 55.2858472,20.33578 55.2392732,20.3560606 C55.198201,20.3739463 55.1526128,20.4195744 55.1379681,20.4574564 C55.1003641,20.5547382 55.0789713,21.3469047 55.102395,21.7748603 C55.1187326,22.0733551 55.1303554,22.143841 55.1704161,22.1873879 C55.1969881,22.2162742 55.2401558,22.2399086 55.2663433,22.2399086 C55.2999242,22.2399086 55.3139547,22.25861 55.3139547,22.3033744 L55.3139547,22.3668402 L54.8752591,22.3668402 L54.4365635,22.3668402 L54.4365635,22.3033744 Z M57.3267931,22.2988125 C57.3267931,22.2533756 57.3411153,22.2399086 57.3894337,22.2399086 C57.4263693,22.2399086 57.474022,22.2124602 57.505559,22.1730193 C57.5570903,22.1085715 57.5590437,22.0770042 57.5590437,21.3082157 C57.5590437,20.7502844 57.5500144,20.493624 57.5290241,20.4548512 C57.4905788,20.3838406 57.429306,20.3377678 57.371953,20.3367424 C57.3412056,20.3361915 57.3267931,20.3156812 57.3267931,20.2724693 L57.3267931,20.2090036 L58.1009618,20.2090036 L58.8751304,20.2090036 L58.8751304,20.477246 L58.8751304,20.7454885 L58.8073804,20.7374557 C58.7563497,20.7314057 58.7324666,20.7080802 58.7106093,20.6429486 C58.6597361,20.4913557 58.5747891,20.4527355 58.2676248,20.4415498 L57.9977393,20.4317218 L57.9977393,20.7900095 L57.9977393,21.1482972 L58.1590244,21.1468654 C58.3829114,21.1448751 58.4920976,21.1035723 58.5396574,21.0028762 C58.5680048,20.9428577 58.5956349,20.9207825 58.6428798,20.920406 L58.7073939,20.9198907 L58.7073939,21.2498808 L58.7073939,21.5798708 L58.6364284,21.5798675 C58.5791864,21.579865 58.565463,21.568351 58.565463,21.5203331 C58.565463,21.4069705 58.4794141,21.3649508 58.227319,21.3552081 L57.9977393,21.3463355 L57.9977393,21.7028305 C57.9977393,22.1325129 58.0017521,22.1383631 58.2963955,22.1383631 C58.5869746,22.1383631 58.7384535,22.0659672 58.8142885,21.8908466 C58.8526176,21.8023397 58.9419644,21.77706 58.9692487,21.8470037 C58.9872533,21.8931588 58.9145279,22.1911865 58.8599051,22.2951 L58.8212457,22.3686416 L58.0740207,22.363179 L57.3267931,22.3577161 L57.3267931,22.2988123 L57.3267931,22.2988125 Z M22.7487031,19.9824838 L22.6856331,19.9347974 L22.8390227,19.7041972 C22.9233873,19.5773672 23.0088803,19.4734179 23.0290073,19.4731988 C23.1162665,19.4722493 23.3941048,19.530975 23.3871463,19.5488975 C23.3732889,19.5845894 22.8639628,20.0310034 22.8375789,20.0305822 C22.8233858,20.0303537 22.7833918,20.0087114 22.7487031,19.9824838 Z M19.4699453,18.2288711 L58.771908,18.2288711 L58.771908,18.4573479 L19.4699453,18.4573479 L19.4699453,18.2288711 L19.4699453,18.2288711 Z M34.4278451,17.709345 C34.2214104,17.6369489 34.1053145,17.4476558 34.1429185,17.2447752 C34.1682599,17.1080545 34.2469314,17.0123836 34.386224,16.9488973 L34.5081137,16.8933424 L34.4339512,16.8514707 C34.3918013,16.827673 34.3597889,16.788027 34.3597889,16.7596238 C34.3597889,16.7136877 34.5490076,16.5279881 34.5958141,16.5279881 C34.606974,16.5279881 34.5907748,16.4857552 34.5598166,16.4341369 C34.4276655,16.2137972 34.5333885,15.8952309 34.7801171,15.7703232 C34.913694,15.7026991 34.9587893,15.6998378 35.4264937,15.7293111 C35.6955542,15.7462666 35.7055684,15.7489807 35.6913536,15.8010919 C35.6832284,15.8308792 35.6764217,15.8638187 35.6762279,15.8742905 C35.6760214,15.8847624 35.6305266,15.8933303 35.5751003,15.8933303 L35.474325,15.8933303 L35.4879289,16.0409197 C35.5176095,16.362924 35.2848245,16.5834615 34.909018,16.5893722 C34.7138049,16.5924427 34.6193187,16.6331712 34.6954778,16.6814199 C34.7166487,16.6948323 34.8426756,16.7404144 34.9755377,16.7827139 C35.4027706,16.918732 35.4817237,16.9871796 35.4635039,17.2057519 C35.4445806,17.4327639 35.2589631,17.6306911 34.9904355,17.7101929 C34.8366606,17.7557205 34.5588891,17.7553019 34.4278451,17.709345 L34.4278451,17.709345 Z M35.0024209,17.5526089 C35.2119177,17.4499086 35.3026735,17.2542091 35.1881058,17.1522114 C35.1109201,17.0834945 34.7756961,16.9780016 34.68883,16.9950925 C34.5119802,17.0298877 34.3467741,17.2420041 34.3772653,17.3951259 C34.4191705,17.605566 34.7330843,17.6846442 35.0024209,17.5526089 L35.0024209,17.5526089 Z M35.071509,16.4039587 C35.2287961,16.3096036 35.2895454,16.0418262 35.1836959,15.909447 C35.0389034,15.7283642 34.7633264,15.9301935 34.7607554,16.2192037 C34.7599554,16.3090083 34.7731173,16.340583 34.8321805,16.3905613 C34.9192386,16.4642289 34.9666192,16.4668812 35.071509,16.4039587 L35.071509,16.4039587 Z M36.0500572,16.9930408 C35.9366918,16.9702563 35.8759575,16.8958157 35.8630681,16.7638524 C35.830065,16.4259651 36.1190353,15.9307517 36.4424301,15.7709896 C36.6105276,15.6879464 36.9421051,15.6795684 37.1630059,15.7527823 C37.1828243,15.7593507 37.1681688,15.8461364 37.1170997,16.0246247 C37.0172162,16.3737201 36.9600199,16.7231363 36.9928741,16.7835273 C37.0144248,16.8231406 37.0297129,16.8258863 37.0981158,16.8024284 C37.1612529,16.7807764 37.1829172,16.7824062 37.200759,16.8101504 C37.2379057,16.8679142 37.2153301,16.8898865 37.0678796,16.9394815 C36.8696372,17.0061601 36.7788876,16.9931624 36.7490907,16.8938229 L36.7255668,16.815397 L36.6199049,16.873493 C36.44154,16.9715632 36.1977089,17.0227163 36.0500572,16.9930408 L36.0500572,16.9930408 Z M36.4961589,16.7647993 C36.5711978,16.7297311 36.6494598,16.6757156 36.6700744,16.6447649 C36.7045373,16.5930225 36.8096549,16.2121968 36.8506944,15.990405 C36.8675116,15.8995192 36.8654474,15.8963995 36.7716321,15.8709167 C36.5983105,15.8238378 36.4239971,15.9481789 36.2851376,16.217943 C36.1394674,16.500938 36.1027375,16.753037 36.197648,16.8184347 C36.2620839,16.8628341 36.3015626,16.8557407 36.4961589,16.7647993 Z M48.714327,16.9855815 C48.5985242,16.9585369 48.5576688,16.9190003 48.526013,16.8033491 C48.478012,16.6279863 48.589082,16.2962674 48.7779662,16.0508744 C49.0041525,15.757019 49.2555508,15.6578372 49.6267595,15.7160104 C49.7244932,15.7313262 49.8121368,15.7517851 49.8215275,15.7614745 C49.8309156,15.7711642 49.798305,15.9333137 49.7490601,16.1218071 C49.6998127,16.3103005 49.6572928,16.5387773 49.6545703,16.6295334 L49.6496207,16.7945444 L49.7592946,16.789738 C49.8576966,16.7854256 49.8689685,16.7908829 49.8689685,16.8428381 C49.8689685,16.8913071 49.8447035,16.9079717 49.7200752,16.9450931 C49.5149851,17.0061805 49.4198114,16.9931212 49.4092052,16.9024362 C49.4047125,16.8640394 49.396336,16.8326239 49.3905865,16.8326239 C49.384837,16.8326239 49.3173527,16.8599375 49.2406197,16.8933208 C49.1171708,16.9470288 48.8655789,17.0148364 48.8161198,17.0077295 C48.8061743,17.0063003 48.7603668,16.9963336 48.714327,16.9855815 L48.714327,16.9855815 Z M49.1464111,16.7682703 C49.21028,16.7368708 49.2813668,16.6899536 49.3043802,16.6640103 C49.3614803,16.5996433 49.4639777,16.268311 49.5170289,15.9766022 C49.5311704,15.8988356 49.5269021,15.8935407 49.4291814,15.8676548 C49.3455634,15.845505 49.3096833,15.8482823 49.2361837,15.8825942 C49.0723645,15.9590679 48.909802,16.2185008 48.8255002,16.5379967 C48.7447595,16.8439987 48.8454324,16.9162388 49.1464111,16.7682703 Z M21.1601217,16.9278225 C21.1524336,16.896407 21.1984355,16.660264 21.2623483,16.4030603 C21.3883605,15.8959496 21.387296,15.8547446 21.2491887,15.8937095 C21.1808836,15.9129811 21.1731163,15.9092838 21.1731163,15.857498 C21.1731163,15.809151 21.1971132,15.7929317 21.3214987,15.7572078 C21.4031089,15.7337689 21.5105248,15.7119684 21.5602007,15.7087624 C21.6452253,15.7032746 21.6510063,15.7079246 21.6588075,15.7880862 C21.6633656,15.8349204 21.6188543,16.0669666 21.5598938,16.3037442 C21.5009334,16.5405216 21.4595972,16.7519487 21.4680359,16.7735817 C21.4802564,16.8049107 21.5073644,16.8093764 21.6012486,16.7955263 C21.7135627,16.7789575 21.7187184,16.78088 21.7106252,16.8363153 C21.7039295,16.8821782 21.6720889,16.9037373 21.5602007,16.9381662 C21.4821387,16.9621867 21.3633316,16.9825379 21.2961849,16.9833909 C21.1902797,16.9847364 21.1722472,16.9773718 21.1601217,16.9278225 L21.1601217,16.9278225 Z M22.1522224,16.938073 L22.0933858,16.8912043 L22.2933048,16.0271849 C22.40326,15.5519745 22.4894157,15.1303916 22.4847619,15.0903343 C22.476085,15.0156493 22.4667369,15.0117989 22.3666263,15.0416753 C22.3171123,15.0564522 22.3085637,15.0495831 22.3085637,14.9950201 C22.3085637,14.9210812 22.3991961,14.8853611 22.6504882,14.8602609 C22.7944515,14.8458811 22.7988705,14.8472717 22.7988705,14.9069588 C22.7988705,14.9407944 22.7582266,15.1496626 22.7085508,15.3711105 C22.658875,15.5925586 22.6182311,15.7885841 22.6182311,15.8067228 C22.6182311,15.8313501 22.6466018,15.8273568 22.7302528,15.7909554 C23.0176446,15.665894 23.2681656,15.6725074 23.3580966,15.8075294 C23.4423001,15.9339522 23.3987023,16.2611216 23.2619131,16.5293143 C23.1907371,16.6688639 22.9789579,16.8860494 22.8639347,16.9374518 C22.7128371,17.0049756 22.2367299,17.0053912 22.1522224,16.9380738 L22.1522224,16.938073 Z M22.8052223,16.7770969 C22.934606,16.6870214 23.0788408,16.3826114 23.1195203,16.1137662 C23.1602741,15.8444276 22.9793142,15.790698 22.6902763,15.9863175 C22.6292259,16.0276363 22.5802404,16.0891552 22.5549596,16.1562563 C22.508172,16.2804419 22.4117862,16.6857206 22.4117862,16.7582661 C22.4117862,16.8650879 22.6616545,16.8770471 22.8052223,16.7770969 Z M23.7907635,16.9070928 C23.7208638,16.8352978 23.7150929,16.8150637 23.7165496,16.6468831 C23.7202615,16.2183538 23.967902,15.8348219 24.309042,15.7292636 C24.4792461,15.6765979 24.6289706,15.6944488 24.7293315,15.7793729 C24.7872122,15.828351 24.7988062,15.858961 24.7988062,15.9627987 C24.7988062,16.2241576 24.5565241,16.4224047 24.2078466,16.4463508 C24.1070816,16.4532709 24.0161059,16.4716145 24.0056784,16.4871139 C23.9766277,16.5302952 23.9824053,16.6770578 24.0155978,16.7390941 C24.0799906,16.8594425 24.1723688,16.8622639 24.3936303,16.7506398 C24.5314837,16.6810945 24.5598469,16.6743435 24.580326,16.7062041 C24.6259333,16.7771573 24.6048111,16.7994402 24.4041241,16.8920865 C24.2370062,16.9692358 24.174532,16.9849418 24.0347709,16.9849418 C23.8807363,16.9849418 23.8601682,16.9783796 23.7907635,16.9070928 Z M24.2528733,16.2975147 C24.4724125,16.2375446 24.6172347,16.0066517 24.5047297,15.8959748 C24.4337856,15.8261835 24.3681818,15.8284738 24.277034,15.9039235 C24.2044374,15.9640169 24.0864755,16.1544303 24.0516248,16.2677784 C24.0369298,16.3155714 24.0438266,16.3248745 24.0938639,16.3247559 C24.126755,16.3246798 24.1983091,16.3124195 24.2528733,16.2975147 Z M25.1213764,16.9762929 C25.1213764,16.9720701 25.1677556,16.7752275 25.2244412,16.5388646 C25.2811269,16.3025018 25.327577,16.0591026 25.3276637,15.9979775 L25.3278186,15.886841 L25.2245961,15.9030789 C25.1330986,15.9174722 25.1213736,15.913554 25.1213736,15.8685847 C25.1213736,15.8129095 25.2048099,15.7702737 25.4142643,15.7189182 C25.5575621,15.6837833 25.6116804,15.7078805 25.6116804,15.8068216 L25.6116804,15.8664139 L25.7032695,15.8052697 C25.8643667,15.6977226 25.9627752,15.6780112 26.0796839,15.7298729 C26.1356811,15.7547139 26.1779396,15.7873742 26.1735916,15.8024513 C26.1035234,16.0454194 26.0636648,16.1218071 26.0069549,16.1218071 C25.956227,16.1218071 25.9471535,16.1087971 25.9471535,16.0360633 C25.9471535,15.8513748 25.7838343,15.850056 25.6653902,16.0337887 C25.5915894,16.1482695 25.5152892,16.408613 25.45471,16.7526494 C25.4366404,16.855269 25.4094069,16.9428332 25.3941914,16.9472367 C25.3487864,16.9603775 25.1213736,16.984598 25.1213736,16.9762934 L25.1213764,16.9762929 Z M26.415846,16.9518271 C26.3873618,16.9180635 26.4030069,16.8268264 26.5505578,16.1662331 L26.6115135,15.8933303 L26.5244885,15.8933303 C26.4766244,15.8933303 26.4374631,15.8868674 26.4374631,15.8789682 C26.4374631,15.8392704 26.4952373,15.7663987 26.5267108,15.7663987 C26.5896247,15.7663987 26.7104386,15.6461935 26.7611239,15.5331668 C26.8177846,15.406815 26.8403121,15.3865271 26.9245442,15.3859927 C26.9799825,15.3856423 26.9842277,15.3934791 26.9690179,15.4681095 C26.9597697,15.5134876 26.9452215,15.5934544 26.9366884,15.6458137 L26.9211735,15.7410124 L27.040597,15.7410124 C27.1625758,15.7410124 27.1805355,15.7604263 27.1443568,15.8531745 C27.1330937,15.8820491 27.0940061,15.8933303 27.0052234,15.8933303 C26.8617713,15.8933303 26.8853192,15.8425742 26.7708552,16.3984976 C26.6867702,16.8068791 26.6924451,16.8445085 26.8321733,16.8050861 C26.9487778,16.7721877 26.9581669,16.7749129 26.9489189,16.8389705 C26.9426637,16.8822983 26.9095192,16.9063249 26.8116446,16.9384805 C26.6536528,16.9903869 26.4540546,16.9971175 26.415846,16.9518271 Z M27.4567653,16.9190559 C27.2679071,16.7185858 27.4045732,16.1484711 27.7052347,15.8825429 C27.8279103,15.7740392 28.0194566,15.6902398 28.1447956,15.6902398 C28.2241396,15.6902398 28.3989549,15.7702229 28.4252487,15.8185551 C28.4668415,15.8950091 28.4538847,16.0776354 28.4007909,16.1632926 C28.2919857,16.3388299 28.057449,16.4518292 27.8019165,16.4518292 L27.6503273,16.4518292 L27.6503273,16.5858052 C27.6503273,16.8458793 27.760194,16.8915194 28.0489968,16.7514184 C28.1410648,16.7067552 28.2214685,16.6753397 28.2276716,16.681606 C28.2338748,16.6878721 28.2429571,16.7158468 28.2478547,16.7437718 C28.2550016,16.7845211 28.2191284,16.8133381 28.0661426,16.8897431 C27.9004808,16.9724786 27.8521771,16.9849418 27.6971803,16.9849418 C27.5383459,16.9849418 27.5120446,16.9777338 27.4567653,16.9190559 L27.4567653,16.9190559 Z M27.9109842,16.2956285 C28.0473424,16.2501298 28.1429701,16.1732804 28.1842921,16.0759896 C28.2190543,15.9941442 28.2180877,15.9816249 28.1723322,15.9210991 C28.1014083,15.8272797 28.0317706,15.826692 27.9248888,15.9190098 C27.8424301,15.9902329 27.7019386,16.229014 27.7019386,16.2979384 C27.7019386,16.3333518 27.8012151,16.3322543 27.9109842,16.2956282 L27.9109842,16.2956285 Z M37.6026955,16.9680175 C37.5662554,16.9321697 37.5898868,16.7823729 37.7136733,16.2645391 C37.8820715,15.5600826 37.972576,15.1453325 37.972576,15.0780778 C37.972576,15.0299407 37.9619936,15.0252417 37.8822563,15.0379712 C37.8000636,15.0510924 37.7919366,15.0469107 37.7919366,14.9914985 C37.7919366,14.9279873 37.856317,14.899874 38.1127415,14.8514112 C38.2451726,14.8263826 38.2822434,14.8428959 38.2822434,14.9269155 C38.2822434,14.9648611 38.1952261,15.3663294 38.0888713,15.8190672 C37.9825165,16.2718047 37.8954226,16.6809069 37.8953292,16.7281825 L37.8951485,16.8141388 L38.0130356,16.7982432 C38.1238738,16.783298 38.1304315,16.7857003 38.1227095,16.8384201 C38.1163592,16.8817741 38.0823025,16.9043991 37.9725654,16.9381662 C37.8275989,16.982774 37.6336003,16.9984305 37.6026849,16.9680175 L37.6026955,16.9680175 Z M38.5754773,16.9539354 C38.5438149,16.9035367 38.5619247,16.7936 38.6718185,16.3690995 C38.7290499,16.1480243 38.7715345,15.9476803 38.7662289,15.9238908 C38.756045,15.878228 38.7495956,15.8771975 38.6370707,15.9032523 C38.5771289,15.9171315 38.5661053,15.9115206 38.5661053,15.8671324 C38.5661053,15.8066142 38.6762504,15.7528498 38.8769347,15.7154093 C39.0202953,15.6886633 39.0822177,15.7023564 39.0822177,15.7608043 C39.0822177,15.7826647 39.0296395,16.0162097 38.9653771,16.2797932 C38.9011146,16.5433768 38.8561958,16.7712276 38.865557,16.7861286 C38.8759776,16.8027152 38.9269729,16.807235 38.9970622,16.7977842 C39.1042678,16.783329 39.1110245,16.7859125 39.1033337,16.8384201 C39.0969834,16.8817741 39.0629267,16.9043991 38.9531896,16.9381662 C38.7852525,16.9898423 38.6028205,16.9974585 38.5754773,16.9539354 L38.5754773,16.9539354 Z M39.528586,16.9426086 C39.5195037,16.9193252 39.5264209,16.8365024 39.5439561,16.7585578 C39.6015225,16.502681 39.7273582,15.9171 39.7273582,15.905089 C39.7273582,15.8986218 39.691669,15.8933303 39.6480493,15.8933303 C39.5360253,15.8933303 39.5569227,15.822374 39.6886722,15.7553968 C39.7671051,15.7155238 39.8123416,15.6648547 39.877164,15.5442685 C39.9509717,15.4069674 39.9722572,15.385604 40.0352503,15.385604 L40.1080448,15.385604 L40.0734418,15.5442685 C40.0544102,15.6315339 40.0384308,15.7115008 40.0379322,15.7219727 C40.0374342,15.7324445 40.0950883,15.7410124 40.1660538,15.7410124 C40.3008667,15.7410124 40.3040243,15.7436782 40.2788169,15.8362111 C40.2652222,15.886115 40.2463885,15.8933303 40.1297187,15.8933303 L39.9961805,15.8933303 L39.9093908,16.3217469 C39.8616564,16.5573761 39.8295939,16.7680914 39.8381412,16.790003 C39.8507019,16.8222033 39.8699903,16.8252415 39.9387318,16.8058469 C40.0569979,16.7724799 40.0628313,16.774178 40.0628313,16.8419716 C40.0628313,16.8935675 40.0415517,16.9079659 39.9127561,16.9435169 C39.7128126,16.9987067 39.5503185,16.9983224 39.528586,16.942608 L39.528586,16.9426086 Z M40.5912961,16.9274496 C40.5270633,16.8730968 40.515922,16.8432772 40.5067179,16.7010763 C40.4860365,16.3815581 40.6347223,16.0208338 40.8554437,15.8550391 C41.0991833,15.671954 41.3653974,15.6476469 41.5149983,15.7948172 C41.5843966,15.8630878 41.5905226,15.8823474 41.5793201,15.9970402 C41.5547596,16.2484934 41.309792,16.4311368 40.9745958,16.4479116 C40.7649659,16.4584022 40.7429121,16.4831767 40.7840316,16.661986 C40.8287938,16.8566365 40.9101259,16.8766148 41.1684221,16.756406 C41.3395151,16.6767808 41.378918,16.6768296 41.378918,16.7566675 C41.378918,16.8378012 41.0692041,16.9681462 40.8479077,16.980146 C40.6832046,16.9890772 40.6580104,16.9839035 40.5912961,16.9274506 L40.5912961,16.9274496 Z M41.1462181,16.2489641 C41.3071389,16.1682024 41.3761978,15.9885536 41.2845987,15.8889826 C41.1693178,15.7636684 40.955905,15.9277919 40.8499376,16.2232554 L40.8109992,16.331825 L40.9273047,16.3161426 C40.9912727,16.3075174 41.0897838,16.2772871 41.1462181,16.2489641 L41.1462181,16.2489641 Z M47.314212,16.9755823 C47.314212,16.9717503 47.3605924,16.7752275 47.4172771,16.5388646 C47.4739617,16.3025018 47.5204118,16.0591026 47.5204995,15.9979775 L47.5207576,15.886841 L47.4175351,15.9030789 C47.3263561,15.9174221 47.3143126,15.9134619 47.3143126,15.8691371 C47.3143126,15.8074933 47.3597254,15.7825251 47.5687741,15.7292357 C47.7504147,15.6829326 47.8046194,15.7007639 47.8046194,15.8068216 L47.8046194,15.8664139 L47.8962088,15.8052697 C48.0568307,15.6980392 48.1557823,15.6780414 48.2715773,15.7294086 C48.3269975,15.7539942 48.3723457,15.7809428 48.3723483,15.7892939 C48.3723509,15.7976452 48.3463259,15.8758772 48.3145153,15.9631426 C48.2667594,16.0941538 48.2465201,16.1218071 48.1983848,16.1218071 C48.1493722,16.1218071 48.1400925,16.1081592 48.1400925,16.0360633 C48.1400925,15.8625402 47.9884432,15.8495945 47.8752159,16.0134517 C47.7891154,16.1380488 47.7450575,16.2732745 47.6744791,16.6295334 C47.6426711,16.7901018 47.6095857,16.9285714 47.6009589,16.9372434 C47.5854729,16.9528095 47.3143126,16.9890772 47.3143126,16.9755823 L47.314212,16.9755823 Z M50.2905524,16.9452294 C50.2693814,16.8909497 50.2938245,16.7345898 50.3934884,16.2868181 L50.4782444,15.9060234 L50.4058571,15.8980684 C50.3192637,15.8885523 50.3046397,15.8042081 50.3852203,15.7790485 C50.4759348,15.7507244 50.580703,15.6460513 50.6313259,15.5331668 C50.6879848,15.406815 50.7105131,15.3865271 50.7947452,15.3859927 C50.8501834,15.3856423 50.8544284,15.3934791 50.8392186,15.4681095 C50.8299699,15.5134876 50.8154232,15.5934544 50.8068893,15.6458137 L50.791375,15.7410124 L50.9107982,15.7410124 C51.0327762,15.7410124 51.050737,15.7604263 51.0145575,15.8531745 C51.0032933,15.8820491 50.9642081,15.8933303 50.8754239,15.8933303 C50.731973,15.8933303 50.7555207,15.8425742 50.6410572,16.3984976 C50.5569722,16.8068791 50.5626469,16.8445085 50.702374,16.8050861 C50.8189793,16.7721877 50.8283673,16.7749129 50.8191212,16.8389705 C50.8128659,16.8822983 50.7797212,16.9063249 50.6818456,16.9384805 C50.5100524,16.9949209 50.3112743,16.9983495 50.2905524,16.9452294 L50.2905524,16.9452294 Z M51.3317447,16.9192333 C51.1361226,16.7267909 51.271357,16.1514941 51.5754349,15.8825429 C51.6981123,15.7740392 51.8896571,15.6902398 52.0149976,15.6902398 C52.0943395,15.6902398 52.2691545,15.7702229 52.2954505,15.8185551 C52.3370414,15.8950091 52.324087,16.0776354 52.2709919,16.1632926 C52.1616793,16.3396498 51.9276378,16.4518292 51.6690164,16.4518292 L51.5143246,16.4518292 L51.5257746,16.6075585 C51.5439598,16.8548676 51.6363259,16.8886423 51.9191968,16.7514184 C52.0112661,16.7067552 52.0916686,16.6753397 52.0978723,16.681606 C52.104076,16.6878721 52.113157,16.7158468 52.1180549,16.7437718 C52.125203,16.7845211 52.0893307,16.8133381 51.9363446,16.8897431 C51.772177,16.9717322 51.7216393,16.9849418 51.5721318,16.9849418 C51.4197935,16.9849418 51.3903596,16.9768966 51.3317447,16.9192333 L51.3317447,16.9192333 Z M51.8727286,16.2576277 C52.0532312,16.1693772 52.134106,15.9647486 52.0215883,15.8809905 C51.9468552,15.8253612 51.8926608,15.8347331 51.7934279,15.9204462 C51.7103983,15.9921615 51.5721395,16.2301056 51.5721395,16.3012817 C51.5721395,16.3432989 51.7504745,16.3173995 51.8727286,16.2576277 Z M52.6559757,16.9631131 C52.6559757,16.9524229 52.7031019,16.7465493 52.7607,16.5056162 C52.8183008,16.2646833 52.8618477,16.0312112 52.8574711,15.9867897 C52.8500159,15.9110895 52.8436186,15.9063545 52.7554718,15.9113002 C52.6817322,15.9154379 52.6586233,15.906029 52.6484404,15.8677256 C52.6378756,15.8279816 52.6602207,15.8098844 52.768292,15.7706545 C52.8413529,15.7441336 52.9446838,15.7146716 52.9979182,15.7051834 C53.0979795,15.687349 53.0962866,15.6859822 53.1588988,15.8350199 C53.1600859,15.8378553 53.2290488,15.8064398 53.3121429,15.7652076 C53.4899591,15.6769729 53.5197724,15.6745348 53.627885,15.7393861 L53.7095005,15.7883429 L53.6536907,15.9544623 C53.6071244,16.0930675 53.5882631,16.1206835 53.5398182,16.1211945 C53.4912081,16.1217073 53.4817555,16.1081673 53.4817555,16.0380323 C53.4817555,15.8168263 53.2677469,15.8605784 53.1506075,16.1057325 C53.1211762,16.167326 53.0628787,16.37968 53.0210555,16.5776303 C52.9792323,16.7755803 52.9409445,16.9408927 52.9359744,16.9449906 C52.9132629,16.9637107 52.6559757,16.9803631 52.6559757,16.9631131 L52.6559757,16.9631131 Z M53.9462567,16.9632146 C53.9462567,16.9517926 53.9876877,16.7835095 54.038326,16.5892521 C54.0936275,16.3771096 54.132274,16.165089 54.1350971,16.058353 L54.1397989,15.8806488 L54.0462251,15.8877016 C53.9726739,15.8932455 53.9499289,15.8845083 53.9399214,15.8468665 C53.9295192,15.8077314 53.9513379,15.7917442 54.0593008,15.7593977 C54.2939101,15.689107 54.3491754,15.6840676 54.3946629,15.7288171 C54.4177074,15.7514881 54.4365635,15.7977805 54.4365635,15.8316895 C54.4365635,15.8655983 54.4413273,15.893342 54.447149,15.893342 C54.4529708,15.893342 54.5296031,15.8599054 54.6174455,15.8190388 C54.8254388,15.7222717 55.1011176,15.6715133 55.1834014,15.7148345 C55.2370978,15.7431058 55.2409377,15.7577092 55.2252478,15.8740524 C55.2157488,15.944503 55.1739927,16.1404536 55.132456,16.309498 C55.0909193,16.4785427 55.0537979,16.6568353 55.0499657,16.705704 C55.0429956,16.7945452 55.0430085,16.7945558 55.1515599,16.7924457 C55.2257588,16.7910038 55.2648285,16.8023928 55.274983,16.8284235 C55.2954417,16.8808675 55.2710606,16.8979556 55.1092774,16.9445691 C54.9257504,16.9974478 54.7567881,16.9978644 54.7363578,16.9454881 C54.7278909,16.9237826 54.7672935,16.7024954 54.8239162,16.453739 C54.9374507,15.9549769 54.9439692,15.8982024 54.8900431,15.8778451 C54.8343804,15.8568326 54.636939,15.9520917 54.5191235,16.0568019 C54.4221459,16.1429899 54.409736,16.1697776 54.3501895,16.4214171 C54.314841,16.5707932 54.2777145,16.7481819 54.2676838,16.815614 C54.2576532,16.8830464 54.2363893,16.9420511 54.2204286,16.9467359 C54.1421627,16.9697087 53.9462567,16.9814829 53.9462567,16.9632139 L53.9462567,16.9632146 Z M55.7161766,16.9434468 C55.7072711,16.9206182 55.7533367,16.6854472 55.8185475,16.4208447 C55.8837557,16.1562419 55.9310522,15.9242211 55.9236486,15.9052428 C55.9133367,15.8788091 55.8902923,15.8763504 55.8251382,15.8947326 C55.7783604,15.9079302 55.7371075,15.9187283 55.7334663,15.9187283 C55.7298252,15.9187283 55.7268446,15.8922549 55.7268446,15.8598985 C55.7268446,15.810972 55.749649,15.7942841 55.8623241,15.7607627 C56.1680769,15.6697992 56.2625254,15.6852303 56.2316439,15.8211014 C56.2242015,15.8538525 56.1710187,16.0740897 56.1134619,16.3105175 C56.0559024,16.5469453 56.0152715,16.7569524 56.0231706,16.7771997 C56.034138,16.8053163 56.0652595,16.8102743 56.1549083,16.7981861 C56.2652041,16.7833143 56.2717897,16.785743 56.2640738,16.8384318 C56.2481775,16.9469542 55.7544566,17.0415852 55.7161766,16.9434468 Z M56.6897762,16.9437768 C56.6725639,16.8996496 56.693469,16.7784444 56.7943251,16.3376029 C56.9058338,15.8501979 56.9042313,15.8933425 56.8108381,15.8933425 C56.6973657,15.8933425 56.7162554,15.823307 56.8480395,15.755409 C56.923859,15.7163453 56.970624,15.6640403 57.0311304,15.5506272 C57.0972083,15.426774 57.1258706,15.3967438 57.1845139,15.3899321 C57.2628391,15.3808339 57.2634068,15.3872838 57.2081286,15.6585191 L57.1913136,15.7410246 L57.3263286,15.7410246 C57.4388412,15.7410246 57.4587321,15.7477167 57.4456796,15.7811804 C57.4370632,15.803266 57.4300156,15.8375375 57.4300156,15.8573393 C57.4300156,15.8839536 57.3938465,15.8933425 57.291313,15.8933425 L57.1526129,15.8933425 L57.0674002,16.3202852 C57.0205346,16.5551035 56.9894414,16.7658188 56.9983057,16.7885413 C57.0114872,16.8223353 57.0299021,16.8254873 57.0994714,16.8058591 C57.2177386,16.7724921 57.2235707,16.7741902 57.2235707,16.8419838 C57.2235707,16.8935797 57.2022913,16.9079781 57.0734955,16.9435291 C56.8755715,16.9981614 56.7110323,16.9982675 56.6897762,16.9437829 L56.6897762,16.9437768 Z M57.7505911,16.9261882 C57.6766942,16.8636071 57.675169,16.85724 57.675169,16.6112738 C57.675169,16.3720083 57.6797418,16.3511318 57.7726601,16.166238 C57.8866564,15.9394047 58.0174754,15.8166755 58.2277732,15.7392719 C58.5940788,15.6044462 58.8571801,15.8334886 58.6950743,16.146079 C58.6034153,16.3228276 58.3589303,16.4504088 58.1102105,16.4512839 C57.960814,16.4518094 57.9507473,16.4556689 57.9346988,16.5185655 C57.9131253,16.6031278 57.9400844,16.7306369 57.9917085,16.78821 C58.0503854,16.8536483 58.1512905,16.8427015 58.3313054,16.7513684 C58.4655488,16.6832597 58.4953207,16.6760662 58.5151756,16.7069423 C58.5608773,16.7780123 58.5382122,16.8053435 58.3654694,16.887455 C58.232475,16.950673 58.1480906,16.9725956 58.0086473,16.9801572 C57.8430578,16.9891363 57.8189734,16.9840992 57.7505911,16.9261882 L57.7505911,16.9261882 Z M58.3126608,16.2427957 C58.4870371,16.1463831 58.545234,15.9567613 58.4243578,15.8788479 C58.3766949,15.8481239 58.3426108,15.8436881 58.2888783,15.8612158 C58.1978748,15.8909026 58.06791,16.056856 58.0141801,16.2119816 L57.972713,16.331706 L58.0911711,16.3157331 C58.1563252,16.306948 58.2559942,16.2741262 58.3126608,16.2427957 L58.3126608,16.2427957 Z M19.2940797,16.9158392 C19.2988767,16.8913351 19.3258932,16.8671198 19.3541165,16.8620276 C19.4307422,16.8482017 19.4976969,16.7813468 19.5499848,16.6664517 C19.6193413,16.51405 19.8333574,15.4541811 19.8391438,15.2344536 C19.8440788,15.0470465 19.8433287,15.0447232 19.7612526,14.9932837 C19.6011328,14.8929311 19.6439201,14.8778777 20.0892802,14.8778777 C20.442098,14.8778777 20.5021702,14.8835102 20.5021702,14.9165919 C20.5021702,14.9393852 20.4700091,14.9616338 20.4239649,14.9706929 C20.259394,15.0030724 20.1969304,15.1628889 20.0415579,15.9491048 C19.8963626,16.6838228 19.8977839,16.6696255 19.9630017,16.7337835 C20.0125581,16.7825344 20.0395252,16.7867074 20.2406751,16.7767504 C20.5112349,16.7633576 20.6089799,16.7185619 20.7034819,16.5646495 C20.777928,16.4434014 20.7808913,16.4413619 20.8342707,16.4746279 C20.8638974,16.4930911 20.8627885,16.5166128 20.8274069,16.6202102 C20.8041968,16.6881692 20.7589013,16.7894671 20.7267498,16.845317 L20.6682923,16.9468623 L19.9768253,16.9536272 C19.3293395,16.9599619 19.2859128,16.9575583 19.2940797,16.9158392 L19.2940797,16.9158392 Z M32.3469505,16.9235668 C32.3469505,16.9037728 32.3904974,16.8666453 32.4437215,16.8410613 C32.5111552,16.8086465 32.5576477,16.7599116 32.5970792,16.680306 C32.671011,16.5310505 32.8945037,15.4499152 32.8986008,15.2217097 C32.901697,15.0492574 32.8998292,15.043907 32.8188971,14.9932329 C32.6457158,14.8848003 32.6848635,14.8778777 33.471234,14.8778777 C34.1926323,14.8778777 34.2080878,14.878949 34.1923185,14.9278256 C34.1834555,14.9552971 34.1617166,15.0552557 34.1440101,15.1499558 C34.1167026,15.2960048 34.1032176,15.3233695 34.0551634,15.3302504 C34.0090753,15.3368498 33.9985102,15.3258865 33.9985102,15.2714623 C33.9985102,15.1029355 33.8968609,15.0555819 33.5351004,15.0555819 L33.2858372,15.0555819 L33.2142676,15.3792574 C33.174904,15.557279 33.13706,15.7229246 33.1301694,15.747359 C33.1189169,15.7872617 33.1408083,15.7917469 33.3451793,15.7914108 C33.6021516,15.7909869 33.6778966,15.7640134 33.7533065,15.6460666 C33.8204094,15.5411124 33.9079426,15.5326743 33.8876018,15.6331206 C33.8798263,15.6715174 33.8528982,15.8086035 33.8277614,15.9377563 C33.7917122,16.1229779 33.7728945,16.1725797 33.7386763,16.1725797 C33.7112965,16.1725797 33.6896864,16.1449965 33.6800916,16.0978013 C33.6717128,16.0565889 33.6384106,16.0090109 33.6059004,15.9918066 C33.5439736,15.9590351 33.1381611,15.9444309 33.1081048,15.9738922 C33.09074,15.990913 33.0145452,16.3567833 32.9811197,16.5836463 C32.9650524,16.6926988 32.9691604,16.7063752 33.0297091,16.7454036 C33.0829015,16.7796901 33.1400026,16.7858521 33.3213811,16.7768793 C33.5906658,16.7635579 33.6863484,16.7212876 33.7970979,16.5667192 C33.8450148,16.4998433 33.8903542,16.4613018 33.9116514,16.4693414 C33.961851,16.488292 33.9559157,16.5336807 33.8798152,16.7128038 C33.7669592,16.9784403 33.8312565,16.9595554 33.0397026,16.9595554 C32.4590134,16.9595554 32.3469505,16.9537339 32.3469505,16.9235668 L32.3469505,16.9235668 Z M45.4562072,16.9240897 C45.4562072,16.9038741 45.493948,16.8746781 45.5400755,16.8592092 C45.7029864,16.8045768 45.7568298,16.6597918 45.9198156,15.8380693 C46.0601723,15.1304383 46.056735,15.017259 45.8933287,14.9662389 C45.8642457,14.9571582 45.844956,14.9364181 45.8504629,14.9201498 C45.8576859,14.8988034 46.0597027,14.8886921 46.5763106,14.8838197 C47.279955,14.8771834 47.2918695,14.8779257 47.275901,14.9274212 C47.2669645,14.9551151 47.245169,15.055256 47.2274612,15.1499561 C47.2001537,15.296005 47.1866677,15.3233697 47.1386151,15.3302507 C47.0907947,15.3370981 47.0819614,15.3262137 47.0819614,15.2604383 C47.0819614,15.1001656 46.9561074,15.0472811 46.606209,15.0605244 L46.4014181,15.0682753 L46.3296759,15.3982974 C46.2902191,15.5798096 46.2575415,15.7425993 46.2570589,15.7600524 C46.2557686,15.8069125 46.650094,15.8027438 46.7441348,15.754903 C46.7840097,15.7346178 46.8312933,15.6832106 46.8492076,15.6406646 C46.8691631,15.5932681 46.900553,15.5633085 46.9302579,15.5633085 C46.9903256,15.5633085 46.9907256,15.5448902 46.9232259,15.886984 C46.8759112,16.1267935 46.859295,16.17258 46.8195853,16.17258 C46.791003,16.17258 46.7722939,16.1542445 46.7722939,16.1262324 C46.7722939,16.0077723 46.5310449,15.9196912 46.3080844,15.9567478 L46.209463,15.973139 L46.1571189,16.2569103 C46.0648096,16.7573169 46.0687037,16.8026467 46.2088901,16.8597707 C46.3631923,16.9226458 46.2741164,16.9467021 45.8605246,16.9538537 C45.5215368,16.9597154 45.4562072,16.9549072 45.4562072,16.9240897 L45.4562072,16.9240897 Z M30.3184766,16.3779921 C30.2030506,16.3264248 30.1018614,16.1670493 30.1018614,16.036818 C30.1018614,15.8351499 30.2830641,15.6548048 30.4849851,15.655508 C30.7264767,15.6563483 30.8757593,15.8014658 30.8759335,16.0355477 C30.8761658,16.3329941 30.5989362,16.5032888 30.3184766,16.3779921 Z M43.4531514,16.3899736 C43.4088561,16.3710085 43.3395757,16.3128797 43.2991951,16.2607982 C43.2393235,16.1835758 43.2261342,16.1417836 43.2277135,16.0342837 C43.2311405,15.8010503 43.3785654,15.6576006 43.614834,15.6576006 C43.7319063,15.6576006 43.770896,15.6701188 43.8508264,15.733366 C44.02896,15.8743197 44.0566468,16.1106409 43.9144992,16.2768299 C43.7950243,16.416511 43.6170661,16.4601546 43.4531514,16.3899736 Z M28.0249765,15.4876577 C27.9742178,15.4324814 27.970564,15.4382621 28.2638286,15.1097672 L28.3627687,14.9989413 L28.5097578,15.0313014 C28.5906016,15.0490995 28.6567466,15.0713308 28.6567466,15.0807045 C28.6567466,15.0978308 28.1042098,15.5379221 28.0827075,15.5379221 C28.0763874,15.5379221 28.0504084,15.5153032 28.0249765,15.4876577 L28.0249765,15.4876577 Z M41.1536721,15.4876324 L41.0964208,15.4420264 L41.291221,15.2234218 C41.398361,15.1031891 41.4958745,15.0048172 41.5079177,15.0048172 C41.5708566,15.0048172 41.7920642,15.0672134 41.7859818,15.083251 C41.7795769,15.1001362 41.2988081,15.4804782 41.2368581,15.5176689 C41.222594,15.526232 41.1851604,15.5127156 41.1536721,15.4876324 L41.1536721,15.4876324 Z M58.3083513,15.4878608 L58.2460823,15.4416544 L58.4476526,15.223237 C58.5585161,15.1031074 58.6585232,15.0048195 58.669888,15.0048195 C58.7209496,15.0048195 58.9524209,15.0658253 58.9513164,15.0789919 C58.9501551,15.0927206 58.4628702,15.4795138 58.3995483,15.5169599 C58.3836392,15.5263688 58.3426005,15.5132743 58.3083513,15.4878608 Z M21.4800959,15.3575732 C21.3752262,15.2544078 21.4775708,15.0555819 21.6355443,15.0555819 C21.7454076,15.0555819 21.8027735,15.1122886 21.8027735,15.2208892 C21.8027735,15.3903061 21.6004763,15.4759978 21.4800959,15.3575732 L21.4800959,15.3575732 Z M38.8951269,15.3756513 C38.8317037,15.3282886 38.8354623,15.1713963 38.9015783,15.1063546 C39.008017,15.0016454 39.2112458,15.0699894 39.2112458,15.2104933 C39.2112458,15.3626596 39.0150157,15.4651812 38.8951269,15.3756513 L38.8951269,15.3756513 Z M56.0338231,15.3575732 C55.927122,15.2526054 56.0317587,15.0555819 56.1942051,15.0555819 C56.3563134,15.0555819 56.4257666,15.2334595 56.3086453,15.3486783 C56.2291459,15.4268857 56.1082594,15.4307982 56.0338231,15.3575732 L56.0338231,15.3575732 Z M33.4255266,14.6319235 C33.3861049,14.5886956 33.3955087,14.5731793 33.5821851,14.3734354 L33.7807828,14.1609358 L33.9283548,14.1934244 C34.0095197,14.2112931 34.0753421,14.232663 34.074627,14.240913 C34.0725342,14.2650537 33.5543173,14.6555685 33.5088545,14.667264 C33.4860906,14.6731204 33.448593,14.6572169 33.4255266,14.6319235 Z" id="path8" fill="#005AFE"></path>
                        <path d="M42.0048099,13.200883 L42.0632947,13.0477215 C42.1623983,12.7710358 42.265182,12.5598689 42.4135183,12.3282028 C42.5706555,12.0827903 42.9165399,11.7212968 43.0604214,11.6521051 C43.2372566,11.5670678 43.4570899,11.5371277 43.7289404,11.5610571 C43.9623851,11.5816061 44.67964,11.7003823 44.9690698,11.7664202 C45.1893498,11.8166806 45.5118925,11.82149 45.6636657,11.7767768 C45.9560999,11.6906246 46.1293484,11.5240886 46.211567,11.2500979 C46.2746392,11.0399114 46.2740376,10.848885 46.2099126,10.7214901 C46.1237709,10.5503747 46.1384378,10.5058697 46.3477835,10.3031392 C46.4511866,10.2030041 46.5359271,10.1104179 46.5360975,10.0973925 C46.5369749,10.0296151 46.393712,9.75746593 46.3568278,9.75685259 C46.334227,9.75647688 46.2895794,9.73470481 46.2576084,9.70847009 L46.1994795,9.66077022 L46.3237664,9.59642404 C46.4934729,9.50856252 46.6193464,9.37193312 46.6193464,9.27558572 C46.6193464,9.23396232 46.5835903,9.13192228 46.5398902,9.0488306 C46.4560246,8.88937637 46.4335893,8.73701914 46.4808063,8.6476088 C46.5120052,8.58853586 46.5658049,8.56369307 46.8300783,8.48633183 C47.0521507,8.42132485 47.1324391,8.35542756 47.1640968,8.21217894 C47.1911822,8.08963286 47.1778739,8.01086903 47.1052084,7.86363374 C47.0460467,7.74375576 46.6607503,7.14596799 46.5485184,6.99992586 C46.3977002,6.80367544 46.2139735,6.46462041 46.1596349,6.28226316 C46.1060708,6.10251105 46.1057123,6.09232251 46.1447949,5.85996437 C46.2274147,5.36877094 46.1791047,4.96152827 45.9440148,4.16747281 C45.7692999,3.57733419 45.7223812,3.4340711 45.6676715,3.32366171 C45.5687579,3.12405141 45.5819735,3.07732257 45.7849069,2.90907173 C45.8820406,2.82853746 45.9722834,2.74225624 45.9854438,2.71733602 C46.0467236,2.60130279 45.9782369,2.3777269 45.8621271,2.31475397 C45.7884338,2.27478515 45.747411,2.30222437 45.6725922,2.44153433 C45.6159022,2.5470855 45.59368,2.56707316 45.5330093,2.56707316 C45.4342536,2.56707316 45.416937,2.52512126 45.4800067,2.43867088 C45.5535395,2.33788052 45.5477163,2.3217185 45.4322056,2.30601783 C45.345743,2.29426531 45.3000401,2.26004824 45.1125959,2.06673088 C44.8612906,1.80755152 44.6924695,1.6881143 44.3559325,1.53140862 C44.2016555,1.4595715 44.1479237,1.42556985 44.2045232,1.43559826 C44.252778,1.44414807 44.4233915,1.45780996 44.5836671,1.46595798 C45.0487391,1.48960122 45.1617857,1.42737619 45.2701697,1.08808034 C45.3437577,0.857713817 45.3790526,0.751172968 45.2101934,0.590334273 L44.590417,0 L76.9703271,0 L76.9703271,13.200883 L42.0048099,13.200883 Z" id="path10" fill="#ED3744"></path>
                        <path d="M29.7970178,13.200883 C29.6931205,13.190155 29.6030338,13.1854933 29.5968247,13.1793813 C29.5858997,13.1686266 29.7032448,13.0944166 30.2406554,12.7722171 C30.4130302,12.6688714 30.4839479,12.6134757 30.4600024,12.6008793 C30.4405398,12.5906412 30.2900762,12.5744117 30.1256384,12.5648134 C29.8813405,12.5505532 29.8105471,12.5546452 29.7385551,12.5871872 C29.6900973,12.609091 29.496711,12.6667024 29.3088082,12.7152126 C28.8427687,12.8355277 28.6859405,12.9181285 28.5362991,13.1220895 L28.4803858,13.200883 L3.55271368e-15,13.200883 L3.55271368e-15,0 L37.5208008,0 L37.1676289,0.226794013 C36.9731968,0.321756114 36.747244,0.453646796 36.6655109,0.519884409 C36.3882605,0.744573187 36.01492,1.25571559 35.9216961,1.53824482 C35.8874317,1.64208802 35.8563248,1.68101225 35.7511912,1.7515995 C35.5907612,1.85931249 35.3985883,2.06472302 35.2394644,2.2985757 C35.0233962,2.61611444 34.6115599,3.33173786 34.53064,3.53025781 C34.4051077,3.83822451 34.4165115,4.07273109 34.6017747,4.99307558 C34.6833365,5.39825613 34.7715904,5.80978756 34.7978943,5.9075896 C34.8241983,6.0053919 34.8529878,6.17114752 34.8618706,6.27593562 C34.8777312,6.46303148 34.8900939,6.50353636 35.0014344,6.73319263 C35.031916,6.79606539 35.056823,6.86741514 35.0567836,6.89174716 C35.0567319,6.91607944 35.0799369,6.95026541 35.1083231,6.96771647 C35.1377626,6.98581539 35.159934,7.02695746 35.159934,7.06348862 C35.159934,7.1074963 35.2187071,7.19101727 35.3478013,7.33046201 C35.6431384,7.64947937 35.8566838,7.94853573 35.8566838,8.04311853 C35.8566838,8.12079811 35.7408539,8.14087361 35.5542336,8.09553848 C35.3361137,8.0425514 35.1576882,7.92810355 34.8825244,7.66468273 C34.7654316,7.55258717 34.6696288,7.47722308 34.6696288,7.49720744 C34.6696288,7.51719155 34.7499114,7.62141226 34.8480344,7.72880881 C35.0431832,7.94240138 35.0737913,8.00067896 35.0315911,8.07830117 C34.9946738,8.14620651 34.9048512,8.16598042 34.7833397,8.13295257 C34.6431161,8.09483883 34.5609505,8.14796731 34.5840767,8.26179649 C34.5982644,8.33162891 34.5943718,8.33984417 34.554273,8.32469641 C34.4750033,8.29475224 34.3015377,8.26045178 34.1455535,8.24387832 C34.002265,8.22865364 33.9916599,8.22247233 33.9049197,8.10361843 C33.8391874,8.01355084 33.7880435,7.97206529 33.7193422,7.95308597 C33.4632815,7.88234802 32.8263768,7.77331076 32.3987405,7.72700029 C31.6470667,7.64559857 31.4660139,7.63920781 31.1058972,7.68136407 C30.8293505,7.71373746 30.7541503,7.73273632 30.6026891,7.8084967 C30.3345654,7.94261158 29.8697969,8.36285357 29.8697969,8.47117544 C29.8697969,8.52199351 29.9721626,8.50406519 30.0891439,8.43275935 C30.4441453,8.21636819 31.6601669,7.91096525 32.2568099,7.88835113 C32.5524682,7.8771451 32.5364404,7.89107635 32.1817008,7.95363533 C32.0836185,7.97093204 31.8513687,8.02946704 31.6655899,8.08371302 C31.4798111,8.13795901 31.1594289,8.22154751 30.9536299,8.26946519 C30.7478305,8.31738287 30.5155807,8.37915767 30.4375187,8.40674219 L30.2955883,8.45689615 L30.5149356,8.45925454 C31.6325879,8.47126937 32.9066292,8.8203261 33.4251225,9.25657543 C33.648217,9.44428209 33.7299158,9.46706249 34.0580786,9.4330654 C34.5078115,9.3864739 35.0899216,9.17525342 35.3452027,8.96602831 C35.4559831,8.87523416 35.5471128,8.83913609 35.5469523,8.88611194 C35.5466684,8.96908736 35.3999183,9.41514977 35.3364956,9.52581531 C35.2657908,9.64918772 35.2617752,9.66694671 35.2985918,9.69344774 C35.3212401,9.70975057 35.3332699,9.72948869 35.3253243,9.73731021 C35.4491245,9.79472491 35.4278124,9.82029655 35.2926477,9.85439798 C35.160878,9.88764313 35.0567118,9.94585116 35.0567118,9.98623926 C35.1632214,10.0102019 35.1137616,10.0557955 35.0271747,10.0745166 C34.9678894,10.0873349 34.9560428,10.0978098 34.9823109,10.114187 C34.9680052,10.1370319 34.9534896,10.1630059 34.9534896,10.1945246 C34.9534896,10.233767 34.9290862,10.2624649 34.876073,10.285565 C34.7468681,10.3418647 34.7830878,10.3722699 34.959941,10.3559688 C35.0486476,10.3477924 35.1038071,10.3478736 35.0825174,10.3561465 C35.0612278,10.3644225 34.9160717,10.4290626 34.7599482,10.4997917 C34.6038244,10.5705205 34.400606,10.6544817 34.3083511,10.686372 C34.2039183,10.7224721 34.137216,10.7604911 34.1316089,10.7871127 C34.122602,10.8298772 34.1710889,10.8284579 34.293051,10.7823865 C34.3331823,10.8006027 34.0644111,10.953292 33.7362583,11.1279387 C33.4081057,11.3025856 33.1010441,11.4826304 33.0538999,11.5280387 C33.0067556,11.5734469 32.9464349,11.610599 32.9198538,11.610599 C32.8931068,11.610599 32.8581511,11.6394932 32.8415771,11.6753021 C32.7914533,11.7835961 32.8018228,11.796768 32.9213028,11.776576 C33.0988135,11.7465765 33.1801701,11.7482284 33.1919555,11.7820704 C33.1245807,11.8138243 33.0879256,11.8302929 33.0709561,11.8504212 C33.0539863,11.8705493 33.0091746,11.8905545 32.971374,11.8948767 C32.9273937,11.8999055 32.8839363,11.9318491 32.8506863,11.9835885 C32.8221083,12.0280577 32.7755016,12.0703144 32.7471154,12.0774924 C33.9981652,11.995175 34.2144184,11.9528903 34.6825313,11.7193768 C35.0818867,11.5201623 35.496451,11.2240152 35.7913622,10.9272751 C35.8760762,10.8420358 35.9544605,10.7722945 35.9655497,10.7722945 C36.0056493,10.7722945 35.9838952,10.9147858 35.9246862,11.0399533 C35.8222142,11.2565785 35.6072095,11.4561251 35.1652735,11.7447682 C34.9423447,11.8903704 34.7018856,12.0274981 34.6309204,12.0494967 C34.4091959,12.1182286 34.0512515,12.191444 33.6760027,12.24482 C32.4535086,12.4187094 31.9856795,12.5506037 31.5222673,12.8520184 C31.4447093,12.9024643 31.3632944,12.9407431 31.3413451,12.9370829 C31.3193962,12.9334222 31.2609217,12.9645126 31.211402,13.0061725 C31.0721239,13.1233438 31.1730295,13.1035227 31.4618963,12.956967 C31.757915,12.8067828 31.8966955,12.7831157 31.6632824,12.9226234 C31.3770774,13.0936857 31.1589064,13.200883 30.9453112,13.200883 L29.7970178,13.200883 Z M28.6195478,11.5403295 C28.7607523,11.4560175 28.9285394,11.363711 28.992408,11.3352042 C29.056277,11.3066974 29.2362706,11.2266607 29.3923941,11.1573452 C29.7196252,11.0120616 30.1998477,10.8749773 30.2274648,10.9189662 C30.2371665,10.9344186 30.308719,10.9514365 30.3864711,10.9567842 C30.4952965,10.9642688 30.5144729,10.9711503 30.4697757,10.9866786 C30.4378413,10.9977732 30.4117134,11.0169487 30.4117134,11.029291 C30.4117134,11.0752476 30.6532184,11.0614613 30.7548984,11.0097002 C30.7947614,10.9894076 30.8848148,10.9661081 30.9550172,10.9579233 C31.0423018,10.9477469 31.0826575,10.9314073 31.0826575,10.9062426 C31.0826575,10.8775202 31.1048222,10.8731299 31.1836428,10.8862389 C31.2921013,10.9042769 31.5253784,10.860866 32.1535876,10.7057412 C32.5790318,10.6006853 32.9012544,10.4949569 33.1842606,10.3675549 L33.3891556,10.2753165 L33.1842606,10.1461428 C32.6848627,9.83130253 32.1833924,9.63796874 31.0826575,9.3359036 C30.8910512,9.28332296 30.7226701,9.22894421 30.708477,9.21506221 C30.6913606,9.19832095 30.7000496,9.19595698 30.7342826,9.20804188 C30.8441854,9.24683902 30.9278242,9.25427543 30.9278242,9.22524999 C30.9278242,9.18760158 30.8447167,9.15725148 30.6814376,9.13527125 C30.5321012,9.11516808 30.4357043,9.0713117 30.5394507,9.07067323 C30.7000202,9.06968571 30.423986,8.96952325 30.1149495,8.91663797 C29.8861617,8.87748567 29.8729833,8.86910616 29.9685434,8.82354687 C30.0518214,8.78384292 30.1413933,8.63359911 30.1178273,8.57314465 C30.0978225,8.52182621 30.0728714,8.52711926 29.9491257,8.60893224 C29.710546,8.76666553 29.4917133,9.02496568 29.3687348,9.29399917 C29.298583,9.44746655 29.3228725,9.46154732 29.6839471,9.47673493 C29.9796165,9.48917143 29.9843052,9.49029123 29.908505,9.53035895 C29.865926,9.55286646 29.7805164,9.57891408 29.718706,9.58824305 C29.5087759,9.61992618 29.3921689,9.71798031 29.4962396,9.77531301 C29.5271457,9.79233911 29.5148816,9.80669329 29.4389914,9.84231866 C29.353926,9.88225083 29.347944,9.89070422 29.3888159,9.91322086 C29.4143387,9.92728158 29.4885508,9.9346101 29.5537317,9.92950669 C29.6443184,9.92241451 29.6856851,9.93201486 29.7292935,9.97025274 L29.7863451,10.0202775 L29.6718633,10.0917473 C29.6088987,10.1310557 29.5376782,10.1998684 29.5135964,10.2446641 C29.4895144,10.2894597 29.403039,10.3960371 29.3214289,10.4815024 C29.2398189,10.5669677 29.1730469,10.6553664 29.1730469,10.6779437 C29.1730469,10.700521 29.054019,10.8127222 28.90854,10.9272792 C28.5173051,11.2353571 28.3472696,11.4046868 28.3472696,11.4862193 C28.3472696,11.529361 28.3251621,11.568211 28.2863763,11.5932279 C28.1642388,11.6720078 28.1004966,11.76302 28.1674596,11.76302 C28.1821082,11.76302 28.2320555,11.7474059 28.2784529,11.7283222 C28.3248507,11.7092383 28.478343,11.6246417 28.6195478,11.5403295 Z M31.2971687,11.4314935 C31.3938601,11.4187755 31.5058263,11.3892641 31.5459822,11.3659133 L31.618993,11.3234572 L31.4944692,11.2623722 L31.3699452,11.2012869 L31.2456556,11.2508493 C31.1772962,11.2781086 31.082636,11.3148373 31.0353,11.3324686 C30.8449128,11.403382 30.8200685,11.4987066 30.9987894,11.4725541 C31.0662064,11.462689 31.2004771,11.4442115 31.2971687,11.4314935 Z M28.4239564,8.98187115 C28.5990057,8.86245342 28.7223174,8.79341153 28.7284114,8.81140815 C28.7451324,8.86078884 28.8201166,8.84625137 28.9421962,8.76996067 C29.082479,8.68229412 29.1526591,8.59356971 29.3277686,8.28250461 C29.5094342,7.95979304 29.5780759,7.87915163 29.8403155,7.68035649 C29.9629781,7.58736998 30.1436059,7.44854213 30.2417108,7.37184957 C30.3830812,7.26133482 30.4170394,7.24386625 30.4054114,7.28763885 C30.3964044,7.3215438 30.4026228,7.34286855 30.4215161,7.34286855 C30.4801457,7.34286855 30.7563792,7.22680664 30.766104,7.19808685 C30.7813064,7.15319091 30.5006514,7.10683067 30.2930532,7.119946 C30.1336766,7.13001472 30.0772291,7.14821646 29.879468,7.25330919 C29.4147503,7.50026624 29.079052,7.76664558 28.4380321,8.39710021 C27.9767259,8.85080339 27.6133252,9.15501266 27.4296488,9.24123626 C27.3698311,9.26931631 27.3247817,9.32817727 27.2522173,9.47306534 C27.1111829,9.75466632 26.859383,10.1587976 26.6203589,10.4871782 C26.3944593,10.7975277 26.3459732,10.9048872 26.521527,10.7060144 C26.5818474,10.6376815 26.7647442,10.4443198 26.9279643,10.2763218 C27.5030358,9.6844163 27.9088491,9.33327434 28.4239564,8.98187115 Z M33.9341706,12.8827531 C34.4784024,12.8592942 34.5477594,12.8453746 34.8751571,12.6939031 C34.9800529,12.6453728 35.0211917,12.6365478 35.035769,12.659449 C35.0611434,12.6993122 35.2387119,12.604112 35.5857255,12.3645994 C35.7276562,12.2666377 35.928362,12.1414482 36.0317383,12.0864007 C36.1875165,12.0034497 36.2351743,11.9891729 36.3101066,12.0030113 C36.3901136,12.0177866 36.4138042,12.0081952 36.5159738,11.9196644 C36.7991587,11.6742816 37.0409564,11.5608487 37.2824405,11.5600963 C37.3542457,11.5598678 37.379211,11.5703264 37.379211,11.6006174 C37.379211,11.6264673 37.3934083,11.6360767 37.4179195,11.6268176 C37.4898637,11.5996405 37.4572733,11.630724 37.2722589,11.7657422 C37.0580474,11.9220675 37.0791041,11.9690076 37.2968782,11.8206251 C37.5077101,11.6769726 37.5082389,11.676758 37.5082389,11.7348534 C37.5082389,11.7679551 37.4288789,11.8510686 37.2824405,11.9713314 C36.9492651,12.2449512 36.7133473,12.4712423 36.3541862,12.8617071 L36.0328954,13.200883 L31.9471435,13.200883 L32.6826016,13.0554735 C33.3732584,12.9141662 33.449499,12.9036446 33.9341706,12.8827531 Z M32.6912354,7.90497439 C32.7211875,7.87092222 32.7701999,7.87092222 32.8001517,7.90497439 C32.8301037,7.93902792 32.8055975,7.96688904 32.7456937,7.96688904 C32.6857899,7.96688904 32.6612837,7.93902792 32.6912354,7.90497439 Z" id="path12" fill="#0060FA"></path>
                        <path d="M44.726903,6.91818117 C44.6142023,6.90141199 44.6723605,6.86020848 44.8087323,6.86020848 C44.9455406,6.86020848 45.0176541,6.80850874 45.0176541,6.71042796 C45.0176541,6.66431321 45.0074609,6.65674403 44.9637488,6.67040136 C44.9260393,6.68218365 44.8991911,6.67226979 44.8743841,6.63740575 C44.8512161,6.60484577 44.7951973,6.58185821 44.712795,6.57109746 C44.5656003,6.55187621 44.3272214,6.41197503 44.3699658,6.36989696 C44.3845615,6.35552831 44.4603446,6.33856035 44.5383702,6.33219067 C44.6728404,6.32121312 44.6817356,6.31613485 44.7090197,6.23475318 C44.7294396,6.17383999 44.7578362,6.1442596 44.8067634,6.13293451 C44.8446899,6.12415517 44.9047548,6.09064244 44.9402375,6.05846199 C44.97572,6.02628103 45.0918448,5.94402607 45.198293,5.87567317 C45.3772524,5.76075821 45.4881236,5.63826366 45.4484862,5.59924592 C45.4067275,5.55813735 45.0192437,5.51340134 44.8370153,5.52864988 C44.6253168,5.54636394 44.2605605,5.62206161 44.1080085,5.67993987 C43.9514205,5.73934917 43.9971943,5.68761288 44.2123378,5.56202196 C44.502769,5.39248201 45.0618509,5.23440575 45.3710487,5.23440575 C45.4910035,5.23440575 45.8923919,5.3277266 45.940202,5.36673064 C46.0338558,5.44313202 45.9317042,5.71133284 45.7579911,5.84513978 L45.6854489,5.90101455 L45.7450883,5.96361745 L45.8047251,6.02621985 L45.7438031,6.07486815 C45.7102971,6.10162481 45.6643993,6.1235167 45.641809,6.1235167 C45.6192188,6.1235167 45.5632877,6.15924921 45.5175137,6.20292204 C45.4470643,6.27013865 45.4379652,6.29184116 45.4582252,6.34430299 C45.4739151,6.38492592 45.4723796,6.42427039 45.4537712,6.45850104 C45.4363885,6.49047205 45.4320351,6.56316424 45.4425406,6.64594647 C45.4639902,6.81494341 45.4330364,6.87548596 45.3076623,6.90976155 C45.214695,6.93517756 44.874299,6.94011266 44.726903,6.91818117 L44.726903,6.91818117 Z" id="path14" fill="#ED3744"></path>
                    </g>
                    <path d="M31.7515234,56.3673778 C31.2447378,56.602984 30.6401399,56.7207854 29.9377116,56.7207854 C29.0797119,56.7207854 28.4114721,56.4692304 27.9329722,55.9661129 C27.4544724,55.4629954 27.2152261,54.7610957 27.2152261,53.8603927 C27.2152261,52.94251 27.4562402,52.2363155 27.9382758,51.7417878 C28.4203113,51.2472601 29.1079972,51 30.0013541,51 C30.5717825,51 31.1386667,51.0699446 31.7020236,51.2098358 L31.7020236,52.0970361 C31.0632381,51.8638841 30.5281749,51.7473098 30.0968179,51.7473098 C29.5452466,51.7473098 29.1197889,51.9295338 28.8204318,52.2939872 C28.5210748,52.6584406 28.3713985,53.1756621 28.3713985,53.8456674 C28.3713985,54.5034014 28.532271,55.0163282 28.8540209,55.3844629 C29.1757708,55.7525976 29.6230318,55.9366623 30.1958173,55.9366623 C30.7096743,55.9366623 31.2282378,55.8016815 31.7515234,55.5317161 L31.7515234,56.3673778 Z M32.1263071,56.5845762 L34.1628677,51.1362092 L35.2518619,51.1362092 L37.2884225,56.5845762 L36.1711427,56.5845762 L35.6266456,55.1304512 L33.4628,55.1304512 L32.9183029,56.5845762 L32.1263071,56.5845762 Z M33.7315128,54.4052294 L35.3579327,54.4052294 L34.5447228,52.2332452 L33.7315128,54.4052294 Z M38.0309185,56.5845762 L38.0309185,51.1362092 L39.9896938,51.1362092 C41.0527649,51.1362092 41.5842925,51.5865539 41.5842925,52.4872569 C41.5842925,52.8234867 41.4941332,53.1296475 41.3138118,53.4057485 C41.1334904,53.6818496 40.8854049,53.8935239 40.5695479,54.0407778 L42.2808245,56.5845762 L40.9549387,56.5845762 L39.6573384,54.3573721 L39.0562702,54.3573721 L39.0562702,56.5845762 L38.0309185,56.5845762 Z M39.0562702,53.6100623 L39.3073046,53.6100623 C40.0969472,53.6100623 40.4917626,53.2775189 40.4917626,52.6124221 C40.4917626,52.1264843 40.1393751,51.883519 39.4345896,51.883519 L39.0562702,51.883519 L39.0562702,53.6100623 Z M44.3244565,56.5845762 L44.3244565,51.883519 L42.4505379,51.883519 L42.4505379,51.1362092 L47.290905,51.1362092 L47.290905,51.883519 L45.4169864,51.883519 L45.4169864,56.5845762 L44.3244565,56.5845762 Z M48.022794,56.5845762 L48.022794,51.1362092 L51.2933123,51.1362092 L51.2933123,51.883519 L49.1117882,51.883519 L49.1117882,53.4039079 L50.9008501,53.4039079 L50.9008501,54.132811 L49.1117882,54.132811 L49.1117882,55.8114971 L51.45949,55.8114971 L51.45949,56.5845762 L48.022794,56.5845762 Z M16,65.8637908 L16,60.4154238 L19.2705183,60.4154238 L19.2705183,61.1627336 L17.0889942,61.1627336 L17.0889942,62.6831225 L18.8780561,62.6831225 L18.8780561,63.4120257 L17.0889942,63.4120257 L17.0889942,65.0907117 L19.436696,65.0907117 L19.436696,65.8637908 L16,65.8637908 Z M17.0889942,59.958939 L17.9410968,58.7772324 L18.8992703,58.7772324 L17.764312,59.958939 L17.0889942,59.958939 Z M20.3489054,65.8637908 L20.3489054,60.4154238 L21.4378996,60.4154238 L21.4378996,65.0907117 L23.7962085,65.0907117 L23.7962085,65.8637908 L20.3489054,65.8637908 Z M24.5599188,65.8637908 L24.5599188,60.4154238 L27.8304371,60.4154238 L27.8304371,61.1627336 L25.648913,61.1627336 L25.648913,62.6831225 L27.4379749,62.6831225 L27.4379749,63.4120257 L25.648913,63.4120257 L25.648913,65.0907117 L27.9966148,65.0907117 L27.9966148,65.8637908 L24.5599188,65.8637908 Z M33.1198375,65.6465924 C32.613052,65.8821986 32.0084541,66 31.3060257,66 C30.448026,66 29.7797862,65.748445 29.3012864,65.2453275 C28.8227865,64.7422101 28.5835402,64.0403103 28.5835402,63.1396073 C28.5835402,62.2217247 28.8245544,61.5155301 29.3065899,61.0210025 C29.7886255,60.5264748 30.4763114,60.2792146 31.3696682,60.2792146 C31.9400966,60.2792146 32.5069808,60.3491592 33.0703378,60.4890504 L33.0703378,61.3762507 C32.4315523,61.1430987 31.896489,61.0265244 31.465132,61.0265244 C30.9135608,61.0265244 30.488103,61.2087484 30.188746,61.5732018 C29.8893889,61.9376552 29.7397126,62.4548768 29.7397126,63.124882 C29.7397126,63.7826161 29.9005852,64.2955428 30.2223351,64.6636776 C30.544085,65.0318123 30.991346,65.2158769 31.5641315,65.2158769 C32.0779885,65.2158769 32.596552,65.0808962 33.1198375,64.8109307 L33.1198375,65.6465924 Z M35.3650041,65.8637908 L35.3650041,61.1627336 L33.4910855,61.1627336 L33.4910855,60.4154238 L38.3314526,60.4154238 L38.3314526,61.1627336 L36.457534,61.1627336 L36.457534,65.8637908 L35.3650041,65.8637908 Z M41.358008,66 C40.5636511,66 39.9284108,65.7398553 39.4522681,65.2195582 C38.9761254,64.6992611 38.7380576,64.0059511 38.7380576,63.1396073 C38.7380576,62.2634466 38.977304,61.5676824 39.4558038,61.0522938 C39.9343037,60.5369051 40.5801509,60.2792146 41.3933649,60.2792146 C42.2018647,60.2792146 42.8459441,60.5369051 43.3256225,61.0522938 C43.8053009,61.5676824 44.0451365,62.2597653 44.0451365,63.1285633 C44.0451365,64.0169952 43.8053009,64.7176678 43.3256225,65.2306022 C42.8459441,65.7435366 42.1900791,66 41.358008,66 Z M41.3721508,65.2490089 C41.8388649,65.2490089 42.2083414,65.0581952 42.4805913,64.6765622 C42.7528412,64.2949292 42.8889641,63.7777076 42.8889641,63.124882 C42.8889641,62.4916902 42.7522519,61.9836719 42.4788234,61.6008118 C42.205395,61.2179516 41.8435791,61.0265244 41.3933649,61.0265244 C40.9384365,61.0265244 40.5748528,61.2179516 40.3026029,61.6008118 C40.030353,61.9836719 39.89423,62.4953715 39.89423,63.135926 C39.89423,63.771572 40.0297637,64.2826581 40.300835,64.6691995 C40.5719064,65.055741 40.929008,65.2490089 41.3721508,65.2490089 Z M45.0245242,65.8637908 L45.0245242,60.4154238 L46.9832995,60.4154238 C48.0463706,60.4154238 48.5778981,60.8657686 48.5778981,61.7664716 C48.5778981,62.1027013 48.4877388,62.4088621 48.3074174,62.6849632 C48.1270961,62.9610642 47.8790106,63.1727386 47.5631535,63.3199924 L49.2744302,65.8637908 L47.9485443,65.8637908 L46.6509441,63.6365867 L46.0498759,63.6365867 L46.0498759,65.8637908 L45.0245242,65.8637908 Z M46.0498759,62.8892769 L46.3009103,62.8892769 C47.0905529,62.8892769 47.4853682,62.5567336 47.4853682,61.8916368 C47.4853682,61.4056989 47.1329808,61.1627336 46.4281953,61.1627336 L46.0498759,61.1627336 L46.0498759,62.8892769 Z M49.4476792,65.8637908 L51.4842398,60.4154238 L52.573234,60.4154238 L54.6097946,65.8637908 L53.4925149,65.8637908 L52.9480178,64.4096658 L50.7841721,64.4096658 L50.239675,65.8637908 L49.4476792,65.8637908 Z M51.052885,63.684444 L52.6793049,63.684444 L51.8660949,61.5124599 L51.052885,63.684444 Z M55.3522907,65.8637908 L55.3522907,60.4154238 L56.4412849,60.4154238 L56.4412849,65.0907117 L58.7995938,65.0907117 L58.7995938,65.8637908 L55.3522907,65.8637908 Z M59.563304,65.8637908 L59.563304,60.4154238 L62.8338223,60.4154238 L62.8338223,61.1627336 L60.6522982,61.1627336 L60.6522982,62.6831225 L62.4413601,62.6831225 L62.4413601,63.4120257 L60.6522982,63.4120257 L60.6522982,65.0907117 L63,65.0907117 L63,65.8637908 L59.563304,65.8637908 Z" id="Carte-électorale" fill="#0065F6"></path>
                    <path d="M17,95.9245668 L17,92.9072375 L17.5137594,92.9072375 L18.2376127,95.2415902 L18.9826521,92.9072375 L19.4416811,92.9072375 L19.4416811,95.9245668 L19.0956438,95.9245668 L19.0956438,93.4699286 L18.3753214,95.7227319 L18.0169257,95.7227319 L17.3177893,93.4638124 L17.3177893,95.9245668 L17,95.9245668 Z M20.1125696,95.9245668 L20.1125696,92.9072375 L20.4833237,92.9072375 L20.4833237,95.9245668 L20.1125696,95.9245668 Z M21.1559777,95.9245668 L21.1559777,92.9072375 L21.5196699,92.9072375 L22.8349645,95.2375127 L22.8349645,92.9072375 L23.1527538,92.9072375 L23.1527538,95.9245668 L22.7908271,95.9245668 L21.473767,93.5942915 L21.473767,95.9245668 L21.1559777,95.9245668 Z M23.8254078,95.9245668 L23.8254078,92.9072375 L24.196162,92.9072375 L24.196162,95.9245668 L23.8254078,95.9245668 Z M25.3808098,96 C25.2054363,96 24.9812206,95.9558278 24.7081558,95.8674822 L24.7081558,95.4434251 C25.0024066,95.6010881 25.2442772,95.6799185 25.4337747,95.6799185 C25.5797231,95.6799185 25.6971274,95.6357463 25.7859912,95.5474006 C25.8748549,95.4590549 25.9192861,95.3428482 25.9192861,95.1987768 C25.9192861,95.0805295 25.8901557,94.9799528 25.8318941,94.8970438 C25.7736324,94.8141348 25.6662325,94.721713 25.509691,94.6197757 L25.3296104,94.4994903 C25.1071568,94.3527006 24.9503235,94.2144077 24.8591057,94.0846075 C24.767888,93.9548074 24.7222798,93.8036026 24.7222798,93.6309888 C24.7222798,93.3985717 24.7952529,93.2072722 24.9412013,93.0570846 C25.0871497,92.906897 25.2731134,92.8318043 25.4990981,92.8318043 C25.7003656,92.8318043 25.9128115,92.8705399 26.1364421,92.9480122 L26.1364421,93.3394495 C25.8610234,93.2144064 25.6556394,93.1518858 25.520284,93.1518858 C25.3919907,93.1518858 25.286062,93.191301 25.2024947,93.2701325 C25.1189275,93.348964 25.0771445,93.4481815 25.0771445,93.567788 C25.0771445,93.6683661 25.1077461,93.75739 25.1689503,93.8348624 C25.2301545,93.9123347 25.3419681,94.0047565 25.5043945,94.1121305 L25.6915371,94.2344546 C25.9175218,94.3826035 26.0752378,94.5225953 26.1646901,94.6544343 C26.2541423,94.7862732 26.2988678,94.9446134 26.2988678,95.1294597 C26.2988678,95.3917784 26.2150076,95.6024457 26.0472846,95.7614679 C25.8795616,95.9204901 25.6574056,96 25.3808098,96 Z M27.4376127,95.9245668 L27.4376127,93.2273191 L26.5107273,93.2273191 L26.5107273,92.9072375 L28.7352524,92.9072375 L28.7352524,93.2273191 L27.8083669,93.2273191 L27.8083669,95.9245668 L27.4376127,95.9245668 Z M29.1024755,95.9245668 L29.1024755,92.9072375 L30.5625408,92.9072375 L30.5625408,93.2273191 L29.4732297,93.2273191 L29.4732297,94.1957187 L30.3859912,94.1957187 L30.3859912,94.5117227 L29.4732297,94.5117227 L29.4732297,95.6044852 L30.6384571,95.6044852 L30.6384571,95.9245668 L29.1024755,95.9245668 Z M30.1229323,92.6544343 L29.8616388,92.6544343 L29.2949146,92 L29.6974477,92 L30.1229323,92.6544343 Z M31.0621762,95.9245668 L31.0621762,92.9072375 L31.8531184,92.9072375 C32.1038201,92.9072375 32.295963,92.9711173 32.4295529,93.0988787 C32.5631427,93.2266401 32.6299367,93.4121632 32.6299367,93.6554536 C32.6299367,94.0577662 32.4539773,94.3431864 32.1020533,94.5117227 L32.9742084,95.9245668 L32.5187104,95.9245668 L31.7754366,94.648318 L31.4293993,94.648318 L31.4293993,95.9245668 L31.0621762,95.9245668 Z M31.4293993,94.3282365 L31.5494531,94.3282365 C32.0155464,94.3282365 32.2485895,94.1168896 32.2485895,93.6941896 C32.2485895,93.382941 32.0532099,93.2273191 31.6624448,93.2273191 L31.4293993,93.2273191 L31.4293993,94.3282365 Z M33.3484936,95.9245668 L33.3484936,92.9072375 L34.8085588,92.9072375 L34.8085588,93.2273191 L33.7192477,93.2273191 L33.7192477,94.1957187 L34.6320092,94.1957187 L34.6320092,94.5117227 L33.7192477,94.5117227 L33.7192477,95.6044852 L34.8844751,95.6044852 L34.8844751,95.9245668 L33.3484936,95.9245668 Z M36.4522357,95.9245668 L36.4522357,92.9072375 L37.3208597,92.9072375 C37.5798004,92.9072375 37.7890096,92.9405365 37.9484936,93.0071356 C38.1079775,93.0737346 38.2459791,93.1865435 38.3625024,93.3455657 C38.5472919,93.5983703 38.6396853,93.9313605 38.6396853,94.3445464 C38.6396853,94.8460779 38.5249292,95.234793 38.2954135,95.5107034 C38.0658979,95.7866137 37.7428154,95.9245668 37.3261562,95.9245668 L36.4522357,95.9245668 Z M36.8229898,95.6044852 L37.2979083,95.6044852 C37.6368852,95.6044852 37.8769903,95.4991516 38.0182307,95.2884811 C38.1700641,95.0642191 38.2459797,94.7631687 38.2459797,94.3853211 C38.2459797,94.0305793 38.1712411,93.7519548 38.0217617,93.5494393 C37.9311324,93.4257554 37.8228497,93.3411487 37.6969104,93.2956167 C37.570971,93.2500847 37.3814764,93.2273191 37.1284206,93.2273191 L36.8229898,93.2273191 L36.8229898,95.6044852 Z M39.1605066,95.9245668 L39.1605066,92.9072375 L40.6205719,92.9072375 L40.6205719,93.2273191 L39.5312608,93.2273191 L39.5312608,94.1957187 L40.4440223,94.1957187 L40.4440223,94.5117227 L39.5312608,94.5117227 L39.5312608,95.6044852 L40.6964882,95.6044852 L40.6964882,95.9245668 L39.1605066,95.9245668 Z M42.2642487,95.9245668 L42.2642487,92.9072375 L42.6350029,92.9072375 L42.6350029,95.6044852 L43.8108233,95.6044852 L43.8108233,95.9245668 L42.2642487,95.9245668 Z M44.2080599,93.861366 L44.2080599,93.7104995 C44.264556,93.6928304 44.3069275,93.6456001 44.3351756,93.5688073 C44.3634237,93.4920146 44.3775475,93.3856616 44.3775475,93.2497452 L44.3775475,93.2089704 L44.2080599,93.2089704 L44.2080599,92.7054027 L44.6441374,92.7054027 L44.6441374,93.1416922 C44.6441374,93.3659542 44.6076508,93.5378859 44.5346766,93.6574924 C44.4617024,93.7770988 44.3528313,93.845056 44.2080599,93.861366 Z M45.3344464,95.9245668 L45.3344464,92.9072375 L45.7052005,92.9072375 L45.7052005,95.9245668 L45.3344464,95.9245668 Z M46.3778545,95.9245668 L46.3778545,92.9072375 L46.7415467,92.9072375 L48.0568413,95.2375127 L48.0568413,92.9072375 L48.3746306,92.9072375 L48.3746306,95.9245668 L48.0127039,95.9245668 L46.6956438,93.5942915 L46.6956438,95.9245668 L46.3778545,95.9245668 Z M49.6705047,95.9245668 L49.6705047,93.2273191 L48.7436193,93.2273191 L48.7436193,92.9072375 L50.9681443,92.9072375 L50.9681443,93.2273191 L50.0412589,93.2273191 L50.0412589,95.9245668 L49.6705047,95.9245668 Z M51.3353675,95.9245668 L51.3353675,92.9072375 L52.7954327,92.9072375 L52.7954327,93.2273191 L51.7061217,93.2273191 L51.7061217,94.1957187 L52.6188831,94.1957187 L52.6188831,94.5117227 L51.7061217,94.5117227 L51.7061217,95.6044852 L52.8713491,95.6044852 L52.8713491,95.9245668 L51.3353675,95.9245668 Z M52.3558242,92.6544343 L52.0945308,92.6544343 L51.5278066,92 L51.9303397,92 L52.3558242,92.6544343 Z M53.2950681,95.9245668 L53.2950681,92.9072375 L54.0860104,92.9072375 C54.3367121,92.9072375 54.528855,92.9711173 54.6624448,93.0988787 C54.7960347,93.2266401 54.8628286,93.4121632 54.8628286,93.6554536 C54.8628286,94.0577662 54.6868693,94.3431864 54.3349453,94.5117227 L55.2071004,95.9245668 L54.7516024,95.9245668 L54.0083285,94.648318 L53.6622913,94.648318 L53.6622913,95.9245668 L53.2950681,95.9245668 Z M53.6622913,94.3282365 L53.782345,94.3282365 C54.2484383,94.3282365 54.4814815,94.1168896 54.4814815,93.6941896 C54.4814815,93.382941 54.2861019,93.2273191 53.8953368,93.2273191 L53.6622913,93.2273191 L53.6622913,94.3282365 Z M55.57962,95.9245668 L55.57962,92.9072375 L55.9503742,92.9072375 L55.9503742,95.9245668 L55.57962,95.9245668 Z M56.6230282,95.9245668 L56.6230282,92.9072375 L58.0830935,92.9072375 L58.0830935,93.2273191 L56.9937824,93.2273191 L56.9937824,94.1957187 L57.9065438,94.1957187 L57.9065438,94.5117227 L56.9937824,94.5117227 L56.9937824,95.6044852 L58.1590098,95.6044852 L58.1590098,95.9245668 L56.6230282,95.9245668 Z M58.5615429,92.9072375 L58.9322971,92.9072375 L58.9322971,94.8114169 C58.9322971,95.1145105 58.9808477,95.3350316 59.0779505,95.4729867 C59.1750533,95.6109419 59.3295326,95.6799185 59.5413932,95.6799185 C59.7485458,95.6799185 59.8953747,95.6150193 59.9818845,95.4852192 C60.0683942,95.355419 60.1116484,95.1355775 60.1116484,94.8256881 L60.1116484,92.9072375 L60.4364997,92.9072375 L60.4364997,94.8195719 C60.4364997,95.2313986 60.3632324,95.5310898 60.2166955,95.7186544 C60.0701585,95.9062191 59.8368211,96 59.5166763,96 C59.1906464,96 58.9499528,95.9028212 58.7945884,95.7084608 C58.6392239,95.5141003 58.5615429,95.2137295 58.5615429,94.8073394 L58.5615429,92.9072375 Z M61.0879678,95.9245668 L61.0879678,92.9072375 L61.87891,92.9072375 C62.1296117,92.9072375 62.3217546,92.9711173 62.4553445,93.0988787 C62.5889343,93.2266401 62.6557283,93.4121632 62.6557283,93.6554536 C62.6557283,94.0577662 62.4797689,94.3431864 62.1278449,94.5117227 L63,95.9245668 L62.544502,95.9245668 L61.8012282,94.648318 L61.4551909,94.648318 L61.4551909,95.9245668 L61.0879678,95.9245668 Z M61.4551909,94.3282365 L61.5752447,94.3282365 C62.041338,94.3282365 62.2743811,94.1168896 62.2743811,93.6941896 C62.2743811,93.382941 62.0790015,93.2273191 61.6882364,93.2273191 L61.4551909,93.2273191 L61.4551909,94.3282365 Z" id="Ministère-de-l’intèr" fill="#0065F6"></path>
                </g>
                <circle id="Oval-13" fill="#F3F8FE" cx="92" cy="68" r="20"></circle>
                <use id="Oval-4" stroke="#1572EA" mask="url(#mask-4)" stroke-width="4" stroke-linecap="round" xlink:href="#path-3"></use>
                <path d="M86,67.3636364 L91.1101608,71.7069043 C91.9504168,72.4210613 93.241481,72.345611 93.997152,71.5348204 L115,49" id="Path-3" stroke="#1572EA" stroke-width="2" stroke-linecap="round"></path>
            </g>
        </g>
    </g>
</svg>