<?xml version="1.0" encoding="UTF-8"?>
<svg width="156px" height="132px" viewBox="0 0 156 132" version="1.1" xmlns="http://www.w3.org/2000/svg" xmlns:xlink="http://www.w3.org/1999/xlink">
    <!-- Generator: Sketch 41.1 (35376) - http://www.bohemiancoding.com/sketch -->
    <title>places</title>
    <desc>Created with Sketch.</desc>
    <defs>
        <rect id="path-1" x="2" y="45" width="80" height="58" rx="4"></rect>
        <mask id="mask-2" maskContentUnits="userSpaceOnUse" maskUnits="objectBoundingBox" x="0" y="0" width="80" height="58" fill="white">
            <use xlink:href="#path-1"></use>
        </mask>
        <rect id="path-3" x="0" y="39" width="84" height="38" rx="4"></rect>
        <mask id="mask-4" maskContentUnits="userSpaceOnUse" maskUnits="objectBoundingBox" x="0" y="0" width="84" height="38" fill="white">
            <use xlink:href="#path-3"></use>
        </mask>
        <rect id="path-5" x="36" y="71" width="12" height="14" rx="4"></rect>
        <mask id="mask-6" maskContentUnits="userSpaceOnUse" maskUnits="objectBoundingBox" x="0" y="0" width="12" height="14" fill="white">
            <use xlink:href="#path-5"></use>
        </mask>
        <path d="M57.5110118,56 L84,29.5110118 L55.3114754,0.822487239 L14,42.1339626 L27.8660374,56 L57.5110118,56 Z" id="path-7"></path>
        <mask id="mask-8" maskContentUnits="userSpaceOnUse" maskUnits="objectBoundingBox" x="0" y="0" width="70" height="55.1775128" fill="white">
            <use xlink:href="#path-7"></use>
        </mask>
    </defs>
    <g id="Page-1" stroke="none" stroke-width="1" fill="none" fill-rule="evenodd">
        <g id="Desktop" transform="translate(-434.000000, -1530.000000)">
            <g id="time" transform="translate(434.000000, 1530.000000)">
                <circle id="Oval-7" fill="#F3F8FE" cx="85.5" cy="63.5" r="40.5"></circle>
                <g id="Group-8" transform="translate(40.000000, 92.000000) rotate(-270.000000) translate(-40.000000, -92.000000) translate(39.000000, 62.000000)" fill="#1572EA" opacity="0.400000006">
                    <rect id="Rectangle-15" x="0" y="0" width="2" height="3"></rect>
                    <rect id="Rectangle-15" x="0" y="57" width="2" height="3"></rect>
                </g>
                <g id="Group-9" transform="translate(0.000000, 29.000000)">
                    <use id="d-day" stroke="#1572EA" mask="url(#mask-2)" stroke-width="4" fill="#F3F8FE" xlink:href="#path-1"></use>
                    <use id="d-day" stroke="#1572EA" mask="url(#mask-4)" stroke-width="4" fill="#FFFFFF" xlink:href="#path-3"></use>
                    <use id="d-day" stroke="#1572EA" mask="url(#mask-6)" stroke-width="4" fill="#FFFFFF" xlink:href="#path-5"></use>
                    <rect id="Rectangle" fill="#1572EA" x="38" y="75" width="8" height="2"></rect>
                    <rect id="d-day" fill="#1572EA" x="22" y="52" width="40" height="4" rx="2"></rect>
                    <rect id="d-day" fill="#1572EA" x="0" y="67" width="83" height="2"></rect>
                    <use id="Combined-Shape" stroke="#1572EA" mask="url(#mask-8)" stroke-width="4" fill="#FFFFFF" xlink:href="#path-7"></use>
                    <g id="Group-14" transform="translate(48.000000, 36.000000) rotate(-45.000000) translate(-48.000000, -36.000000) translate(33.000000, 24.000000)">
                        <rect id="Rectangle-21" fill="#1572EA" x="4" y="0" width="2" height="20" rx="1"></rect>
                        <rect id="Rectangle-21" fill="#1572EA" x="9" y="8" width="2" height="12" rx="1"></rect>
                        <rect id="Rectangle-21" fill="#1572EA" x="14" y="5" width="2" height="15" rx="1"></rect>
                        <rect id="Rectangle-21" fill="#1572EA" x="19" y="11" width="2" height="9" rx="1"></rect>
                        <rect id="Rectangle-21" fill="#1572EA" x="24" y="5" width="2" height="15" rx="1"></rect>
                        <rect id="Rectangle-21" fill="#1572EA" x="0" y="22" width="30" height="2" rx="1"></rect>
                        <polyline id="Path-4" stroke-opacity="0.229506341" stroke="#1572EA" stroke-width="2" stroke-linecap="round" stroke-linejoin="round" points="5 10 10 4 15 13 20 8 25 1"></polyline>
                    </g>
                </g>
            </g>
        </g>
    </g>
</svg>