<?xml version="1.0" encoding="UTF-8"?>
<svg width="156px" height="132px" viewBox="0 0 156 132" version="1.1" xmlns="http://www.w3.org/2000/svg" xmlns:xlink="http://www.w3.org/1999/xlink">
    <!-- Generator: Sketch 41.1 (35376) - http://www.bohemiancoding.com/sketch -->
    <title>president</title>
    <desc>Created with Sketch.</desc>
    <defs>
        <circle id="path-1" cx="80" cy="32" r="10"></circle>
        <mask id="mask-2" maskContentUnits="userSpaceOnUse" maskUnits="objectBoundingBox" x="0" y="0" width="20" height="20" fill="white">
            <use xlink:href="#path-1"></use>
        </mask>
        <circle id="path-3" cx="38" cy="38" r="38"></circle>
    </defs>
    <g id="Page-1" stroke="none" stroke-width="1" fill="none" fill-rule="evenodd">
        <g id="Desktop" transform="translate(-215.000000, -1530.000000)">
            <g id="fail" transform="translate(215.000000, 1530.000000)">
                <path d="M46,31.9904648 C46,26.4728835 49.1607351,25.1607351 53.0643728,29.0643728 L118.935627,94.9356272 C122.837173,98.8371726 121.527431,102 116.009535,102 L55.9904648,102 C50.4728835,102 46,97.5274312 46,92.0095352 L46,31.9904648 Z" id="Rectangle-17" fill="#F3F8FE"></path>
                <g id="Group-8" transform="translate(68.500000, 92.000000) rotate(-270.000000) translate(-68.500000, -92.000000) translate(67.500000, 90.500000)" fill="#1572EA" opacity="0.400000006">
                    <rect id="Rectangle-15" x="0" y="0" width="2" height="3"></rect>
                </g>
                <g id="Group-7" transform="translate(2.000000, 56.000000)">
                    <path d="M37.3361928,40.5824381 C37.3361928,40.5824381 49.6289478,41.0923995 53.4925062,39.7412136 C57.3560645,38.3900276 57.121567,35.8366888 49.8373116,39.4417348 C42.5530561,43.0467809 33.9388042,50.2773562 34.967203,48.8082151 C35.9956017,47.3390741 36.2187981,47.2394833 46.1015967,46.3890767 C55.9843953,45.53867 57.3073286,43.0828031 57.3073286,43.0828031" id="Path-2" stroke="#1572EA" stroke-width="2" stroke-linecap="round" transform="translate(46.095264, 43.299169) rotate(12.000000) translate(-46.095264, -43.299169) "></path>
                    <use id="Oval-3" stroke="#1572EA" mask="url(#mask-2)" stroke-width="4" fill="#FFFFFF" xlink:href="#path-1"></use>
                    <path d="M86.9999969,18 C86.9986491,17.4543871 86.5514517,17 86,17 C85.4438648,17 85,17.4488226 85,18.0024733 L85,27.9975267 C85,28.544239 85.4477153,29 86,29 C86.5561352,29 87,28.5511774 87,27.9975267 L87,24 L92.0026083,24 C93.1041422,24 94,23.1055038 94,22.0020869 L94,19.9979131 C94,18.8982606 93.1057373,18 92.0026083,18 L86.9999972,18 Z" id="Combined-Shape" fill="#1572EA" transform="translate(89.500000, 23.000000) rotate(21.000000) translate(-89.500000, -23.000000) "></path>
                    <g id="Oval-Clipped">
                        <mask id="mask-4" fill="white">
                            <use xlink:href="#path-3"></use>
                        </mask>
                        <g id="path-1"></g>
                        <g id="Oval" mask="url(#mask-4)" stroke="#1572EA" stroke-width="4" fill="#FFFFFF">
                            <circle id="path-1" cx="38" cy="38" r="38"></circle>
                        </g>
                    </g>
                    <path d="M63.5419922,11.1484375 C63.5419922,11.1484375 51.7294922,12.7802734 51.7294922,19.1982422 C51.7294922,25.6162109 45.7128906,20.8730469 41.2431641,22.2802734 C36.7734375,23.6875 32.9072266,33.0332031 40.3398438,34.4140625 C47.7724609,35.7949219 53.2207031,35.7109375 56.6894531,33.8076172 C60.1582031,31.9042969 66.5126953,40.7695313 59.6660156,43 C52.8193359,45.2304688 40.9785156,37.7558594 36.5810547,41.0371094 C32.1835937,44.3183594 28.7685547,52.6044922 35.0058594,54.9550781 C41.2431641,57.3056641 43.9023437,55.5078125 42.1210938,64.8955078 C40.3398438,74.2832031 52.296875,74.0146484 55.2148438,69.4550781 C58.1328125,64.8955078 55.9267578,60.75 59.734375,60.75 C63.5419922,60.75 66.1445313,61.6337891 66.1445313,61.6337891" id="Path-3" stroke="#1572EA" stroke-width="2"></path>
                    <path d="M25.1845703,3.6894531 C25.1845703,3.6894531 36.4746094,4.2714844 34.1835938,8.6367187 C31.8925781,13.0019531 36.8662109,15.2402344 31.0253906,18.9638672 C25.1845703,22.6875 18.7744141,19.1025391 13.5390625,24.8261719 C8.30371094,30.5498047 2.875,33.8925781 6.9609375,33.8925781 C11.046875,33.8925781 15.0771484,35.1503906 11.5371094,43.9462891 C7.99707031,52.7421875 9.88964844,52.2255859 8.53613281,54.1347656 C7.18261719,56.0439453 6.9609375,57.0703125 6.9609375,57.0703125" id="Path-4" stroke="#1572EA" stroke-width="2"></path>
                </g>
                <g id="Group-13" transform="translate(7.000000, 12.000000)">
                    <rect id="Rectangle-18" stroke="#1572EA" stroke-width="2" fill="#FFFFFF" x="22" y="23" width="20" height="41"></rect>
                    <rect id="Rectangle-20" fill="#1572EA" x="26" y="45" width="2" height="12" rx="1"></rect>
                    <rect id="Rectangle-20" fill="#1572EA" x="31" y="33" width="2" height="12" rx="1"></rect>
                    <rect id="Rectangle-20" fill="#1572EA" x="36" y="43" width="2" height="12" rx="1"></rect>
                    <path d="M31.5839563,35 L49.9990251,35 C51.6705132,36.255821 53.7483504,37 56,37 C61.5228475,37 66,32.5228475 66,27 C66,24.5228172 65.0992757,22.2560099 63.6074718,20.5092227 C62.8699935,17.7621539 61.1409891,15.4216674 58.8278261,13.8947927 C58.0928348,10.5239854 55.0911716,8 51.5,8 C50.7300886,8 49.9872727,8.11601017 49.2880794,8.3315037 C47.5715779,3.47749124 42.9418947,0 37.5,0 C33.5367827,0 30.0043544,1.84442733 27.7142612,4.72173604 C26.7400652,4.25895035 25.6502732,4 24.5,4 C21.8257314,4 19.4783724,5.39966651 18.1505223,7.50640028 C17.1600018,7.17785657 16.1007712,7 15,7 C10.6553205,7 6.95777534,9.77071126 5.57792683,13.6415714 C2.23777757,15.6536282 0,19.3158605 0,23.5 C0,29.8526711 5.14753379,35 11.4973385,35 L11.8650429,35 C13.1225407,37.3789021 15.6219565,39 18.5,39 C20.5595804,39 22.425262,38.1698205 23.780669,36.8258371 C24.6504924,37.5585249 25.7736902,38 27,38 C29.050319,38 30.8123997,36.7659048 31.5839563,35 Z" id="Combined-Shape" stroke="#1572EA" stroke-width="2" fill="#FFFFFF"></path>
                    <path d="M25.6189634,53.2209607 C25.1039482,53.076983 24.5609643,53 24,53 C21.7100116,53 19.7196593,54.282895 18.7084391,56.1691891 C16.5692264,56.7395574 15,58.6862461 15,61 C15,63.7558048 17.241671,66 20.0069123,66 L47.9930877,66 C50.7647948,66 53,63.7614237 53,61 C53,58.8994334 51.6975895,57.0961118 49.8536423,56.357324 C49.3479735,54.4254185 47.5904489,53 45.5,53 C43.5406718,53 41.8738132,54.2522114 41.2560586,56 L33.9725356,56 C33.9906833,55.8358331 34,55.6690045 34,55.5 C34,53.0147186 31.9852814,51 29.5,51 C27.84638,51 26.4010833,51.8919381 25.6189634,53.2209607 Z" id="Combined-Shape" stroke="#1572EA" stroke-width="2" fill="#F3F8FE" transform="translate(34.000000, 58.500000) scale(-1, 1) translate(-34.000000, -58.500000) "></path>
                </g>
            </g>
        </g>
    </g>
</svg>