<?xml version="1.0" encoding="UTF-8"?>
<svg width="445px" height="76px" viewBox="0 0 445 76" version="1.1" xmlns="http://www.w3.org/2000/svg" xmlns:xlink="http://www.w3.org/1999/xlink">
    <!-- Generator: Sketch 41.1 (35376) - http://www.bohemiancoding.com/sketch -->
    <title>temps</title>
    <desc>Created with Sketch.</desc>
    <defs></defs>
    <g id="Page-1" stroke="none" stroke-width="1" fill="none" fill-rule="evenodd">
        <g id="Desktop" transform="translate(-1191.000000, -1439.000000)">
            <g id="18-plus" transform="translate(1191.000000, 1439.000000)">
                <path d="M3.198,69.31 L4.186,69.31 C5.03533758,69.31 5.70266424,69.0500026 6.188,68.53 C6.67333576,68.0099974 6.916,67.3123377 6.916,66.437 C6.916,65.5616623 6.67333576,64.8640026 6.188,64.344 C5.70266424,63.8239974 5.03533758,63.564 4.186,63.564 L3.198,63.564 L3.198,69.31 Z M4.186,61.874 C5.64200728,61.874 6.83799532,62.2964958 7.774,63.1415 C8.71000468,63.9865042 9.178,65.0828266 9.178,66.4305 C9.178,67.7781734 8.71000468,68.8766624 7.774,69.726 C6.83799532,70.5753376 5.64200728,71 4.186,71 L0.975,71 L0.975,61.874 L4.186,61.874 Z M15.6018571,67.373 C15.6018571,66.7836637 15.450192,66.3351682 15.1468571,66.0275 C14.8435223,65.7198318 14.4838592,65.566 14.0678571,65.566 C13.6518551,65.566 13.2943586,65.7198318 12.9953571,66.0275 C12.6963557,66.3351682 12.5468571,66.7836637 12.5468571,67.373 C12.5468571,67.9623363 12.7006889,68.4129984 13.0083571,68.725 C13.3160254,69.0370016 13.6778551,69.193 14.0938571,69.193 C14.5098592,69.193 14.865189,69.0370016 15.1598571,68.725 C15.4545253,68.4129984 15.6018571,67.9623363 15.6018571,67.373 Z M10.2848571,67.36 C10.2848571,66.2419944 10.6488535,65.34717 11.3768571,64.6755 C12.1048608,64.00383 13.0061851,63.668 14.0808571,63.668 C15.1555292,63.668 16.0546869,64.00383 16.7783571,64.6755 C17.5020274,65.34717 17.8638571,66.2419944 17.8638571,67.36 C17.8638571,68.4780056 17.5041941,69.3793299 16.7848571,70.064 C16.0655202,70.7486701 15.1685292,71.091 14.0938571,71.091 C13.0191851,71.091 12.1156941,70.7486701 11.3833571,70.064 C10.6510202,69.3793299 10.2848571,68.4780056 10.2848571,67.36 Z M21.7397143,63.746 L21.7397143,64.812 C22.1990499,64.0493295 22.9313759,63.668 23.9367143,63.668 C24.4740503,63.668 24.9528789,63.7893321 25.3732143,64.032 C25.7935497,64.2746679 26.1207131,64.6213311 26.3547143,65.072 C26.6233823,64.6473312 26.9722121,64.3071679 27.4012143,64.0515 C27.8302164,63.7958321 28.309045,63.668 28.8377143,63.668 C29.7217187,63.668 30.4237117,63.9409973 30.9437143,64.487 C31.4637169,65.0330027 31.7237143,65.7913285 31.7237143,66.762 L31.7237143,71 L29.5137143,71 L29.5137143,67.061 C29.5137143,66.5929977 29.3902155,66.2311679 29.1432143,65.9755 C28.8962131,65.7198321 28.5560498,65.592 28.1227143,65.592 C27.6893788,65.592 27.3492155,65.7198321 27.1022143,65.9755 C26.8552131,66.2311679 26.7317143,66.5929977 26.7317143,67.061 L26.7317143,71 L24.5217143,71 L24.5217143,67.061 C24.5217143,66.5929977 24.3982155,66.2311679 24.1512143,65.9755 C23.9042131,65.7198321 23.5640498,65.592 23.1307143,65.592 C22.6973788,65.592 22.3572155,65.7198321 22.1102143,65.9755 C21.8632131,66.2311679 21.7397143,66.5929977 21.7397143,67.061 L21.7397143,71 L19.5167143,71 L19.5167143,63.746 L21.7397143,63.746 Z M34.9365714,63.304 C34.5725696,63.304 34.264906,63.1783346 34.0135714,62.927 C33.7622369,62.6756654 33.6365714,62.3658352 33.6365714,61.9975 C33.6365714,61.6291648 33.7622369,61.3193346 34.0135714,61.068 C34.264906,60.8166654 34.5725696,60.691 34.9365714,60.691 C35.3005733,60.691 35.6082369,60.8166654 35.8595714,61.068 C36.110906,61.3193346 36.2365714,61.6291648 36.2365714,61.9975 C36.2365714,62.3658352 36.110906,62.6756654 35.8595714,62.927 C35.6082369,63.1783346 35.3005733,63.304 34.9365714,63.304 Z M33.8315714,71 L33.8315714,63.746 L36.0545714,63.746 L36.0545714,71 L33.8315714,71 Z M37.6944286,67.373 C37.6944286,66.2463277 38.0302586,65.34717 38.7019286,64.6755 C39.3735986,64.00383 40.2424233,63.668 41.3084286,63.668 C42.192433,63.668 42.9420922,63.8868311 43.5574286,64.3245 C44.172765,64.7621689 44.5800943,65.3883293 44.7794286,66.203 L42.3744286,66.203 C42.1664275,65.7696645 41.8262643,65.553 41.3539286,65.553 C40.8815929,65.553 40.5305964,65.7198317 40.3009286,66.0535 C40.0712608,66.3871683 39.9564286,66.8269973 39.9564286,67.373 C39.9564286,67.9190027 40.0712608,68.3588317 40.3009286,68.6925 C40.5305964,69.0261683 40.8664264,69.193 41.3084286,69.193 C41.5857633,69.193 41.8024278,69.1453338 41.9584286,69.05 C42.1144294,68.9546662 42.2530946,68.7856679 42.3744286,68.543 L44.7794286,68.543 C44.5800943,69.3230039 44.1684317,69.9426644 43.5444286,70.402 C42.9204255,70.8613356 42.1750996,71.091 41.3084286,71.091 C40.2424233,71.091 39.3735986,70.7530034 38.7019286,70.077 C38.0302586,69.4009966 37.6944286,68.4996723 37.6944286,67.373 Z M47.3552857,63.304 C46.9912839,63.304 46.6836203,63.1783346 46.4322857,62.927 C46.1809511,62.6756654 46.0552857,62.3658352 46.0552857,61.9975 C46.0552857,61.6291648 46.1809511,61.3193346 46.4322857,61.068 C46.6836203,60.8166654 46.9912839,60.691 47.3552857,60.691 C47.7192876,60.691 48.0269511,60.8166654 48.2782857,61.068 C48.5296203,61.3193346 48.6552857,61.6291648 48.6552857,61.9975 C48.6552857,62.3658352 48.5296203,62.6756654 48.2782857,62.927 C48.0269511,63.1783346 47.7192876,63.304 47.3552857,63.304 Z M46.2502857,71 L46.2502857,63.746 L48.4732857,63.746 L48.4732857,71 L46.2502857,71 Z M50.6461429,71 L50.6461429,61.38 L52.8691429,61.38 L52.8691429,71 L50.6461429,71 Z M58.123,71.091 C57.0656614,71.091 56.1990034,70.7508367 55.523,70.0705 C54.8469967,69.3901633 54.509,68.4866723 54.509,67.36 C54.509,66.2333277 54.84483,65.3363367 55.5165,64.669 C56.1881701,64.0016633 57.0569947,63.668 58.123,63.668 C59.1890054,63.668 60.0729965,63.99733 60.775,64.656 C61.4770035,65.31467 61.828,66.2289942 61.828,67.399 C61.828,67.6503346 61.8106669,67.8843323 61.776,68.101 L56.784,68.101 C56.8273336,68.4216683 56.9703322,68.6838323 57.213,68.8875 C57.4556679,69.0911677 57.717832,69.193 57.9995,69.193 C58.2811681,69.193 58.4913327,69.1648336 58.63,69.1085 C58.7686674,69.0521664 58.8704997,68.9958336 58.9355,68.9395 C59.0005004,68.8831664 59.0849995,68.7900007 59.189,68.66 L61.594,68.66 C61.385999,69.3880036 60.9700032,69.9751644 60.346,70.4215 C59.7219969,70.8678356 58.9810043,71.091 58.123,71.091 Z M59.072,65.8845 C58.8119987,65.6721656 58.5043351,65.566 58.149,65.566 C57.7936649,65.566 57.4946679,65.6721656 57.252,65.8845 C57.0093322,66.0968344 56.857667,66.3719983 56.797,66.71 L59.514,66.71 C59.4793332,66.3719983 59.3320013,66.0968344 59.072,65.8845 Z" id="Domicile" fill="#1572EA"></path>
                <path d="M111.31,61.874 L111.31,71 L109.087,71 L109.087,65.852 L106.968,71 L105.317,71 L103.198,65.852 L103.198,71 L100.975,71 L100.975,61.874 L103.523,61.874 L106.149,68.166 L108.762,61.874 L111.31,61.874 Z M118.383857,67.373 C118.383857,66.8009971 118.223525,66.3611682 117.902857,66.0535 C117.582189,65.7458318 117.213859,65.592 116.797857,65.592 C116.381855,65.592 116.013525,65.7479984 115.692857,66.06 C115.372189,66.3720016 115.211857,66.8139971 115.211857,67.386 C115.211857,67.9580029 115.372189,68.3978318 115.692857,68.7055 C116.013525,69.0131682 116.381855,69.167 116.797857,69.167 C117.213859,69.167 117.582189,69.0110016 117.902857,68.699 C118.223525,68.3869984 118.383857,67.9450029 118.383857,67.373 Z M112.949857,67.386 C112.949857,66.3026613 113.270521,65.4121702 113.911857,64.7145 C114.553194,64.0168298 115.335353,63.668 116.258357,63.668 C117.181362,63.668 117.889855,64.0103299 118.383857,64.695 L118.383857,63.746 L120.606857,63.746 L120.606857,71 L118.383857,71 L118.383857,69.947 C117.846521,70.7096705 117.127195,71.091 116.225857,71.091 C115.324519,71.091 114.553194,70.7443368 113.911857,70.051 C113.270521,69.3576632 112.949857,68.4693388 112.949857,67.386 Z M125.002714,63.746 L125.002714,65.098 C125.522717,64.1446619 126.216043,63.668 127.082714,63.668 L127.082714,65.93 L126.536714,65.93 C126.025378,65.93 125.641882,66.0513321 125.386214,66.294 C125.130546,66.5366679 125.002714,66.9613303 125.002714,67.568 L125.002714,71 L122.779714,71 L122.779714,63.746 L125.002714,63.746 Z M127.981571,67.373 C127.981571,66.2463277 128.317401,65.34717 128.989071,64.6755 C129.660741,64.00383 130.529566,63.668 131.595571,63.668 C132.479576,63.668 133.229235,63.8868311 133.844571,64.3245 C134.459908,64.7621689 134.867237,65.3883293 135.066571,66.203 L132.661571,66.203 C132.45357,65.7696645 132.113407,65.553 131.641071,65.553 C131.168736,65.553 130.817739,65.7198317 130.588071,66.0535 C130.358404,66.3871683 130.243571,66.8269973 130.243571,67.373 C130.243571,67.9190027 130.358404,68.3588317 130.588071,68.6925 C130.817739,69.0261683 131.153569,69.193 131.595571,69.193 C131.872906,69.193 132.089571,69.1453338 132.245571,69.05 C132.401572,68.9546662 132.540238,68.7856679 132.661571,68.543 L135.066571,68.543 C134.867237,69.3230039 134.455575,69.9426644 133.831571,70.402 C133.207568,70.8613356 132.462242,71.091 131.595571,71.091 C130.529566,71.091 129.660741,70.7530034 128.989071,70.077 C128.317401,69.4009966 127.981571,68.4996723 127.981571,67.373 Z M138.760429,61.38 L138.760429,64.812 C139.219764,64.0493295 139.95209,63.668 140.957429,63.668 C141.789433,63.668 142.463259,63.9453306 142.978929,64.5 C143.494598,65.0546694 143.752429,65.8086619 143.752429,66.762 L143.752429,71 L141.542429,71 L141.542429,67.061 C141.542429,66.5929977 141.41893,66.2311679 141.171929,65.9755 C140.924927,65.7198321 140.584764,65.592 140.151429,65.592 C139.718093,65.592 139.37793,65.7198321 139.130929,65.9755 C138.883927,66.2311679 138.760429,66.5929977 138.760429,67.061 L138.760429,71 L136.537429,71 L136.537429,61.38 L138.760429,61.38 Z M148.941286,71.091 C147.883947,71.091 147.017289,70.7508367 146.341286,70.0705 C145.665282,69.3901633 145.327286,68.4866723 145.327286,67.36 C145.327286,66.2333277 145.663116,65.3363367 146.334786,64.669 C147.006456,64.0016633 147.87528,63.668 148.941286,63.668 C150.007291,63.668 150.891282,63.99733 151.593286,64.656 C152.295289,65.31467 152.646286,66.2289942 152.646286,67.399 C152.646286,67.6503346 152.628953,67.8843323 152.594286,68.101 L147.602286,68.101 C147.645619,68.4216683 147.788618,68.6838323 148.031286,68.8875 C148.273954,69.0911677 148.536118,69.193 148.817786,69.193 C149.099454,69.193 149.309618,69.1648336 149.448286,69.1085 C149.586953,69.0521664 149.688785,68.9958336 149.753786,68.9395 C149.818786,68.8831664 149.903285,68.7900007 150.007286,68.66 L152.412286,68.66 C152.204285,69.3880036 151.788289,69.9751644 151.164286,70.4215 C150.540283,70.8678356 149.79929,71.091 148.941286,71.091 Z M149.890286,65.8845 C149.630284,65.6721656 149.322621,65.566 148.967286,65.566 C148.611951,65.566 148.312954,65.6721656 148.070286,65.8845 C147.827618,66.0968344 147.675953,66.3719983 147.615286,66.71 L150.332286,66.71 C150.297619,66.3719983 150.150287,66.0968344 149.890286,65.8845 Z" id="Marche" fill="#1572EA"></path>
                <path d="M180.975,61.874 L184.94,61.874 C185.867338,61.874 186.606164,62.0993311 187.1565,62.55 C187.706836,63.0006689 187.982,63.5726632 187.982,64.266 C187.982,65.2973385 187.379673,65.9949982 186.175,66.359 C186.790336,66.4456671 187.279998,66.7013312 187.644,67.126 C188.008002,67.5506688 188.19,68.0489971 188.19,68.621 C188.19,69.3490036 187.923503,69.9274979 187.3905,70.3565 C186.857497,70.7855021 186.114338,71 185.161,71 L180.975,71 L180.975,61.874 Z M183.198,63.564 L183.198,65.54 L184.654,65.54 C184.974668,65.54 185.232499,65.4576675 185.4275,65.293 C185.622501,65.1283325 185.72,64.8835016 185.72,64.5585 C185.72,64.2334984 185.622501,63.9865008 185.4275,63.8175 C185.232499,63.6484992 184.974668,63.564 184.654,63.564 L183.198,63.564 Z M183.198,69.31 L184.875,69.31 C185.178335,69.31 185.429666,69.2190009 185.629,69.037 C185.828334,68.8549991 185.928,68.6036683 185.928,68.283 C185.928,67.9623317 185.832668,67.7066676 185.642,67.516 C185.451332,67.3253324 185.204335,67.23 184.901,67.23 L183.198,67.23 L183.198,69.31 Z M194.886857,63.746 L197.109857,63.746 L197.109857,71 L194.886857,71 L194.886857,69.934 C194.427522,70.6966705 193.695196,71.078 192.689857,71.078 C191.857853,71.078 191.184026,70.8006694 190.668357,70.246 C190.152688,69.6913306 189.894857,68.9373381 189.894857,67.984 L189.894857,63.746 L192.104857,63.746 L192.104857,67.685 C192.104857,68.1530023 192.228356,68.5148321 192.475357,68.7705 C192.722358,69.0261679 193.062522,69.154 193.495857,69.154 C193.929193,69.154 194.269356,69.0261679 194.516357,68.7705 C194.763358,68.5148321 194.886857,68.1530023 194.886857,67.685 L194.886857,63.746 Z M201.505714,63.746 L201.505714,65.098 C202.025717,64.1446619 202.719043,63.668 203.585714,63.668 L203.585714,65.93 L203.039714,65.93 C202.528378,65.93 202.144882,66.0513321 201.889214,66.294 C201.633546,66.5366679 201.505714,66.9613303 201.505714,67.568 L201.505714,71 L199.282714,71 L199.282714,63.746 L201.505714,63.746 Z M208.098571,71.091 C207.041233,71.091 206.174575,70.7508367 205.498571,70.0705 C204.822568,69.3901633 204.484571,68.4866723 204.484571,67.36 C204.484571,66.2333277 204.820401,65.3363367 205.492071,64.669 C206.163741,64.0016633 207.032566,63.668 208.098571,63.668 C209.164577,63.668 210.048568,63.99733 210.750571,64.656 C211.452575,65.31467 211.803571,66.2289942 211.803571,67.399 C211.803571,67.6503346 211.786238,67.8843323 211.751571,68.101 L206.759571,68.101 C206.802905,68.4216683 206.945904,68.6838323 207.188571,68.8875 C207.431239,69.0911677 207.693403,69.193 207.975071,69.193 C208.25674,69.193 208.466904,69.1648336 208.605571,69.1085 C208.744239,69.0521664 208.846071,68.9958336 208.911071,68.9395 C208.976072,68.8831664 209.060571,68.7900007 209.164571,68.66 L211.569571,68.66 C211.36157,69.3880036 210.945575,69.9751644 210.321571,70.4215 C209.697568,70.8678356 208.956576,71.091 208.098571,71.091 Z M209.047571,65.8845 C208.78757,65.6721656 208.479907,65.566 208.124571,65.566 C207.769236,65.566 207.470239,65.6721656 207.227571,65.8845 C206.984904,66.0968344 206.833238,66.3719983 206.772571,66.71 L209.489571,66.71 C209.454905,66.3719983 209.307573,66.0968344 209.047571,65.8845 Z M218.357429,67.373 C218.357429,66.8009971 218.197097,66.3611682 217.876429,66.0535 C217.55576,65.7458318 217.187431,65.592 216.771429,65.592 C216.355427,65.592 215.987097,65.7479984 215.666429,66.06 C215.34576,66.3720016 215.185429,66.8139971 215.185429,67.386 C215.185429,67.9580029 215.34576,68.3978318 215.666429,68.7055 C215.987097,69.0131682 216.355427,69.167 216.771429,69.167 C217.187431,69.167 217.55576,69.0110016 217.876429,68.699 C218.197097,68.3869984 218.357429,67.9450029 218.357429,67.373 Z M212.923429,67.386 C212.923429,66.3026613 213.244092,65.4121702 213.885429,64.7145 C214.526765,64.0168298 215.308924,63.668 216.231929,63.668 C217.154933,63.668 217.863426,64.0103299 218.357429,64.695 L218.357429,63.746 L220.580429,63.746 L220.580429,71 L218.357429,71 L218.357429,69.947 C217.820093,70.7096705 217.100766,71.091 216.199429,71.091 C215.298091,71.091 214.526765,70.7443368 213.885429,70.051 C213.244092,69.3576632 212.923429,68.4693388 212.923429,67.386 Z M227.680286,63.746 L229.903286,63.746 L229.903286,71 L227.680286,71 L227.680286,69.934 C227.22095,70.6966705 226.488624,71.078 225.483286,71.078 C224.651282,71.078 223.977455,70.8006694 223.461786,70.246 C222.946116,69.6913306 222.688286,68.9373381 222.688286,67.984 L222.688286,63.746 L224.898286,63.746 L224.898286,67.685 C224.898286,68.1530023 225.021785,68.5148321 225.268786,68.7705 C225.515787,69.0261679 225.85595,69.154 226.289286,69.154 C226.722621,69.154 227.062785,69.0261679 227.309786,68.7705 C227.556787,68.5148321 227.680286,68.1530023 227.680286,67.685 L227.680286,63.746 Z M241.1,67.373 C241.1,66.8009971 240.939668,66.3611682 240.619,66.0535 C240.298332,65.7458318 239.930002,65.592 239.514,65.592 C239.097998,65.592 238.729668,65.7479984 238.409,66.06 C238.088332,66.3720016 237.928,66.8139971 237.928,67.386 C237.928,67.9580029 238.088332,68.3978318 238.409,68.7055 C238.729668,69.0131682 239.097998,69.167 239.514,69.167 C239.930002,69.167 240.298332,69.0110016 240.619,68.699 C240.939668,68.3869984 241.1,67.9450029 241.1,67.373 Z M235.666,67.386 C235.666,66.3026613 235.986663,65.4121702 236.628,64.7145 C237.269337,64.0168298 238.051495,63.668 238.9745,63.668 C239.897505,63.668 240.605998,64.0103299 241.1,64.695 L241.1,61.38 L243.323,61.38 L243.323,71 L241.1,71 L241.1,69.947 C240.562664,70.7096705 239.843338,71.091 238.942,71.091 C238.040662,71.091 237.269337,70.7443368 236.628,70.051 C235.986663,69.3576632 235.666,68.4693388 235.666,67.386 Z M248.576857,71.091 C247.519519,71.091 246.652861,70.7508367 245.976857,70.0705 C245.300854,69.3901633 244.962857,68.4866723 244.962857,67.36 C244.962857,66.2333277 245.298687,65.3363367 245.970357,64.669 C246.642027,64.0016633 247.510852,63.668 248.576857,63.668 C249.642863,63.668 250.526854,63.99733 251.228857,64.656 C251.930861,65.31467 252.281857,66.2289942 252.281857,67.399 C252.281857,67.6503346 252.264524,67.8843323 252.229857,68.101 L247.237857,68.101 C247.281191,68.4216683 247.424189,68.6838323 247.666857,68.8875 C247.909525,69.0911677 248.171689,69.193 248.453357,69.193 C248.735025,69.193 248.94519,69.1648336 249.083857,69.1085 C249.222525,69.0521664 249.324357,68.9958336 249.389357,68.9395 C249.454358,68.8831664 249.538857,68.7900007 249.642857,68.66 L252.047857,68.66 C251.839856,69.3880036 251.42386,69.9751644 250.799857,70.4215 C250.175854,70.8678356 249.434861,71.091 248.576857,71.091 Z M249.525857,65.8845 C249.265856,65.6721656 248.958192,65.566 248.602857,65.566 C248.247522,65.566 247.948525,65.6721656 247.705857,65.8845 C247.463189,66.0968344 247.311524,66.3719983 247.250857,66.71 L249.967857,66.71 C249.93319,66.3719983 249.785858,66.0968344 249.525857,65.8845 Z M257.134571,63.746 L259.500571,63.746 L261.151571,69.141 L262.802571,63.746 L265.168571,63.746 L262.594571,71 L259.708571,71 L257.134571,63.746 Z M271.215429,67.373 C271.215429,66.7836637 271.063763,66.3351682 270.760429,66.0275 C270.457094,65.7198318 270.097431,65.566 269.681429,65.566 C269.265427,65.566 268.90793,65.7198318 268.608929,66.0275 C268.309927,66.3351682 268.160429,66.7836637 268.160429,67.373 C268.160429,67.9623363 268.31426,68.4129984 268.621929,68.725 C268.929597,69.0370016 269.291427,69.193 269.707429,69.193 C270.123431,69.193 270.47876,69.0370016 270.773429,68.725 C271.068097,68.4129984 271.215429,67.9623363 271.215429,67.373 Z M265.898429,67.36 C265.898429,66.2419944 266.262425,65.34717 266.990429,64.6755 C267.718432,64.00383 268.619757,63.668 269.694429,63.668 C270.769101,63.668 271.668258,64.00383 272.391929,64.6755 C273.115599,65.34717 273.477429,66.2419944 273.477429,67.36 C273.477429,68.4780056 273.117766,69.3793299 272.398429,70.064 C271.679092,70.7486701 270.782101,71.091 269.707429,71.091 C268.632757,71.091 267.729266,70.7486701 266.996929,70.064 C266.264592,69.3793299 265.898429,68.4780056 265.898429,67.36 Z M278.211286,69.115 L279.004286,69.115 L279.004286,71 L277.873286,71 C277.058615,71 276.428121,70.8201685 275.981786,70.4605 C275.53545,70.1008315 275.312286,69.4833377 275.312286,68.608 L275.312286,65.592 L274.636286,65.592 L274.636286,63.746 L275.312286,63.746 L275.312286,61.978 L277.535286,61.978 L277.535286,63.746 L278.991286,63.746 L278.991286,65.592 L277.535286,65.592 L277.535286,68.608 C277.535286,68.9460017 277.760617,69.115 278.211286,69.115 Z M283.829143,71.091 C282.771804,71.091 281.905146,70.7508367 281.229143,70.0705 C280.55314,69.3901633 280.215143,68.4866723 280.215143,67.36 C280.215143,66.2333277 280.550973,65.3363367 281.222643,64.669 C281.894313,64.0016633 282.763138,63.668 283.829143,63.668 C284.895148,63.668 285.779139,63.99733 286.481143,64.656 C287.183146,65.31467 287.534143,66.2289942 287.534143,67.399 C287.534143,67.6503346 287.51681,67.8843323 287.482143,68.101 L282.490143,68.101 C282.533476,68.4216683 282.676475,68.6838323 282.919143,68.8875 C283.161811,69.0911677 283.423975,69.193 283.705643,69.193 C283.987311,69.193 284.197476,69.1648336 284.336143,69.1085 C284.47481,69.0521664 284.576643,68.9958336 284.641643,68.9395 C284.706643,68.8831664 284.791142,68.7900007 284.895143,68.66 L287.300143,68.66 C287.092142,69.3880036 286.676146,69.9751644 286.052143,70.4215 C285.42814,70.8678356 284.687147,71.091 283.829143,71.091 Z M284.778143,65.8845 C284.518142,65.6721656 284.210478,65.566 283.855143,65.566 C283.499808,65.566 283.200811,65.6721656 282.958143,65.8845 C282.715475,66.0968344 282.56381,66.3719983 282.503143,66.71 L285.220143,66.71 C285.185476,66.3719983 285.038144,66.0968344 284.778143,65.8845 Z" id="Bureau-de-vote" fill="#1572EA"></path>
                <g id="Group-16" transform="translate(12.000000, 11.000000)">
                    <path d="M117,8 C119.2,8 121,6.2 121,4 C121,1.8 119.2,0 117,0 C114.8,0 113,1.8 113,4 C113,6.2 114.8,8 117,8 Z M109.6,14.8 L104,43 L108.2,43 L111.8,27 L116,31 L116,43 L120,43 L120,28 L115.8,24 L117,18 C119.6,21 123.6,23 128,23 L128,19 C124.2,19 121,17 119.4,14.2 L117.4,11 C116.6,9.8 115.4,9 114,9 C113.4,9 113,9.2 112.4,9.2 L102,13.6 L102,23 L106,23 L106,16.2 L109.6,14.8 L109.6,14.8 Z" id="Shape" fill="#0065F6"></path>
                    <path d="M237.98,15 C237.98,13.56 237.24,12.3 236.1,11.6 L218,1 L199.9,11.6 C198.76,12.3 198,13.56 198,15 L198,35 C198,37.2 199.8,39 202,39 L234,39 C236.2,39 238,37.2 238,35 L237.98,15 Z M218,25 L201.48,14.68 L218,5 L234.52,14.68 L218,25 Z" id="Shape" fill="#0065F6"></path>
                    <polygon id="Shape" fill="#0065F6" points="16 39 16 27 24 27 24 39 34 39 34 23 40 23 20 5 0 23 6 23 6 39"></polygon>
                    <polyline id="Path-6" stroke-opacity="0.180338542" stroke="#000000" points="62 6 78 23 62 39"></polyline>
                    <polyline id="Path-6" stroke-opacity="0.180338542" stroke="#000000" points="154 6 170 23 154 39"></polyline>
                </g>
            </g>
        </g>
    </g>
</svg>