<?xml version="1.0" encoding="UTF-8"?>
<svg width="156px" height="132px" viewBox="0 0 156 132" version="1.1" xmlns="http://www.w3.org/2000/svg" xmlns:xlink="http://www.w3.org/1999/xlink">
    <!-- Generator: Sketch 41.1 (35376) - http://www.bohemiancoding.com/sketch -->
    <title>time</title>
    <desc>Created with Sketch.</desc>
    <defs>
        <rect id="path-1" x="68.0710678" y="62.0710678" width="6" height="8" rx="3"></rect>
        <mask id="mask-2" maskContentUnits="userSpaceOnUse" maskUnits="objectBoundingBox" x="0" y="0" width="6" height="8" fill="white">
            <use xlink:href="#path-1"></use>
        </mask>
        <rect id="path-3" x="34" y="48" width="12" height="11"></rect>
        <mask id="mask-4" maskContentUnits="userSpaceOnUse" maskUnits="objectBoundingBox" x="0" y="0" width="12" height="11" fill="white">
            <use xlink:href="#path-3"></use>
        </mask>
        <circle id="path-5" cx="40" cy="92" r="40"></circle>
        <mask id="mask-6" maskContentUnits="userSpaceOnUse" maskUnits="objectBoundingBox" x="0" y="0" width="80" height="80" fill="white">
            <use xlink:href="#path-5"></use>
        </mask>
        <rect id="path-7" x="26" y="43" width="28" height="8" rx="4"></rect>
        <mask id="mask-8" maskContentUnits="userSpaceOnUse" maskUnits="objectBoundingBox" x="0" y="0" width="28" height="8" fill="white">
            <use xlink:href="#path-7"></use>
        </mask>
        <rect id="path-9" x="68.0710678" y="60.0710678" width="12" height="6" rx="3"></rect>
        <mask id="mask-10" maskContentUnits="userSpaceOnUse" maskUnits="objectBoundingBox" x="0" y="0" width="12" height="6" fill="white">
            <use xlink:href="#path-9"></use>
        </mask>
        <circle id="path-11" cx="40" cy="92" r="6"></circle>
        <mask id="mask-12" maskContentUnits="userSpaceOnUse" maskUnits="objectBoundingBox" x="0" y="0" width="12" height="12" fill="white">
            <use xlink:href="#path-11"></use>
        </mask>
    </defs>
    <g id="Page-1" stroke="none" stroke-width="1" fill="none" fill-rule="evenodd">
        <g id="Desktop" transform="translate(-145.000000, -1276.000000)">
            <g id="time" transform="translate(145.000000, 1276.000000)">
                <polygon id="Triangle" fill="#F3F8FE" points="100 22 154 106 46 106"></polygon>
                <use id="Rectangle-12" stroke="#1572EA" mask="url(#mask-2)" stroke-width="4" fill="#F3F8FE" transform="translate(71.071068, 66.071068) rotate(-315.000000) translate(-71.071068, -66.071068) " xlink:href="#path-1"></use>
                <use id="Rectangle-12" stroke="#1572EA" mask="url(#mask-4)" stroke-width="4" fill="#FFFFFF" xlink:href="#path-3"></use>
                <use id="Oval-6" stroke="#1572EA" mask="url(#mask-6)" stroke-width="4" fill="#FFFFFF" xlink:href="#path-5"></use>
                <use id="Rectangle-12" stroke="#1572EA" mask="url(#mask-8)" stroke-width="4" fill="#FFFFFF" xlink:href="#path-7"></use>
                <rect id="Rectangle-13" fill="#1572EA" opacity="0.200000018" x="39" y="44" width="2" height="7" rx="1"></rect>
                <rect id="Rectangle-13" fill="#1572EA" opacity="0.200000018" x="33" y="44" width="2" height="7" rx="1"></rect>
                <rect id="Rectangle-13" fill="#1572EA" opacity="0.200000018" x="45" y="44" width="2" height="7" rx="1"></rect>
                <use id="Rectangle-12" stroke="#1572EA" mask="url(#mask-10)" stroke-width="4" fill="#F3F8FE" transform="translate(74.071068, 63.071068) rotate(-315.000000) translate(-74.071068, -63.071068) " xlink:href="#path-9"></use>
                <circle id="Oval-6" fill="#F3F8FE" cx="40" cy="92" r="32"></circle>
                <g id="Group-8" transform="translate(39.000000, 62.000000)" fill="#1572EA" opacity="0.400000006">
                    <rect id="Rectangle-15" x="0" y="0" width="2" height="3"></rect>
                    <rect id="Rectangle-15" x="0" y="57" width="2" height="3"></rect>
                </g>
                <g id="Group-8" transform="translate(40.000000, 92.000000) rotate(-270.000000) translate(-40.000000, -92.000000) translate(39.000000, 62.000000)" fill="#1572EA" opacity="0.400000006">
                    <rect id="Rectangle-15" x="0" y="0" width="2" height="3"></rect>
                    <rect id="Rectangle-15" x="0" y="57" width="2" height="3"></rect>
                </g>
                <path d="M66,92 C66,77.6405965 54.3594035,66 40,66 L40,105 L40,92 L66,92 Z" id="Combined-Shape" fill="#1572EA" opacity="0.200000018"></path>
                <rect id="Rectangle-13" fill="#1572EA" transform="translate(54.000000, 92.000000) rotate(-270.000000) translate(-54.000000, -92.000000) " x="52" y="79" width="4" height="26" rx="2"></rect>
                <use id="Oval-6" stroke="#1572EA" mask="url(#mask-12)" stroke-width="4" fill="#FFFFFF" xlink:href="#path-11"></use>
                <circle id="Oval-6" fill="#C6DDFA" cx="40" cy="92" r="2"></circle>
            </g>
        </g>
    </g>
</svg>