<?xml version="1.0" encoding="UTF-8"?>
<svg width="132px" height="132px" viewBox="0 0 132 132" version="1.1" xmlns="http://www.w3.org/2000/svg" xmlns:xlink="http://www.w3.org/1999/xlink">
    <!-- Generator: Sketch 41 (35326) - http://www.bohemiancoding.com/sketch -->
    <title>twitter</title>
    <desc>Created with Sketch.</desc>
    <defs></defs>
    <g id="Page-1" stroke="none" stroke-width="1" fill="none" fill-rule="evenodd">
        <g id="Desktop" transform="translate(-673.000000, -836.000000)">
            <g id="cards" transform="translate(206.000000, 633.000000)">
                <g id="card"></g>
            </g>
            <g id="Group-3" transform="translate(673.000000, 836.000000)" fill="#1572EA">
                <path d="M116.195809,29.7510321 C116.195809,28.5966866 116.172524,27.4475386 116.119745,26.3046275 C121.301389,22.5422201 125.806222,17.8473969 129.36,12.5018575 C124.604209,14.6234415 119.486727,16.0537696 114.118287,16.6982488 C119.597977,13.398931 123.804764,8.1765703 125.788629,1.95214836 C120.659764,5.00562856 114.981895,7.22648318 108.936643,8.42240794 C104.093922,3.24110681 97.196447,0 89.564207,0 C74.9061667,0 63.0200525,11.9389776 63.0200525,26.6564923 C63.0200525,28.7489709 63.2534179,30.7827186 63.7082477,32.734867 C41.6513328,31.6210613 22.0921008,21.0126214 9.003456,4.88244987 C6.72206304,8.82104952 5.40931776,13.398931 5.40931776,18.2808611 C5.40931776,27.5301775 10.094737,35.6947937 17.2193683,40.4712164 C12.866663,40.3366034 8.77629984,39.1349615 5.19923712,37.1360364 C5.19302784,37.247261 5.19302784,37.3590054 5.19302784,37.4759472 C5.19302784,50.3884003 14.3429194,61.1667956 26.4856838,63.611139 C24.2570698,64.2202758 21.9109968,64.5487523 19.4893776,64.5487523 C17.7797558,64.5487523 16.1167037,64.3787969 14.5002211,64.0679916 C17.8791043,74.65928 27.6763133,82.3665239 39.2938762,82.5837758 C30.2086646,89.733857 18.7659965,93.9946963 6.33139584,93.9946963 C4.18971168,93.9946963 2.0775216,93.8720373 0,93.6256799 C11.7464054,101.186357 25.6924483,105.6 40.6826851,105.6 C89.5000445,105.6 116.195809,64.9764994 116.195809,29.7510321 Z" id="Combined-Shape"></path>
            </g>
        </g>
    </g>
</svg>